<?xml version="1.0" encoding="utf-8"?>
<!-- Generator: Adobe Illustrator 28.1.0, SVG Export Plug-In . SVG Version: 6.00 Build 0)  -->
<svg version="1.1" id="圖層_1" xmlns="http://www.w3.org/2000/svg" xmlns:xlink="http://www.w3.org/1999/xlink" x="0px" y="0px"
	 viewBox="0 0 500 500" style="enable-background:new 0 0 500 500;" xml:space="preserve">
<g>
	<path d="M178,191.2c12.4,4.4,26.2-2.1,30.6-14.6l0.4-1.2c1.1-3.2,4.1-5.3,7.5-5.3h58.3c8.3,0,15.1,6.7,15.1,15.1
		c0,5.4-2.9,10.4-7.6,13.1L238,223.7c-7.5,4.3-12.1,12.2-12.1,20.8V258c0,13.3,10.7,24,24,24c13.1,0,23.8-10.6,24-23.6l32.3-18.5
		c19.6-11.3,31.7-32.2,31.7-54.8c0-34.8-28.2-63.1-63.1-63.1h-58.3c-23.7,0-44.9,15-52.8,37.3l0.1,0.1l-0.4,1.2
		C159,173,165.6,186.8,178,191.2z"/>
	<circle cx="249.9" cy="346" r="32"/>
</g>
<path d="M250,24c30.5,0,60.1,6,88,17.8c26.9,11.4,51.1,27.7,71.8,48.4c20.8,20.8,37.1,44.9,48.4,71.8c11.8,27.8,17.8,57.4,17.8,88
	s-6,60.1-17.8,88c-11.4,26.9-27.7,51.1-48.4,71.8c-20.8,20.8-44.9,37.1-71.8,48.4C310.1,470,280.5,476,250,476s-60.1-6-88-17.8
	c-26.9-11.4-51.1-27.7-71.8-48.4C69.4,389,53.1,364.9,41.8,338C30,310.1,24,280.5,24,250s6-60.1,17.8-88
	c11.4-26.9,27.7-51.1,48.4-71.8C111,69.4,135.1,53.1,162,41.8C189.9,30,219.5,24,250,24 M250,0C111.9,0,0,111.9,0,250
	s111.9,250,250,250s250-111.9,250-250S388.1,0,250,0L250,0z"/>
</svg>
