<?xml version="1.0" encoding="utf-8"?>
<!-- Generator: Adobe Illustrator 28.1.0, SVG Export Plug-In . SVG Version: 6.00 Build 0)  -->
<svg version="1.1" id="圖層_1" xmlns="http://www.w3.org/2000/svg" xmlns:xlink="http://www.w3.org/1999/xlink" x="0px" y="0px"
	 viewBox="0 0 500 500" style="enable-background:new 0 0 500 500;" xml:space="preserve">
<g>
	<path d="M249.7,362.1c-62.1-0.2-112.4-50.6-111.9-112.4c0.5-61.9,51.1-111.9,113-111.5c61.3,0.4,111.4,50.9,111.3,112.1
		C362,312.3,311.7,362.3,249.7,362.1z M250.6,163c-48.5-0.1-88.2,39.2-88.1,87.2c0.1,47.7,39,86.9,86.8,87.4
		c48.1,0.5,87.9-39.1,87.9-87.2C337.3,202.6,298.2,163.2,250.6,163z"/>
	<path d="M499.9,238.1c-0.3-33.9,5.1-33.8-33.1-37.1c-0.4,0-0.8-0.2-1.1-0.2c-21.4,1.5-36-6.3-39.7-29.2c-0.4-2.5-1.8-5-3.4-7.2
		c-3.9-5.5-3.2-9.8,1.3-15c9.2-10.6,17.6-21.9,26.4-32.8c6.1-7.5,5.7-14.3-1.2-21.1c-11.1-10.9-22-22-33-33
		c-21.9-21.9-21.9-21.9-45.8-2.9c-28,22.3-28.1,22.4-60.5,6.4c-3.2-1.6-6.4-6.1-7-9.7c-2.5-14.2-4.3-28.5-5.9-42.8
		c-1-9.3-6-13.5-15-13.5C275.7,0,225,0.1,219.1,0c-10.1-0.2-15.4,4.3-16.4,14.6c-1.3,14-3,27.9-5.4,41.7c-0.6,3.6-4.1,7.5-7.3,9.7
		c-4.3,2.9-10.3,3.3-14.4,6.4c-14.4,11-26,6-37.4-4.9c-6.6-6.2-13.8-11.8-20.9-17.5c-8-6.4-15.5-6.7-23.1,1.2
		C79.8,66.3,65,81.1,50.4,96c-6.4,6.5-6.8,13.1-1.2,20.2c8.3,10.4,16.1,21.1,25,31.1c5.5,6.2,7.2,11.5,2.4,19
		c-3.2,5-6.1,10.8-7.1,16.7c-2.3,13.2-10.6,16.3-22.3,16.8c-11.7,0.5-23.4,2.4-35.1,3.8c-8.1,1-12,5.6-12,13.8c0,22,0,44,0,66.1
		c0,8.8,4.6,13.2,13,14.1c14,1.5,27.9,3.5,41.9,4.6c6.5,0.5,10.5,2.3,12.1,9.2c1.4,5.8,3.2,12.1,6.6,16.9
		c8.9,12.3,5.4,21.7-4.4,31.5c-7.4,7.5-13.4,16.4-20,24.8c-5.6,7.1-5.3,13.8,1.2,20.2c15.1,15,30.1,30,45.1,45.1
		c6.9,7,13.6,7,21.1,0.9c11.2-9.1,22.3-18.3,34-26.7c2.8-2,8.2-2.5,11.7-1.3c9.3,3,18.6,6.7,27.2,11.4c3.8,2.1,7.6,6.9,8.4,11
		c2.4,12.6,3.7,25.5,4.6,38.4c0.5,7.8,2.8,13.6,9.5,16.4h76.9c4.9-1.7,7.6-6.2,8.3-12.8c1.3-12.1,3.3-24.1,4-36.2
		c0.5-10.1,3-17,14.4-19.3c7.6-1.5,14.5-6.6,22.1-8.9c3.5-1.1,8.9-0.9,11.7,1.2c11.7,8.4,22.8,17.6,34,26.7
		c7.4,6.1,14.2,6.3,21.1-0.7c15-15.1,30-30.1,45.1-45.1c7-6.9,6.8-13.8,0.7-21.1c-5.5-6.7-10.2-14.3-16.5-20.3
		c-12.4-11.8-17-23.8-5.7-39c2.6-3.5,3.9-8.3,4.8-12.7c1.5-6.6,4.9-9.1,11.8-9.6c14-1,27.9-3.1,41.9-4.5c9.1-1,13.6-5.7,13.5-14.9
		C499.8,267.7,500.1,252.9,499.9,238.1z M475.2,268c-0.1,2.4-5,5.9-8,6.4c-12.7,2.1-25.6,3.5-38.4,4.5c-8.8,0.7-13.2,4.8-16.2,13.1
		c-5.3,14.9-11.5,29.6-18.3,44c-3.5,7.5-3.5,13.3,1.9,19.8c9.9,11.9,19.3,24.3,28.3,35.6c-11.1,11.2-21.7,21.9-33.2,33.5
		c-10.8-8.6-23.2-17.9-35-27.9c-7.1-6-13.4-6-21.7-1.8c-13.5,6.8-27.5,12.8-41.8,17.4c-9.6,3.1-13.5,8.2-14.3,17.7
		c-1.3,14.7-3.2,29.3-5,44.6c-15.6,0-30.6,0-46.8,0c-1.8-15-4-29.9-5.2-44.9c-0.8-9.7-5.1-14.4-14.5-17.5
		c-14.3-4.6-28.4-10.7-41.8-17.5c-8.4-4.3-14.6-3.8-21.7,2.1c-11.6,9.7-23.6,18.9-35.7,28.6c-10.7-11.4-20.9-22.4-32.2-34.5
		c8.2-10.3,17.3-22.4,27-33.8c6.2-7.3,6.9-13.7,2.4-22.6c-7-13.8-12.6-28.3-17.8-42.9c-2.8-7.9-6.8-12-15.1-12.8
		c-13.2-1.1-26.5-2.5-39.5-4.7c-2.9-0.5-7.4-4.3-7.5-6.8c-0.8-13.2-0.4-26.4-0.4-40.7c16-1.8,30.3-3.7,44.7-4.9
		c9.9-0.8,15.3-4.9,18.5-15c4.5-14.4,10.8-28.3,17.5-41.8c3.9-7.9,3.8-14-1.7-20.8c-9.8-12-19.1-24.5-29.3-37.6
		c11.2-10.2,22.1-20.1,34.5-31.3c10.1,8.2,22,17.2,33.2,27.1c8,7.1,14.4,7.9,24.2,2.2c12.3-7.2,26-12.5,39.7-16.5
		c10.5-3.1,15-8.3,15.7-19c1-14.3,3.2-28.5,5-43.7c15.4,0,30.7,0,46.7,0c1.8,15.3,3.8,30.3,5.2,45.3c0.8,9.1,5,13.8,13.9,16.9
		c14.9,5.2,29.4,11.8,43.6,18.8c7.4,3.6,13,2.5,18.8-2.1c12.5-9.8,24.9-19.7,37.5-29.6c10.7,11.2,21.1,22,32.5,33.9
		c-8.7,11-18.1,23.3-28,35.1c-6,7.1-6,13.5-1.9,21.8c6.7,13.5,12.7,27.5,17.4,41.8c3,8.9,7.5,13.3,16.6,14.2
		c15.1,1.4,30.1,3.3,46.6,5.2C475.6,241,476,254.5,475.2,268z"/>
</g>
</svg>
