<?xml version="1.0" encoding="UTF-8"?>
<svg id="_圖層_1" data-name="圖層 1" xmlns="http://www.w3.org/2000/svg" version="1.1" viewBox="0 0 448 512">
  <defs>
    <style>
      .cls-1 {
        fill: #1e80bd;
      }

      .cls-1, .cls-2, .cls-3 {
        stroke-width: 0px;
      }

      .cls-2 {
        fill: #24a0a3;
      }

      .cls-3 {
        fill: #f49d18;
      }
    </style>
  </defs>
  <path class="cls-1" d="M0,96c0-17.7,14.3-32,32-32h384c17.7,0,32,14.3,32,32s-14.3,32-32,32H32C14.3,128,0,113.7,0,96Z"/>
  <path class="cls-2" d="M0,256c0-17.7,14.3-32,32-32h384c17.7,0,32,14.3,32,32s-14.3,32-32,32H32c-17.7,0-32-14.3-32-32Z"/>
  <path class="cls-3" d="M448,416c0,17.7-14.3,32-32,32H32c-17.7,0-32-14.3-32-32s14.3-32,32-32h384c17.7,0,32,14.3,32,32Z"/>
</svg>