<?xml version="1.0" encoding="UTF-8"?>
<svg id="_图层_1" data-name="图层_1" xmlns="http://www.w3.org/2000/svg" version="1.1" viewBox="0 0 512 512">
  <!-- Generator: Adobe Illustrator 29.0.1, SVG Export Plug-In . SVG Version: 2.1.0 Build 192)  -->
  <path d="M438.6,278.6c12.5-12.5,12.5-32.8,0-45.3l-160-160c-12.5-12.5-32.8-12.5-45.3,0s-12.5,32.8,0,45.3l137.4,137.4-137.3,137.4c-12.5,12.5-12.5,32.8,0,45.3s32.8,12.5,45.3,0l160-160h0ZM86.6,438.6l160-160c12.5-12.5,12.5-32.8,0-45.3L86.6,73.3c-12.5-12.5-32.8-12.5-45.3,0s-12.5,32.8,0,45.3l137.4,137.4L41.4,393.4c-12.5,12.5-12.5,32.8,0,45.3s32.8,12.5,45.3,0h0Z"/>
  <path d="M512,297.7V96c0-17.7-14.3-32-32-32s-32,14.3-32,32v320c0,17.7,14.3,32,32,32s32-14.3,32-32v-118.3Z"/>
</svg>