<?xml version="1.0" encoding="UTF-8"?>
<svg id="_圖層_1" data-name=" 圖層 1" xmlns="http://www.w3.org/2000/svg" version="1.1" viewBox="0 0 512 512">
  <defs>
    <style>
      .cls-1 {
        fill: none;
      }

      .cls-1, .cls-2, .cls-3, .cls-4 {
        stroke-width: 0px;
      }

      .cls-2 {
        fill: #1e80bd;
      }

      .cls-3 {
        fill: #24a0a3;
      }

      .cls-4 {
        fill: #f49d18;
      }
    </style>
  </defs>
  <path class="cls-1" d="M192,192v96h8.7c79.8,0,156.5,29.8,215.3,83.3V108.7c-58.8,53.5-135.5,83.3-215.3,83.3h-8.7Z"/>
  <path class="cls-2" d="M480,32c0-12.9-7.8-24.6-19.8-29.6s-25.7-2.2-34.9,6.9l-43.6,43.7c-48,48-113.1,75-181,75H64C28.7,128,0,156.7,0,192v96c0,35.3,28.7,64,64,64v.6h128v-.6h8.7c67.9,0,133,27,181,75l43.6,43.6c9.2,9.2,22.9,11.9,34.9,6.9s19.8-16.6,19.8-29.6V32ZM416,240v131.3c-58.8-53.5-135.5-83.3-215.3-83.3h-8.7v-96h8.7c79.8,0,156.5-29.8,215.3-83.3v131.3Z"/>
  <path class="cls-3" d="M64,480c0,17.7,14.3,32,32,32h64c17.7,0,32-14.3,32-32v-127.4H64v127.4Z"/>
  <path class="cls-4" d="M512,239.9c0-27.9-13.4-51.6-32-60.4v120.8c18.6-8.8,32-32.5,32-60.4Z"/>
</svg>