<?xml version="1.0" encoding="UTF-8"?>
<svg id="_圖層_1" data-name="圖層 1" xmlns="http://www.w3.org/2000/svg" version="1.1" viewBox="0 0 640 512">
  <defs>
    <style>
      .cls-1 {
        fill: #1e80bd;
      }

      .cls-1, .cls-2, .cls-3 {
        stroke-width: 0px;
      }

      .cls-2 {
        fill: #24a0a3;
      }

      .cls-3 {
        fill: #f49d18;
      }
    </style>
  </defs>
  <path class="cls-1" d="M576,64H64C28.7,64,0,92.7,0,128v256c0,35.3,28.7,64,64,64h512c35.3,0,64-28.7,64-64V128c0-35.3-28.7-64-64-64ZM576,384h-256V128h256v256Z"/>
  <path class="cls-3" d="M242.3,319.9l-64-144c-3.2-7.2-10.4-11.9-18.3-11.9s-15.1,4.7-18.3,11.9l-64,144c-4.5,10.1,0,21.9,10.2,26.4,10.1,4.5,21.9-.1,26.4-10.2l8.9-20.1h73.6l8.9,20.1c4.5,10.1,16.3,14.6,26.4,10.2,10.1-4.4,14.6-16.3,10.2-26.4ZM141,276l19-42.8,19,42.8h-38Z"/>
  <path class="cls-2" d="M448,164c11,0,20,9,20,20v4h60c11,0,20,9,20,20s-9,20-20,20h-2l-1.6,4.5c-8.9,24.4-22.4,46.6-39.6,65.4.9.6,1.8,1.1,2.7,1.6l18.9,11.3c9.5,5.7,12.5,18,6.9,27.4s-18,12.5-27.4,6.9l-18.9-11.3c-4.5-2.7-8.8-5.5-13.1-8.5-10.6,7.5-21.9,14-34,19.4l-3.6,1.6c-10.1,4.5-21.9-.1-26.4-10.2s.1-21.9,10.2-26.4l3.6-1.6c6.4-2.9,12.6-6.1,18.5-9.8l-12.2-12.2c-7.8-7.8-7.8-20.5,0-28.3s20.5-7.8,28.3,0l14.6,14.6.5.5c12.4-13.1,22.5-28.3,29.8-45h-35.2c0,.1-72,.1-72,.1-11,0-20-9-20-20s9-20,20-20h52v-4c0-11,9-20,20-20Z"/>
</svg>