<?xml version="1.0" encoding="UTF-8" standalone="no"?>
<!DOCTYPE svg PUBLIC "-//W3C//DTD SVG 1.1//EN" "http://www.w3.org/Graphics/SVG/1.1/DTD/svg11.dtd">
<svg width="100%" height="100%" viewBox="0 0 426 95" version="1.1" xmlns="http://www.w3.org/2000/svg" xmlns:xlink="http://www.w3.org/1999/xlink" xml:space="preserve" xmlns:serif="http://www.serif.com/" style="fill-rule:evenodd;clip-rule:evenodd;stroke-linejoin:round;stroke-miterlimit:2;">
    <g>
        <g>
            <path d="M88.8,94L14.1,94C6.7,94 0.6,88 0.6,80.6L0.6,40C0.6,32.6 6.7,26.5 14.1,26.5L88.7,26.5C96.1,26.5 102.2,32.6 102.2,40L102.2,80.6C102.2,88 96.2,94 88.8,94Z" style="fill:white;fill-rule:nonzero;"/>
            <path d="M31.9,22.3C33.9,13.2 42,6.3 51.7,6.3C61.4,6.3 69.6,13.2 71.5,22.3L77.2,22.3C75.2,10 64.6,0.7 51.8,0.7C39,0.7 28.3,10.1 26.3,22.3L31.9,22.3Z" style="fill:rgb(152,152,152);fill-rule:nonzero;"/>
            <path d="M59.3,58.5C60.1,56.8 60.4,55.6 60.2,54.9C60.1,54.4 59.8,54.2 59.5,54.3C58.7,54.5 58,55.4 57.3,57C56.7,58.6 56.5,59.8 56.7,60.7C56.8,61.1 57,61.3 57.3,61.2C57.8,61.1 58.5,60.2 59.3,58.5Z" style="fill:rgb(41,159,162);fill-rule:nonzero;"/>
            <path d="M66.4,60.6C66.3,60.3 66.2,60 66.2,59.7C66.1,59.4 66.1,59.1 66,58.9C65.9,58.5 65.5,56.9 65.4,56.5C64.8,54.2 64.7,52.5 65.2,51.4C65.5,50.6 66.1,49.9 67,49.4L67,26.5L35.9,26.5L35.9,62.5C36,62.8 36.2,63.1 36.3,63.4C36.5,64.4 36.4,65.3 35.9,66.4L35.9,94L67,94L67,62.3C66.8,61.8 66.6,61.3 66.4,60.6ZM49.3,68.8C48.3,69.5 47.4,69.9 46.6,70.1C46.2,70.2 46,70.2 45.8,70.2C45.6,70.2 45.1,70.2 44.1,70.1C43,70.1 41.9,70.1 40.8,70C39.9,69.8 39.3,69 38.9,67.5C38.4,65.4 39,62.8 40.7,59.8C42.5,56.8 44.4,55.1 46.6,54.5C47.2,54.3 47.8,54.4 48.2,54.8C48.7,55.2 49,55.7 49.1,56.3C49.3,56.9 49.3,57.4 49.3,57.8C49.3,58.1 49.2,58.5 49.1,58.8C48.9,59.8 48.7,60.8 48.5,61.8C48,62.9 47.4,63.9 46.7,64.7C46,65.5 45.2,66.2 44.2,66.7C45.3,67.4 46.4,67.7 47.5,67.4C47.8,67.3 48.1,67.2 48.5,67C49.5,66.4 50,66.1 50,66L50.6,66L50.9,66.4C51.1,67.2 50.5,68 49.3,68.8ZM62.5,65.4C61.5,66.1 60.6,66.5 59.8,66.7C59.4,66.8 59.2,66.8 59,66.8C58.8,66.8 58.3,66.8 57.3,66.7C56.2,66.7 55.1,66.7 54,66.6C53.1,66.4 52.5,65.6 52.1,64.1C51.6,62 52.2,59.4 53.9,56.4C55.7,53.4 57.6,51.7 59.8,51.1C60.4,50.9 61,51 61.4,51.4C61.9,51.8 62.2,52.3 62.3,52.9C62.5,53.5 62.5,54 62.5,54.4C62.5,54.7 62.4,55.1 62.3,55.4C62.1,56.4 61.9,57.4 61.7,58.4C61.2,59.5 60.6,60.5 59.9,61.3C59.2,62.1 58.4,62.8 57.4,63.3C58.5,64 59.6,64.3 60.7,64C61,63.9 61.3,63.8 61.7,63.6C62.7,63 63.2,62.7 63.2,62.6L63.8,62.6L64.1,63C64.3,63.8 63.8,64.5 62.5,65.4Z" style="fill:rgb(41,159,162);fill-rule:nonzero;"/>
            <path d="M84.6,57C85.5,56.8 86.7,55.2 88.3,52.2C89.8,49.3 90.5,47.3 90.3,46.4C90.3,46.2 90.1,46.2 89.8,46.2C88.8,46.5 87.5,48 86,50.7C84.5,53.5 83.9,55.4 84.2,56.5C84.2,57 84.4,57.1 84.6,57Z" style="fill:rgb(243,156,21);fill-rule:nonzero;"/>
            <path d="M32.6,70.4C31.5,71.7 30.4,73.1 29.3,74.4C26.8,76.5 23.1,78.9 18.2,81.5C13.3,84.1 9.3,85.8 6.2,86.6C6,86.7 5.7,86.6 5.4,86.6C5.1,86.5 4.9,86.4 4.7,86.3C4.8,85.6 5.9,83.8 8,81C10.1,78.1 11.3,76.6 11.7,76.5L12.3,76.9C12.3,77.2 12,77.9 11.4,78.8C11.2,79.1 11,79.5 10.6,80.1L11,80.2C12.7,79.6 15,78.5 18,77.1C22.1,75.1 25.4,73.3 27.8,71.8C31.1,69.7 32.5,68 32.2,66.9C32,66 31,65.6 29.2,65.7C27.9,65.8 26.2,66.1 24,66.6C23.4,66.7 22.8,66.9 22.2,67.1C21.6,67.3 20.9,67.5 20.3,67.7C18.5,68.2 17,68.3 16.1,68.1C15.2,67.7 14.2,67.3 13.2,66.8C12.5,66.9 11.8,66.9 11.1,67C10.3,67 9.8,66.6 9.6,65.8C9.1,63.8 10.1,61.3 12.7,58.4C14.9,55.9 17.8,53.6 21.4,51.3C24.7,49.2 27.4,47.9 29.5,47.3C29.8,47.2 30.1,47.2 30.4,47.2C30.7,47.2 31,47.2 31.4,47.3L32.4,48.3C32.4,49 32,50 31.4,51.4C30.8,52.8 30.2,53.8 29.7,54.2C29.3,54.2 29.1,54 28.9,53.8C28.7,53.6 28.6,53.3 28.6,52.9L27.6,52.5C26.5,52.8 24.8,53.5 22.4,54.8C19.5,56.3 17.2,57.7 15.5,59C13.3,60.7 12.3,62.1 12.6,63.2C12.8,63.8 13.4,64.1 14.6,64C15.7,64 17.1,63.7 18.8,63.3C19.8,63 20.7,62.8 21.5,62.6C22.3,62.4 23,62.1 23.6,61.9C26.8,61.1 29.1,60.7 30.7,60.6C31.6,60.6 32.4,60.7 33.1,60.8L33.1,26.5L14.1,26.5C6.7,26.5 0.6,32.6 0.6,40L0.6,80.6C0.6,88 6.7,94 14.1,94L33.1,94L33.1,69.9C32.9,70.1 32.8,70.2 32.6,70.4Z" style="fill:rgb(10,127,188);fill-rule:nonzero;"/>
            <path d="M46,61.9C46.8,60.2 47.1,59 46.9,58.3C46.8,57.8 46.5,57.6 46.2,57.7C45.4,57.9 44.7,58.8 44,60.4C43.4,62 43.2,63.2 43.4,64.1C43.5,64.5 43.7,64.7 44,64.6C44.5,64.5 45.2,63.6 46,61.9Z" style="fill:rgb(41,159,162);fill-rule:nonzero;"/>
            <path d="M88.7,26.5L69.7,26.5L69.7,57.3L70.1,58.7C71.3,55 72,52.9 72.2,52.6C73.4,49.8 74.6,48.3 76,48C76.7,47.8 77.2,48 77.3,48.7C77.4,49.2 77.3,50.8 76.9,53.7C76.5,56.6 76.1,59.4 75.7,62.3C75.3,65.7 75.1,68.2 75.2,69.7C75.9,69.2 76.4,68.5 76.7,67.7C77.3,65.8 77.7,64.7 77.8,64.6L78.2,64.7L78.4,65.1C78.7,66.4 78.4,68 77.5,69.9C76.6,71.8 75.5,73.1 74.2,73.7C73.8,73.6 73.3,73.3 72.9,72.7C72.5,72.1 72.2,71.6 72.1,71.1C71.9,70.3 71.8,68.7 72,66.5C72.1,64.8 72.3,62.7 72.6,60.1C72.8,58.5 73,56.9 73.2,55.3C72.7,56.2 72.3,57.3 72,58.4C71.7,59.3 71.4,60.4 71.2,61.7C71.1,62.1 71,62.5 70.9,62.9C70.7,63.1 70.3,63.4 69.9,63.8L69.8,63.9L69.8,94L88.8,94C96.2,94 102.3,87.9 102.3,80.5L102.3,40C102.2,32.6 96.2,26.5 88.7,26.5ZM82.4,50.4C85,46.8 87.3,44.7 89.4,44.2C90.1,44 90.8,44 91.6,44.1C92.6,44.2 93.2,44.6 93.3,45.1C93.5,45.9 93.5,47.6 93.3,50.1C93.1,52.6 93.2,54.5 93.5,55.8C93.6,56 93.7,56.3 93.9,56.6C94.1,56.9 94.3,57.2 94.3,57.4C94.3,57.7 94.2,58 94.1,58.2C93.9,58.5 93.7,58.7 93.5,58.7C93.3,58.8 92.9,58.8 92.4,58.9C92,59 91.7,59 91.5,59C91,59.1 90.6,58.8 90.2,58.1C89.8,57.4 89.5,56.5 89.3,55.5C89.2,55.2 89.2,54.9 89.1,54.7C89,54.6 89,54.3 89,54.1C88.4,55.7 87.3,57.1 86,58.3C84.6,59.5 83.1,60.4 81.5,60.8C81,60.9 80.5,60.7 80.1,60.3C79.7,59.8 79.4,59.3 79.3,58.7C78.8,56.7 79.8,54 82.4,50.4Z" style="fill:rgb(243,156,21);fill-rule:nonzero;"/>
            <path d="M92.3,87.5L88.9,86.6C88.8,87.1 88.7,87.3 88.6,87.3C88.5,87.3 88.4,87 88.3,86.6L85,87.5L87.9,84.3C87.6,82.6 87.3,80.4 87,77.9L87,77.7L78,78.8L79.6,77.4L81.8,76.5C81.7,75.9 81.9,75.5 82.2,75.5C82.5,75.5 82.6,75.8 82.6,76.2L84.3,75.5C84.2,74.9 84.4,74.5 84.7,74.5C85,74.5 85.1,74.8 85.1,75.2L86.7,74.6C86.6,71 87.3,68.4 88.5,68.4C89.7,68.4 90.4,71 90.4,74.6L92,75.2C92,74.8 92.2,74.5 92.4,74.5C92.7,74.5 92.9,75 92.8,75.5L94.5,76.2C94.5,75.8 94.7,75.5 94.9,75.5C95.2,75.5 95.4,75.9 95.3,76.5L97.5,77.3L99.1,78.7L90.1,77.7L90.1,77.9C89.8,80.4 89.5,82.6 89.2,84.3L92.3,87.5Z" style="fill:white;fill-rule:nonzero;"/>
        </g>
        <g>
            <path d="M123.9,69.1C125.6,71.6 127.6,73.4 130.1,74.5C132.5,75.6 135.2,76.2 138.1,76.2C139.2,76.2 140.3,76.1 141.5,75.9C142.7,75.7 143.8,75.4 144.7,74.9C145.7,74.4 146.5,73.8 147.1,73C147.7,72.2 148.1,71.3 148.1,70.1C148.1,69.2 147.9,68.4 147.5,67.8C147.1,67.2 146.5,66.6 145.6,66.2C144.8,65.7 143.7,65.3 142.6,65C141.4,64.6 140,64.3 138.4,63.9L133.2,62.7C131.3,62.3 129.5,61.7 127.8,61.1C126.1,60.5 124.6,59.7 123.3,58.7C122,57.7 121,56.5 120.2,55C119.4,53.5 119,51.7 119,49.5C119,47 119.5,44.9 120.6,43C121.7,41.1 123.1,39.6 124.8,38.4C126.5,37.2 128.5,36.3 130.7,35.7C132.9,35.1 135.1,34.8 137.3,34.8C141.4,34.8 145,35.6 148.3,37.1C151.6,38.6 154.5,41 156.9,44.3L149.6,49.9C148.5,47.7 146.8,46.1 144.7,44.9C142.6,43.7 140.1,43.1 137.2,43.1C134.6,43.1 132.5,43.6 130.8,44.5C129.1,45.4 128.3,46.7 128.3,48.4C128.3,49.4 128.6,50.2 129.1,50.8C129.6,51.4 130.3,52 131.2,52.4C132.1,52.8 133.1,53.2 134.3,53.5C135.5,53.8 136.7,54.1 138,54.4L143.8,55.7C145.6,56.1 147.3,56.6 148.9,57.2C150.5,57.8 152,58.6 153.2,59.6C154.5,60.6 155.5,61.8 156.2,63.4C157,64.9 157.4,66.8 157.4,69.1C157.4,72 156.8,74.4 155.5,76.4C154.3,78.4 152.7,80 150.7,81.2C148.7,82.4 146.5,83.3 144.1,83.8C141.6,84.3 139.2,84.6 136.8,84.6C134.9,84.6 132.9,84.4 131,84C129.1,83.6 127.2,83 125.4,82.1C123.6,81.3 121.9,80.2 120.4,79C118.9,77.8 117.5,76.3 116.4,74.7L123.9,69.1Z" style="fill:rgb(50,51,51);fill-rule:nonzero;"/>
            <path d="M169.6,68.4C169.6,69.6 169.9,70.8 170.4,71.8C170.9,72.8 171.5,73.7 172.4,74.4C173.2,75.1 174.1,75.7 175.1,76.1C176.1,76.5 177.2,76.7 178.3,76.7C179.9,76.7 181.2,76.5 182.4,76.1C183.5,75.7 184.5,75.2 185.2,74.7C186,74.2 186.6,73.6 187,73.1C187.4,72.6 187.7,72.2 188,71.9L194.8,75.9C194.2,76.9 193.4,77.8 192.5,78.8C191.6,79.8 190.4,80.7 189.1,81.4C187.8,82.2 186.2,82.8 184.5,83.3C182.7,83.8 180.7,84 178.4,84C175.7,84 173.2,83.6 171.1,82.7C169,81.8 167.2,80.6 165.7,79C164.2,77.4 163.1,75.6 162.4,73.4C161.6,71.3 161.2,68.9 161.2,66.4C161.2,63.9 161.6,61.6 162.4,59.4C163.2,57.3 164.3,55.4 165.7,53.8C167.2,52.2 168.9,51 171.1,50.1C173.2,49.2 175.6,48.8 178.4,48.8C181.2,48.8 183.6,49.3 185.6,50.2C187.6,51.1 189.3,52.4 190.6,54.1C191.9,55.8 192.9,57.8 193.5,60.2C194.1,62.6 194.4,65.3 194.4,68.3L169.6,68.3L169.6,68.4ZM185.8,62.2C185.8,61.8 185.7,61.2 185.4,60.4C185.1,59.7 184.7,58.9 184,58.2C183.4,57.5 182.6,56.9 181.7,56.3C180.8,55.8 179.6,55.5 178.2,55.5C175.8,55.5 173.9,56.2 172.4,57.5C170.9,58.8 170,60.4 169.5,62.2L185.8,62.2Z" style="fill:rgb(50,51,51);fill-rule:nonzero;"/>
            <path d="M206.3,68.4C206.3,69.6 206.6,70.8 207.1,71.8C207.6,72.8 208.2,73.7 209.1,74.4C209.9,75.1 210.8,75.7 211.8,76.1C212.8,76.5 213.9,76.7 215,76.7C216.6,76.7 217.9,76.5 219.1,76.1C220.2,75.7 221.2,75.2 221.9,74.7C222.7,74.2 223.3,73.6 223.7,73.1C224.1,72.6 224.4,72.2 224.7,71.9L231.5,75.9C230.9,76.9 230.1,77.8 229.2,78.8C228.3,79.8 227.1,80.7 225.8,81.4C224.5,82.2 222.9,82.8 221.2,83.3C219.4,83.8 217.4,84 215.1,84C212.4,84 209.9,83.6 207.8,82.7C205.7,81.8 203.9,80.6 202.4,79C200.9,77.4 199.8,75.6 199.1,73.4C198.3,71.3 197.9,68.9 197.9,66.4C197.9,63.9 198.3,61.6 199.1,59.4C199.9,57.3 201,55.4 202.4,53.8C203.9,52.2 205.6,51 207.8,50.1C209.9,49.2 212.3,48.8 215.1,48.8C217.9,48.8 220.3,49.3 222.3,50.2C224.3,51.1 226,52.4 227.3,54.1C228.6,55.8 229.6,57.8 230.2,60.2C230.8,62.6 231.1,65.3 231.1,68.3L206.3,68.3L206.3,68.4ZM222.6,62.2C222.6,61.8 222.5,61.2 222.2,60.4C221.9,59.7 221.5,58.9 220.8,58.2C220.2,57.5 219.4,56.9 218.5,56.3C217.6,55.8 216.4,55.5 215,55.5C212.6,55.5 210.7,56.2 209.2,57.5C207.7,58.8 206.8,60.4 206.3,62.2L222.6,62.2Z" style="fill:rgb(50,51,51);fill-rule:nonzero;"/>
            <path d="M252.4,86.2C251.9,87.7 251.4,89 250.8,90.1C250.2,91.1 249.5,92 248.7,92.6C247.9,93.2 246.9,93.7 245.8,94C244.7,94.3 243.4,94.4 242,94.4C241,94.4 240.1,94.4 239.4,94.3C238.7,94.2 237.9,94.1 237.2,94L237.2,86.8C237.6,86.9 238,87 238.5,87C239,87 239.6,87.1 240.4,87.1C241.7,87.1 242.6,86.9 243.2,86.5C243.8,86.1 244.4,85.3 244.9,84.3L232.9,50L241.6,50L248.8,74.3L248.9,74.3L255.2,50L263.5,50L252.4,86.2Z" style="fill:rgb(50,51,51);fill-rule:nonzero;"/>
            <path d="M295.4,77.6C295.4,79.3 295.6,80.6 295.9,81.4C296.2,82.2 296.5,82.8 296.7,83.2L288.2,83.2C287.9,82.8 287.7,82.3 287.6,81.7C287.5,81.1 287.4,80.6 287.4,80.1C284.2,82.7 280.6,83.9 276.5,83.9C274.9,83.9 273.4,83.7 272,83.2C270.6,82.7 269.4,82 268.4,81.1C267.4,80.2 266.6,79.1 266,77.8C265.4,76.5 265.1,75 265.1,73.4C265.1,71.8 265.4,70.3 266,69.1C266.6,67.9 267.4,66.9 268.3,66.1C269.3,65.3 270.4,64.6 271.6,64.1C272.8,63.6 274,63.2 275.3,62.9L278.7,62.2C279.4,62.1 280.2,61.9 281,61.8C281.8,61.6 282.6,61.5 283.4,61.3C284.2,61.1 284.9,60.9 285.6,60.8C286.3,60.6 286.9,60.4 287.4,60.3L287.4,59.3C287.4,57.7 286.8,56.6 285.5,56C284.3,55.4 282.8,55.1 281,55.1C278.6,55.1 277,55.5 276.1,56.2C275.2,56.9 274.8,58.2 274.8,60.1L266.7,59.8C266.7,57.8 267.1,56.1 267.9,54.8C268.7,53.4 269.8,52.3 271.1,51.4C272.4,50.5 273.9,49.9 275.7,49.5C277.4,49.1 279.2,48.9 281.1,48.9C282.9,48.9 284.7,49 286.4,49.3C288.1,49.5 289.7,50.1 291,50.9C292.4,51.7 293.5,52.8 294.3,54.2C295.1,55.6 295.5,57.5 295.5,59.9L295.5,77.6L295.4,77.6ZM287.3,66.5C286.3,67 285,67.4 283.5,67.7L279.1,68.6C277.6,68.9 276.2,69.4 275.2,70C274.1,70.6 273.6,71.7 273.6,73.3C273.6,74.6 274.1,75.6 275.1,76.3C276.1,77 277.3,77.4 278.8,77.4C279.7,77.4 280.7,77.3 281.7,77C282.7,76.8 283.6,76.4 284.5,75.9C285.3,75.4 286,74.8 286.6,74C287.1,73.2 287.4,72.3 287.4,71.2L287.4,66.5L287.3,66.5Z" style="fill:rgb(50,51,51);fill-rule:nonzero;"/>
            <path d="M303.1,36.1L321.9,36.1C324.7,36.1 327.1,36.5 329.1,37.3C331.1,38.1 332.9,39.2 334.2,40.6C335.6,42 336.6,43.7 337.3,45.6C338,47.5 338.3,49.7 338.3,51.9C338.3,54.2 337.9,56.4 337.1,58.2C336.3,60.1 335.2,61.7 333.8,63C332.4,64.3 330.7,65.3 328.8,66.1C326.9,66.8 324.7,67.2 322.4,67.2L312,67.2L312,83.1L303.1,83.1L303.1,36.1ZM312,60L320.9,60C323.7,60 325.7,59.3 327.1,57.8C328.5,56.3 329.1,54.4 329.1,52.1C329.1,50.5 328.9,49.1 328.5,48C328.1,46.9 327.5,46 326.7,45.4C326,44.7 325,44.3 324,44C322.9,43.7 321.8,43.6 320.5,43.6L312,43.6L312,60Z" style="fill:rgb(152,152,152);fill-rule:nonzero;"/>
            <rect x="343.3" y="36.1" width="8.1" height="47.1" style="fill:rgb(152,152,152);fill-rule:nonzero;"/>
            <path d="M389.3,83.2L381.2,83.2L381.2,79.9L381.1,79.9C380.2,81 379,82 377.4,82.8C375.8,83.6 373.8,84 371.5,84C370.1,84 368.7,83.8 367.2,83.5C365.7,83.1 364.4,82.5 363.3,81.6C362.1,80.7 361.2,79.5 360.4,77.9C359.6,76.3 359.3,74.3 359.3,71.9L359.3,49.8L367.4,49.8L367.4,69.6C367.4,71.9 367.9,73.6 368.8,74.7C369.7,75.7 371.3,76.3 373.3,76.3C374.8,76.3 376.1,76 377.1,75.5C378.1,75 379,74.3 379.5,73.5C380.1,72.7 380.5,71.8 380.8,70.8C381.1,69.8 381.2,68.8 381.2,67.8L381.2,49.8L389.3,49.8L389.3,83.2Z" style="fill:rgb(152,152,152);fill-rule:nonzero;"/>
            <path d="M418.8,60.4C418.5,59.9 418.2,59.3 417.7,58.7C417.3,58.1 416.7,57.6 416,57.1C415.3,56.6 414.5,56.3 413.6,56C412.7,55.7 411.6,55.6 410.4,55.6C408.5,55.6 407,55.8 405.9,56.4C404.8,57 404.2,57.8 404.2,58.8C404.2,59.8 404.7,60.5 405.8,60.9C406.8,61.4 408.1,61.7 409.7,62C411.3,62.3 413,62.6 414.8,62.9C416.6,63.2 418.3,63.7 419.9,64.4C421.5,65.1 422.8,66 423.8,67.2C424.8,68.4 425.4,70.1 425.4,72.2C425.4,74.2 425,76 424.1,77.5C423.3,79 422.2,80.2 420.8,81.1C419.4,82 417.8,82.8 416,83.2C414.2,83.7 412.3,83.9 410.4,83.9C406.4,83.9 403.1,83.3 400.4,82.1C397.7,80.9 395.6,79.5 394.2,77.8L400.3,73.1C401.2,74.5 402.5,75.5 404.2,76.2C405.9,76.9 407.8,77.3 410,77.3C411,77.3 411.9,77.2 412.6,76.9C413.4,76.7 414.1,76.3 414.7,76C415.3,75.6 415.7,75.2 416,74.7C416.3,74.2 416.5,73.8 416.5,73.3C416.5,72.4 416,71.7 415,71.2C414,70.7 412.7,70.4 411.2,70C409.7,69.7 408,69.4 406.2,69C404.4,68.7 402.7,68.2 401.2,67.4C399.7,66.7 398.4,65.7 397.4,64.5C396.4,63.3 395.9,61.6 395.9,59.5C395.9,57.6 396.3,56 397.1,54.6C397.9,53.2 398.9,52.1 400.2,51.2C401.5,50.3 403.1,49.7 404.9,49.2C406.7,48.8 408.6,48.6 410.7,48.6C412.7,48.6 414.4,48.8 416,49.3C417.5,49.7 418.9,50.3 420,50.9C421.1,51.5 422.1,52.2 422.8,52.9C423.5,53.6 424.1,54.2 424.5,54.7L418.8,60.4Z" style="fill:rgb(152,152,152);fill-rule:nonzero;"/>
        </g>
        <g transform="matrix(1.00535,0,0,1,-1.78233,61.2957)">
            <rect x="0.979" y="-0.784" width="425.217" height="34.459" style="fill:rgb(243,156,21);"/>
        </g>
        <g transform="matrix(1.00535,0,0,1,-1.78233,29.2957)">
            <rect x="0.979" y="-0.784" width="425.217" height="34.459" style="fill:rgb(41,159,162);"/>
        </g>
        <g transform="matrix(1.00535,0,0,1,-1.78233,-0.704346)">
            <rect x="0.979" y="-0.784" width="425.217" height="34.459" style="fill:rgb(10,127,188);"/>
        </g>
        <g transform="matrix(1.59421,0,0,1.59421,-117.761,45.4999)">
            <g transform="matrix(72,0,0,72,287.101,27.0417)">
            </g>
            <text x="79.046px" y="27.042px" style="font-family:'Helvetica';font-size:72px;">LOGO</text>
        </g>
    </g>
</svg>
