<?xml version="1.0" encoding="UTF-8"?>
<svg id="_圖層_1" data-name=" 圖層 1" xmlns="http://www.w3.org/2000/svg" version="1.1" viewBox="0 0 448 512">
  <defs>
    <style>
      .cls-1 {
        fill: #1e80bd;
      }

      .cls-1, .cls-2, .cls-3 {
        stroke-width: 0px;
      }

      .cls-2 {
        fill: #24a0a3;
      }

      .cls-3 {
        fill: #f49d18;
      }
    </style>
  </defs>
  <circle class="cls-1" cx="224" cy="128" r="128"/>
  <path class="cls-2" d="M175.8,483.1l-36-146.9c-2-8.1-9.8-13.4-17.9-11.3C51.9,342.4,0,405.8,0,481.3s13.8,30.7,30.7,30.7h172.1l-27-28.9Z"/>
  <path class="cls-2" d="M326.1,324.9c-8.1-2-15.9,3.3-17.9,11.3l-36,146.9-27.1,28.9h172.2c17,0,30.7-13.8,30.7-30.7,0-75.5-51.9-138.9-121.9-156.4Z"/>
  <path class="cls-3" d="M238.9,359.2l18.6-31c6.4-10.7-1.3-24.2-13.7-24.2h-39.5c-12.4,0-20.1,13.6-13.7,24.2h-.1s18.6,31,18.6,31l-41,143.6,5.3,9.2h103.1l4.4-9.2-42.1-143.6Z"/>
</svg>