<?xml version="1.0" encoding="utf-8"?>
<!-- Generator: Adobe Illustrator 15.0.0, SVG Export Plug-In . SVG Version: 6.00 Build 0)  -->
<!DOCTYPE svg PUBLIC "-//W3C//DTD SVG 1.1//EN" "http://www.w3.org/Graphics/SVG/1.1/DTD/svg11.dtd">
<svg version="1.1" id="圖層_1" xmlns="http://www.w3.org/2000/svg" xmlns:xlink="http://www.w3.org/1999/xlink" x="0px" y="0px"
	 width="176.672px" height="207.548px" viewBox="0 0 176.672 207.548" enable-background="new 0 0 176.672 207.548"
	 xml:space="preserve">
<g>
	<path fill="#552C15" d="M20.872,192.87c-3.335,9.872-13.341,12.245-13.341,12.245s6.999-2.583,10.385-12.601
		c3.383-10.014,11.225-12.779,11.225-12.779S24.209,183,20.872,192.87"/>
	<path fill="#552C15" d="M29.621,185.655c-2.592,10.095-12.392,13.193-12.392,13.193s6.79-3.087,9.413-13.327
		c2.628-10.235,10.239-13.567,10.239-13.567S32.211,175.57,29.621,185.655"/>
	<path fill="#552C15" d="M51.151,177.09c0,0.21-0.463,0.344-1.338,0.397c-0.488,1.221-1.209,2.312-2.187,3.32h1.028
		c0.67-1.063,1.107-1.593,1.313-1.62c0.154,0,0.438,0.291,0.901,0.875c0.463,0.532,0.718,0.903,0.77,1.09
		c0,0.267-0.102,0.425-0.307,0.425h-3.58v4.009h0.49c0.619-1.034,1.031-1.563,1.209-1.593c0.129,0,0.386,0.295,0.797,0.876
		c0.411,0.532,0.644,0.878,0.697,1.091c0,0.266-0.105,0.425-0.31,0.425h-2.884v1.858c0,0.821-0.024,1.541-0.024,2.178h0.822
		c0.748-1.061,1.235-1.593,1.442-1.593c0.155,0,0.489,0.29,1.002,0.848c0.49,0.533,0.773,0.903,0.851,1.117
		c0,0.266-0.103,0.398-0.309,0.398h-3.835c-0.075,1.592-0.206,2.601-0.386,3c-0.231,0.905-0.617,1.728-1.183,2.47
		c-0.953,1.408-2.163,2.419-3.628,3.028c-0.13,0-0.181-0.107-0.181-0.292c1.057-1.063,1.829-2.285,2.342-3.719
		c0.361-0.929,0.617-2.417,0.746-4.462c-2.083,0.052-3.137,0.134-3.137,0.215c-0.157-0.322-0.335-0.799-0.518-1.382
		c0.361,0.131,1.573,0.238,3.681,0.344c0-0.609,0.028-1.245,0.028-1.913v-2.07c-1.803,0.054-2.729,0.133-2.729,0.187
		c-0.155-0.32-0.31-0.77-0.489-1.354c0.309,0.106,1.39,0.187,3.219,0.291v-3.931c-2.112,0.051-3.168,0.133-3.168,0.215
		c-0.153-0.348-0.334-0.799-0.514-1.383c0.361,0.133,1.699,0.264,3.989,0.372h1.185c0.721-1.91,1.105-3.612,1.208-5.102
		C50.147,176.346,51.151,176.797,51.151,177.09 M46.055,179.162c0,0.878-0.361,1.328-1.057,1.328c-0.667,0-0.977-0.348-0.977-1.036
		c0-0.266-0.052-0.612-0.154-1.062c-0.103-0.453-0.232-0.958-0.387-1.514c-0.18-0.453-0.334-0.772-0.437-0.983
		c0.18-0.158,0.284-0.239,0.334-0.239C45.154,176.848,46.055,178.02,46.055,179.162 M58.097,177.3
		c0.105,0.108,0.181,0.162,0.232,0.214h3.268c0.489-0.717,0.902-1.168,1.21-1.326c0.207,0,0.618,0.21,1.234,0.609
		c0.668,0.478,1.031,0.823,1.031,1.062c0,0.161-0.156,0.348-0.463,0.533c-0.311,0.212-0.517,0.37-0.567,0.506v17.871
		c0,1.593-1.028,2.575-3.063,2.946c-0.154,0-0.256-0.185-0.307-0.502c-0.181-0.64-0.491-1.118-0.902-1.438
		c-0.617-0.397-1.03-0.609-1.235-0.663c0-0.025,0.026-0.158,0.026-0.423c0.696,0.104,1.621,0.158,2.779,0.158
		c0.36,0,0.567-0.187,0.567-0.558v-8.101c-0.671,1.886-1.263,3.399-1.777,4.515c0,0.159,0.051,0.397,0.207,0.771
		c0,0.213-0.077,0.317-0.232,0.317c-0.181,0-0.927-0.635-2.265-1.909c1.621-1.275,2.984-2.897,4.067-4.887v-8.79h-3.347
		c-0.103,0.104-0.18,0.156-0.258,0.213c-0.514,0.315-0.745,0.527-0.745,0.581v17.873c0,1.756-0.875,2.736-2.626,3.001
		c-0.283,0-0.463-0.21-0.515-0.584c-0.102-0.637-0.358-1.115-0.796-1.436c-0.49-0.318-1.082-0.554-1.777-0.742
		c0.025-0.025,0.051-0.185,0.051-0.451c1.133,0.107,2.085,0.161,2.882,0.161c0.412,0,0.644-0.242,0.644-0.719v-7.887
		c-0.721,2.02-1.363,3.612-1.93,4.833c0,0.161,0.05,0.425,0.206,0.824c0,0.238-0.077,0.346-0.232,0.346
		c-0.181,0-0.979-0.665-2.421-2.046c1.752-1.355,3.192-3.079,4.376-5.178v-8.79h-1.699c-1.082,0-1.776,0.079-2.137,0.213
		c-0.102-0.32-0.231-0.718-0.41-1.224c0.745,0.213,1.543,0.318,2.393,0.318h1.518c0.694-0.851,1.184-1.272,1.441-1.272
		C56.837,176.346,57.379,176.691,58.097,177.3 M54.778,184.606c-0.049,1.062-0.462,1.566-1.26,1.566
		c-0.568,0-0.876-0.317-0.876-0.982c0-0.159,0-0.32,0.027-0.479c0-0.267,0.025-0.587,0.051-0.93c-0.051-1.116-0.36-2.15-0.875-3.136
		c0.206-0.051,0.311-0.131,0.311-0.184C53.904,181.819,54.778,183.198,54.778,184.606 M61.16,184.552
		c-0.052,1.062-0.463,1.566-1.26,1.566c-0.566,0-0.874-0.317-0.874-0.983c0-0.158,0-0.316,0.025-0.503
		c0-0.267,0.027-0.559,0.052-0.928c-0.052-1.118-0.284-2.152-0.696-3.163c0.208-0.052,0.334-0.133,0.334-0.185
		C60.338,181.737,61.16,183.117,61.16,184.552"/>
	<path fill="#552C15" d="M70.546,177.011c0.617,0.185,0.927,0.318,0.927,0.423c0,0.133-0.129,0.24-0.361,0.346
		c-0.359,0.159-0.591,0.292-0.72,0.373l-0.129,9.082c0,5.977-0.873,10.064-2.625,12.269c-0.1-0.105-0.204-0.187-0.256-0.238
		c0.256-1.036,0.463-2.575,0.669-4.7c0.206-2.045,0.31-4.807,0.335-8.313l0.025-7.331c-0.05-0.982-0.102-1.779-0.154-2.363
		C69.184,176.717,69.955,176.878,70.546,177.011 M74.073,178.737c0.541,0.104,0.823,0.264,0.823,0.451
		c0,0.133-0.129,0.212-0.36,0.266c-0.387,0.161-0.567,0.264-0.567,0.319v11.419c0.026,2.363,0.052,4.008,0.077,4.966
		c0,0.371-0.463,0.558-1.362,0.558c-0.463,0-0.67-0.135-0.67-0.425c0.026-0.796,0.051-2.521,0.076-5.181v-10.701
		c-0.05-0.691-0.126-1.354-0.178-1.989C72.58,178.525,73.301,178.629,74.073,178.737 M77.751,176.878
		c0.616,0.104,0.926,0.264,0.926,0.477c0.619,0.159,1.545,0.212,2.78,0.212h5.74c0.718-0.903,1.232-1.461,1.568-1.672
		c0.051,0,0.103,0.024,0.179,0.024c0.18,0.106,0.387,0.239,0.592,0.399c0.979,0.877,1.491,1.435,1.491,1.674
		c0,0.266-0.102,0.37-0.254,0.37h-5.226c-0.565,1.116-1.311,2.1-2.186,2.949h3.243c0.617-0.85,1.028-1.272,1.286-1.303
		c0.206,0.03,0.617,0.267,1.286,0.747c0.567,0.451,0.849,0.768,0.849,0.98c0,0.161-0.102,0.317-0.309,0.45
		c-0.307,0.267-0.514,0.451-0.564,0.559v6.534c0.078,2.55,0.127,4.169,0.127,4.912c0,0.532-0.41,0.824-1.234,0.824
		c-0.617,0-0.953-0.133-0.978-0.451v-0.663h-5.481v0.29c-0.102,0.532-0.591,0.796-1.415,0.796c-0.516,0-0.823-0.079-0.927-0.264
		c0-2.286,0.025-4.487,0.104-6.667v-4.382c-0.052-1.856-0.104-2.973-0.208-3.346l2.473,0.982h0.951
		c0.259-0.903,0.463-1.885,0.591-2.949H82.05c-1.595,0-2.574,0.108-2.96,0.32c-0.153-0.397-0.309-0.796-0.514-1.169
		c-0.078,0.079-0.181,0.133-0.31,0.133c-0.41,0.158-0.616,0.292-0.616,0.373v14.152c0.026,2.578,0.052,4.385,0.102,5.419
		c0,0.396-0.514,0.611-1.493,0.611c-0.515,0-0.746-0.161-0.746-0.451c0.027-0.903,0.052-2.789,0.079-5.684v-13.359
		c-0.052-0.742-0.103-1.484-0.206-2.178C76.13,176.64,76.928,176.743,77.751,176.878 M83.439,196.025
		c0.644,0.477,0.979,0.77,0.979,0.903c0,0.159-0.105,0.266-0.284,0.292c-0.695-0.054-1.132-0.107-1.288-0.107
		c-1.389,1.328-3.577,2.231-6.562,2.71c0-0.24-0.051-0.346-0.102-0.346c2.469-0.93,4.4-2.39,5.815-4.436
		C82.254,195.2,82.719,195.548,83.439,196.025 M87.068,182.003h-5.481v3.081h5.481V182.003z M87.068,185.774h-5.481v3.291h5.481
		V185.774z M87.068,189.785h-5.481v3.427h5.481V189.785z M90.774,198.282c0,0.213-0.054,0.451-0.157,0.691
		c-0.078,0.319-0.359,0.504-0.823,0.609c-0.308,0-0.772-0.399-1.364-1.168c-1.311-1.327-2.598-2.257-3.834-2.787
		c0.052-0.056,0.104-0.188,0.181-0.396C88.766,195.838,90.774,196.848,90.774,198.282"/>
	<path fill="#552C15" d="M102.576,179.717c0.902,0.852,1.416,1.384,1.52,1.65c0,0.236-0.077,0.341-0.205,0.341h-5.715
		c-0.024,0.691-0.024,1.622-0.024,2.736c0,0.532-0.027,1.063-0.027,1.566h2.215c0.669-0.742,1.106-1.113,1.362-1.113
		c0.231,0.025,0.644,0.267,1.261,0.742c0.671,0.532,1.006,0.903,1.006,1.09c0,0.239-0.26,0.53-0.772,0.851
		c-0.206,0.131-0.31,0.37-0.31,0.742c-0.154,3.481-0.438,6.294-0.799,8.446c-0.386,1.885-1.44,2.841-3.139,2.841
		c-0.18,0-0.281-0.239-0.333-0.717c-0.052-0.294-0.208-0.585-0.412-0.852c-0.335-0.423-0.799-0.689-1.416-0.796
		c0-0.052,0.024-0.238,0.024-0.503c0.439,0.052,0.826,0.078,1.134,0.105c1.337,0,2.084-0.638,2.188-1.965
		c0.308-1.781,0.489-4.489,0.541-8.102H98.1c-0.283,7.011-1.932,11.342-4.914,13.067c0-0.054-0.054-0.188-0.13-0.397
		c1.854-2.578,2.78-7.438,2.78-14.607c0-0.636,0.024-1.699,0.024-3.136c-1.028,0-1.827,0.079-2.367,0.215
		c-0.104-0.319-0.207-0.666-0.361-1.063c0.543,0.105,1.494,0.185,2.832,0.185h4.761c0.357-0.53,0.721-0.982,1.082-1.379
		c0.126-0.134,0.23-0.213,0.28-0.213C102.19,179.454,102.345,179.558,102.576,179.717 M98.229,176.507
		c0.977,0.688,1.492,1.485,1.492,2.414c-0.026,0.637-0.182,1.062-0.489,1.275c-0.206,0.186-0.489,0.266-0.85,0.266
		c-0.463,0-0.745-0.479-0.875-1.434c-0.207-0.852-0.387-1.487-0.593-1.912c-0.206-0.346-0.463-0.719-0.799-1.091
		c0.052-0.079,0.13-0.186,0.233-0.319C97.121,175.895,97.738,176.159,98.229,176.507 M107.879,185.056
		c1.93-0.9,3.474-2.017,4.629-3.401c1.624,1.195,2.448,1.887,2.448,2.05c0,0.103-0.078,0.131-0.18,0.131h-0.875
		c-0.98,0.691-2.137,1.195-3.476,1.485c0.232,2.019,0.617,3.747,1.131,5.206c0.902-1.035,1.7-2.283,2.419-3.769
		c1.728,1.299,2.601,2.041,2.601,2.203c0,0.267-0.13,0.372-0.386,0.372c-0.539-0.081-0.952-0.133-1.21-0.133
		c-0.875,0.823-1.93,1.512-3.137,2.068c0.563,1.41,1.231,2.552,2.03,3.455c0.925,0.955,1.955,1.726,3.034,2.312l-0.074,0.532
		c-0.154,0-0.334,0.051-0.565,0.156c-0.31,0.266-0.516,0.558-0.617,0.905c-0.157,0.689-0.363,1.061-0.644,1.061
		c-0.312,0-1.057-0.824-2.267-2.444c-1.698-2.442-2.701-6.373-2.984-11.765c-0.669,0.133-1.338,0.214-2.008,0.267v10.566
		c1.287-0.21,2.291-0.527,3.011-0.927c0.105,0.161,0.18,0.317,0.231,0.425c-1.183,1.062-3.164,2.072-5.996,3.135
		c-0.13,0.769-0.282,1.166-0.487,1.166c-0.156,0-0.36-0.372-0.592-1.061c-0.258-0.69-0.516-1.566-0.772-2.603
		c0.463,0.107,1.183,0.16,2.135,0.16v-10.384c-0.025-0.586-0.102-1.407-0.205-2.521C106.102,184.208,107.055,184.66,107.879,185.056
		 M109.911,176.958c0,0.372-0.464,0.584-1.391,0.663c-0.308,0.742-0.642,1.435-0.953,2.046h4.66c0.669-0.958,1.133-1.514,1.389-1.7
		c0.052-0.025,0.104-0.056,0.155-0.056c0.204,0.082,0.54,0.348,1.027,0.772c0.645,0.638,1.003,1.063,1.082,1.274
		c0,0.267-0.079,0.425-0.178,0.453h-8.545c-0.979,1.618-2.06,2.867-3.242,3.769c-0.155-0.131-0.31-0.239-0.465-0.29
		c1.39-2.181,2.343-4.991,2.91-8.394C108.727,176.294,109.911,176.771,109.911,176.958"/>
	<path fill="#552C15" d="M119.349,190.819c-0.104-0.132-0.231-0.265-0.359-0.423c2.958-2.605,5.17-5.736,6.664-9.455
		c2.085,0.744,3.14,1.274,3.14,1.592c0,0.215-0.462,0.371-1.391,0.428c-0.667,1.164-1.416,2.257-2.289,3.212v10.385
		c0.052,0.635,0.103,1.458,0.103,2.547c0,0.399-0.464,0.611-1.391,0.666c-0.719,0-1.106-0.08-1.106-0.241
		c0-0.448,0.027-1.487,0.027-3.133v-7.94C121.691,189.333,120.56,190.127,119.349,190.819 M127.662,177.25
		c-0.027,0.238-0.491,0.373-1.418,0.397c-1.338,1.911-3.474,3.721-6.406,5.418c-0.153,0-0.283-0.053-0.438-0.104
		c2.831-2.445,4.555-4.861,5.172-7.277C126.632,176.479,127.662,177.011,127.662,177.25 M140.477,182.561
		c1.132,1.011,1.749,1.674,1.879,1.991c0,0.238-0.079,0.346-0.182,0.346h-4.554v11.579c0,1.885-1.057,2.975-3.166,3.264
		c-0.206,0-0.386-0.264-0.489-0.794c-0.206-0.69-0.668-1.171-1.391-1.41c-0.667-0.316-1.259-0.529-1.8-0.688
		c0-0.133,0-0.268,0.05-0.424c0.801,0.077,1.981,0.156,3.577,0.237c0.518,0,0.8-0.212,0.8-0.665v-11.099h-4.117
		c-1.057,0-1.878,0.079-2.471,0.21c-0.103-0.317-0.206-0.663-0.334-1.06c0.54,0.107,1.465,0.187,2.805,0.187h7.129
		c0.462-0.663,0.899-1.252,1.362-1.753c0.128-0.162,0.231-0.241,0.334-0.241C140.013,182.241,140.192,182.349,140.477,182.561
		 M139.086,176.319c1.03,0.956,1.622,1.568,1.777,1.888c0,0.238-0.079,0.344-0.207,0.344h-8.466c-1.055,0-1.878,0.079-2.471,0.214
		c-0.105-0.319-0.208-0.665-0.336-1.063c0.54,0.104,1.467,0.157,2.807,0.157h4.786c0.411-0.584,0.849-1.142,1.259-1.617
		c0.13-0.136,0.233-0.216,0.312-0.216C138.648,176.026,138.83,176.133,139.086,176.319"/>
	<path fill="#552C15" d="M154.339,180.462c0.463,0.427,0.745,0.745,0.799,0.929c-0.026,0.213-0.206,0.396-0.567,0.507
		c-0.489,0.21-0.747,0.343-0.799,0.451c-0.669,1.699-1.568,3.186-2.65,4.489v0.635c2.832,0.45,4.3,1.54,4.428,3.238
		c0,0.321-0.052,0.588-0.104,0.798c-0.182,0.428-0.462,0.64-0.875,0.64c-0.411,0-0.953-0.56-1.674-1.701
		c-0.539-0.851-1.129-1.593-1.775-2.204v8.579c0.054,0.609,0.104,1.459,0.104,2.521c0,0.426-0.462,0.638-1.387,0.691
		c-0.747,0-1.134-0.107-1.134-0.266c0.025-0.426,0.052-1.462,0.052-3.108v-7.513c-1.185,0.955-2.499,1.777-3.989,2.468
		c-0.027-0.052-0.104-0.16-0.258-0.317c1.646-1.145,3.063-2.552,4.297-4.224c1.364-1.966,2.291-3.85,2.78-5.656h-3.294
		c-1.234,0.025-2.239,0.081-3.036,0.185c-0.155-0.371-0.31-0.743-0.438-1.114c0.848,0.186,2.006,0.267,3.446,0.267h3.114
		c0.772-0.906,1.286-1.356,1.544-1.356C153.258,179.533,153.72,179.878,154.339,180.462 M149.656,176.375
		c1.131,0.607,1.698,1.327,1.698,2.15c-0.026,0.637-0.18,1.06-0.489,1.3c-0.206,0.158-0.487,0.241-0.875,0.241
		c-0.567,0-0.929-0.426-1.133-1.277c-0.231-0.744-0.489-1.326-0.745-1.726c-0.207-0.346-0.463-0.717-0.799-1.09
		c0.052-0.078,0.154-0.187,0.258-0.317C148.42,175.816,149.115,176.054,149.656,176.375 M166.407,195.947
		c1.159,1.032,1.752,1.67,1.752,1.962c0,0.242-0.104,0.373-0.26,0.373h-11.09c-2.033,0-3.294,0.105-3.783,0.317
		c-0.18-0.478-0.386-0.954-0.617-1.379c0.745,0.158,2.033,0.266,3.859,0.266h2.754v-11.342h-1.21c-1.698,0-2.729,0.108-3.139,0.32
		c-0.18-0.479-0.387-0.93-0.593-1.382c0.567,0.187,1.57,0.266,2.984,0.266h1.957v-6.586c0-1.274-0.052-2.285-0.155-3.056
		c2.574,0.399,3.887,0.745,3.887,1.036c0,0.269-0.155,0.427-0.465,0.481c-0.538,0.238-0.821,0.423-0.821,0.581v7.543h1.34
		c0.821-1.09,1.413-1.753,1.798-2.018c0.054,0,0.13,0.029,0.232,0.029c0.207,0.104,0.438,0.264,0.671,0.447
		c1.183,1.037,1.775,1.7,1.775,1.967c0,0.264-0.104,0.37-0.26,0.37h-5.557v11.342h2.213c0.823-1.09,1.416-1.754,1.8-2.02
		c0.052,0,0.128,0.028,0.231,0.028C165.92,195.599,166.151,195.761,166.407,195.947"/>
</g>
<g>
	<g>
		<path fill="#1087AB" d="M143.724,75.911c0,4.308-0.397,8.528-1.16,12.624c-5.927,32.083-34.045,56.394-67.851,56.394
			c-7.95,0-15.59-1.349-22.697-3.824c-26.968-9.387-46.32-35.029-46.32-65.193c0-14.756,4.635-28.427,12.521-39.645
			C27.927,22.454,42.583,12.36,59.608,8.568c4.863-1.096,9.917-1.667,15.105-1.667c16.462,0,31.586,5.76,43.445,15.392
			c12.156,9.854,20.884,23.763,24.149,39.663C143.24,66.462,143.724,71.127,143.724,75.911z"/>
	</g>
	<g>
		<path fill="#0B608C" d="M142.563,88.535c-5.927,32.083-34.045,56.394-67.851,56.394c-7.95,0-15.59-1.349-22.697-3.824
			c0.411-0.849,1.332-1.626,2.212-2.069c4.26-2.145,9.306-2.66,13.914-1.43c1.272,0.341,2.564,0.81,3.866,0.644
			c2.483-0.326,4.086-2.793,6.363-3.841c3.254-1.482,7.378,0.128,10.497-1.618c0.334-0.191,0.688-0.477,0.697-0.856
			c0.018-0.517-0.549-0.818-0.89-1.207c-1.068-1.214,0.218-3.102,1.621-3.912c1.404-0.808,3.19-1.499,3.563-3.077
			c0.295-1.271-0.49-2.492-1.087-3.643c-1.832-3.521-1.968-8.227,0.699-11.171c0.595-0.65,1.354-1.49,0.935-2.269
			c-0.579-1.063-2.387-0.205-3.37-0.92c-1.12-0.818-0.168-2.594-0.453-3.951c-0.191-0.865-0.896-1.508-1.304-2.292
			c-0.41-0.787-0.356-2.009,0.484-2.27c1.209,0.969,3.232,0.627,4.049-0.683c0.571-0.936,0.562-2.173,1.253-3.03
			c1.03-1.292,3.006-1.085,4.586-1.562c2.348-0.707,3.863-3.008,4.688-5.309c0.355-0.983,0.667-2.063,1.498-2.689
			c0.558-0.412,1.272-0.563,1.936-0.753c3.589-1.032,6.628-3.808,7.974-7.284c1.596,1.254,1.882,3.492,2.476,5.419
			c0.604,1.927,2.185,4.014,4.166,3.633c1.351-0.262,2.191-1.555,3.04-2.643c0.85-1.078,2.174-2.132,3.468-1.665
			c1.079,0.388,1.53,1.61,2.189,2.539c0.657,0.936,2.157,1.603,2.849,0.698l1.785,0.588
			C138.381,85.06,140.731,86.526,142.563,88.535z"/>
	</g>
	<g>
		<g>
			<path fill="#3D3E3D" d="M20.677,27.148C37.45,8.872,61.693,0.191,86.277,3.816c24.045,3.546,44.463,20.081,54.645,41.84
				c0.373,0.797,2.32,0.594,1.838-0.438C132.118,22.479,111.211,6.643,86.487,2.429c-24.91-4.246-50.501,5.306-67.435,23.757
				C18.281,27.025,20.082,27.796,20.677,27.148L20.677,27.148z"/>
		</g>
	</g>
	<g>
		<g>
			<path fill="#3D3E3D" d="M15.251,34.07c0.663-0.941,1.348-1.867,2.051-2.778c0.202-0.262-1.474-1.377-1.761-1.006
				c-0.704,0.912-1.388,1.837-2.051,2.778C13.287,33.354,14.993,34.437,15.251,34.07L15.251,34.07z"/>
		</g>
	</g>
	<g>
		<g>
			<path fill="#3D3E3D" d="M4.585,96.447C-0.506,77.468,1.79,57.675,11.237,40.43c0.259-0.472-1.426-1.575-1.623-1.215
				C0.145,56.5-2.195,76.371,2.914,95.417C3.066,95.982,4.65,96.69,4.585,96.447L4.585,96.447z"/>
		</g>
	</g>
	<g>
		<g>
			<path fill="#3D3E3D" d="M74.406,148.684c-21.821-0.231-42.189-9.699-56.251-26.43c-0.867-1.031-1.392,0.193-0.734,0.977
				c14.434,17.173,35.135,27.096,57.6,27.334C75.856,150.574,75.155,148.692,74.406,148.684L74.406,148.684z"/>
		</g>
	</g>
	<g>
		<g>
			<path fill="#3D3E3D" d="M146.735,85.956c-4.701,32.855-31.452,58.654-64.335,62.52c-1.321,0.155-0.373,1.559,0.588,1.445
				c33.39-3.924,60.872-29.799,65.667-63.311C148.787,85.682,146.86,85.084,146.735,85.956L146.735,85.956z"/>
		</g>
	</g>
	<g>
		<g>
			<path fill="#3D3E3D" d="M147.516,76.311c-0.008,2.178-0.1,4.351-0.283,6.522c-0.06,0.699,1.745-0.096,1.805-0.8
				c0.185-2.17,0.276-4.343,0.283-6.522C149.323,74.772,147.518,75.607,147.516,76.311L147.516,76.311z"/>
		</g>
	</g>
	<g>
		<path fill="#0B608C" d="M142.308,61.956c-2.998-0.454-5.383-2.826-7.504-5.054c-0.752-0.793-1.522-1.619-1.84-2.659
			c-0.319-1.038-0.017-2.355,0.952-2.849c-0.868-1.674-1.722-3.356-2.586-5.03c-0.302-0.595-0.676-1.236-1.311-1.435
			c-0.865-0.263-1.794,0.444-2.675,0.207c-0.982-0.263-1.292-1.493-1.991-2.229c-0.745-0.794-1.91-0.984-2.98-1.144
			c-2.738-0.389-5.69-0.746-8.14,0.549c-0.438,0.228-0.883,0.521-1.376,0.545c-1.213,0.064-1.902-1.443-1.774-2.649
			c0.27-2.587,3.048-4.618,5.595-4.087c2.218,0.461,4.163,2.507,6.378,2.007c-2.007-1.562-1.248-5.046,0.838-6.49
			c-1.888,0.35-3.815-1.579-3.458-3.467c0.088-0.475,0.287-0.984,0.063-1.412c-0.199-0.388-0.665-0.54-1.055-0.753
			c-1.271-0.682-1.762-2.389-1.286-3.714C130.314,32.147,139.042,46.056,142.308,61.956z"/>
	</g>
	<g>
		<path fill="#0B608C" d="M81.799,40.867c-0.327,2.603,3.094,4.262,3.45,6.854c0.356,2.555-2.34,4.586-2.586,7.157
			c-0.263,2.762,2.357,5.649,0.969,8.054c-0.962-2.317-4.245-2.404-6.636-1.643c-2.393,0.77-4.973,1.999-7.281,0.999
			c-0.921-0.396-1.675-1.119-2.61-1.482c-0.938-0.358-2.238-0.16-2.587,0.777c-0.215,0.587,0.017,1.262-0.166,1.856
			c-0.381,1.222-2.12,1.301-3.317,0.842c-1.198-0.453-2.468-1.191-3.674-0.754c-1.539,0.546-1.823,2.785-0.944,4.158
			c0.881,1.38,2.476,2.094,3.977,2.736c-0.723,0.69-1.438,1.38-2.159,2.071c6.229,1.261,12.805,0.802,18.802-1.308
			c-1.031,1.514,0.611,3.514,2.334,4.125c1.729,0.61,3.752,0.659,5.084,1.903l2.832,9.545c-6.228,1.048-11.496-5.538-17.809-5.514
			c-2.008,0-3.985,0.698-5.991,0.618c-2.031-0.071-3.936-0.913-5.793-1.737c-2.99-1.325-5.973-2.659-8.963-3.99
			c-0.651-0.295-1.326-0.596-1.802-1.136c-0.452-0.522-0.674-1.205-0.842-1.879c-0.984-4.055-0.46-8.434-1.982-12.321
			c-1.221-3.104-3.746-5.951-3.396-9.275c0.364-3.436,3.798-6.49,2.729-9.775c-0.429-1.292-1.508-2.308-1.849-3.625
			c-0.223-0.85-0.128-1.785-0.517-2.563c-0.943-1.905-3.729-1.555-5.744-0.889c-2.022,0.667-4.768,1.103-5.799-0.753
			c-2.604,2.119-6.323,2.776-9.498,1.69c-0.792,0.5-1.332,1.047-1.816,0.658C27.927,22.454,42.583,12.36,59.608,8.568
			c1.3,0.31,2.57,0.706,3.823,1.199c3.943,1.555,7.11,4.958,8.377,8.996c0.302,0.977,0.557,2.056,1.367,2.667
			c1.45,1.086,3.974,0.142,5.043,1.602c0.343,0.467,0.43,1.087,0.699,1.603c1.277,2.452,5.584,1.381,7.158,3.658
			c0.887,1.284,0.555,3.229,1.672,4.308c0.668,0.634,1.807,0.977,1.872,1.888c0.04,0.484-0.277,0.929-0.642,1.254
			C86.718,37.821,82.172,37.821,81.799,40.867z"/>
	</g>
	<g opacity="0.2935">
		<path fill="#1087AB" d="M143.724,75.911c0,4.308-0.397,8.528-1.16,12.624c-5.927,32.083-34.045,56.394-67.851,56.394
			c-7.95,0-15.59-1.349-22.697-3.824c-12.236-4.26-22.898-11.86-30.912-21.707c5.372,3.87,11.314,6.997,17.684,9.21
			c7.109,2.476,14.773,4.38,22.699,3.825c43.281-3.037,61.923-24.31,67.851-56.394c0.762-4.096,1.157-8.315,1.157-12.623
			c0-4.783-0.483-9.449-1.412-13.956c-2.27-11.029-7.165-21.096-14.001-29.522c1.045,0.754,2.077,1.538,3.076,2.355
			c12.156,9.854,20.884,23.763,24.149,39.663C143.24,66.462,143.724,71.127,143.724,75.911z"/>
	</g>
	<g>
		<path fill="#C9E5EB" d="M15.003,99.562c0.038-0.444,0.125-0.881,0.269-1.301c0.144,0.389,0.468,1.063,0.27,1.277
			C15.447,99.634,15.234,99.618,15.003,99.562z"/>
	</g>
	<g>
		<g>
			<path fill="#C9E5EB" d="M163.268,96.311c1.208-0.323,2.624,0.155,3.457,1.127c1.011,1.178,1.223,2.901,0.825,4.402
				c-0.063,0.238-0.427,0.909-0.251,1.094c0.155,0.162,0.763-0.094,0.946-0.134c0.693-0.155,1.402-0.26,2.115-0.287
				c1.23-0.048,2.705,0.103,3.567,1.094c0.715,0.82,0.901,1.958,0.667,3.005c-0.439,1.94-2.063,3.717-4.143,4.387
				c-2.648,0.857-5.707,0.058-7.599-1.723c-1.981,1.906-4.981,2.904-7.788,2.588c-1.152-0.13-2.467-0.408-3.29-1.249
				c-0.88-0.896-1.713-1.827-2.297-2.947c-0.65,0.336-1.392,0.445-2.123,0.457c-2.333,0.041-4.668-0.868-6.362-2.473
				c-0.814-0.774-1.478-1.707-1.953-2.724c-0.254-0.542-0.453-1.11-0.598-1.693c-0.132-0.529-0.036-1.165-0.327-1.637
				c-1.213,0.504-2.281,0.792-3.605,0.433c-1.179-0.317-2.228-1.009-3.141-1.818c-0.988-0.875-1.869-1.952-2.167-3.238
				c-0.331-1.441,0.268-3.108,1.664-3.737c1.297-0.584,2.761-0.647,4.183-0.604c2.687,0.083,5.457,1.092,8.074,0.853
				c3.195-0.293,6.458,0.878,8.485,3.048c-0.833-1.577,0.461-3.648,2.301-4.324c2.979-1.095,6.126,0.331,7.88,2.795
				c0.755,1.054,1.28,2.455,0.735,3.629C162.758,96.489,163.006,96.381,163.268,96.311z"/>
		</g>
		<g>
			<path fill="#C9E5EB" d="M129.202,94.979c0.296,1.284,1.177,2.358,2.167,3.232c0.911,0.81,1.96,1.502,3.143,1.824
				c1.32,0.355,2.389,0.071,3.602-0.436c0.296,0.471,0.199,1.104,0.331,1.635c0.139,0.586,0.344,1.152,0.598,1.695
				c0.476,1.013,1.133,1.949,1.957,2.722c1.687,1.604,4.021,2.516,6.356,2.473c0.731-0.012,1.472-0.121,2.125-0.458
				c0.584,1.121,1.415,2.05,2.291,2.949c0.829,0.84,2.142,1.122,3.294,1.248c2.805,0.313,5.811-0.681,7.788-2.587
				c1.892,1.779,4.948,2.575,7.597,1.725c2.081-0.676,3.703-2.448,4.145-4.385c0.174-0.785,0.114-1.624-0.224-2.341
				c-0.639,1.64-2.105,3.063-3.921,3.655c-2.648,0.852-5.705,0.055-7.597-1.727c-1.978,1.908-4.983,2.902-7.788,2.589
				c-1.152-0.125-2.465-0.409-3.294-1.248c-0.876-0.899-1.707-1.828-2.291-2.951c-0.653,0.338-1.394,0.447-2.125,0.458
				c-2.335,0.043-4.67-0.868-6.356-2.473c-0.824-0.773-1.481-1.707-1.957-2.721c-0.254-0.543-0.459-1.118-0.598-1.696
				c-0.132-0.531-0.035-1.164-0.331-1.635c-1.213,0.501-2.281,0.791-3.602,0.429c-1.183-0.314-2.231-1.007-3.143-1.816
				c-0.793-0.7-1.508-1.521-1.919-2.479C129.112,93.369,129.028,94.206,129.202,94.979z"/>
		</g>
		<g>
			<g>
				<path fill="#3D3E3D" d="M163.21,96.499c3.082-0.479,4.221,2.206,4.097,4.615c-0.036,0.691-0.459,1.23-0.399,1.911
					c0.008,0.092,0.176,0.103,0.235,0.104c2.686,0.044,6.335-1.564,7.133,2.3c0.4,1.938-1.329,3.879-2.752,4.853
					c-2.617,1.79-6.152,0.655-8.305-1.169c-0.17-0.144-0.529-0.033-0.677,0.096c-2.261,1.989-4.978,2.755-7.939,2.341
					c-2.222-0.31-3.677-2.187-4.732-4c-0.102-0.175-0.393-0.101-0.542-0.042c-2.801,1.097-5.848-0.181-7.97-2.021
					c-1.945-1.686-2.069-3.821-2.852-6.009c-0.066-0.187-0.42-0.088-0.542-0.042c-3.479,1.333-6.614-0.924-8.126-3.833
					c-1.396-2.685,1.241-4.662,4.197-4.784c1.472-0.061,2.938,0.22,4.381,0.471c4.627,0.804,9.13-0.245,12.826,3.381
					c0.145,0.141,0.85-0.004,0.757-0.254c-1.378-3.713,3.898-4.906,6.67-3.675c2.163,0.96,4.146,3.515,3.464,5.934
					c-0.068,0.242,0.456,0.13,0.541,0.093c0.248-0.109,0.496-0.217,0.743-0.326c0.503-0.22,0.039-0.441-0.301-0.293
					c-0.248,0.109-0.496,0.217-0.743,0.326c0.18,0.031,0.36,0.063,0.541,0.093c1-3.545-3.232-7.076-6.608-6.953
					c-2.605,0.096-6.292,1.773-5.09,5.01c0.252-0.085,0.504-0.169,0.757-0.254c-2.7-2.648-5.925-3.225-9.572-3.073
					c-3.628,0.152-8.294-2.269-11.774-0.179c-2.733,1.642-2.05,4.582-0.199,6.678c2.134,2.417,4.923,3.049,7.838,1.931
					c-0.181-0.014-0.361-0.028-0.542-0.042c0.498,1.394,0.493,2.809,1.343,4.12c0.934,1.441,2.033,2.497,3.497,3.374
					c2.072,1.242,4.834,1.492,7.065,0.618c-0.181-0.014-0.361-0.027-0.542-0.042c1.611,2.769,3.409,4.132,6.592,4.354
					c2.733,0.192,5.478-1.03,7.486-2.797c-0.226,0.031-0.451,0.063-0.677,0.096c2.158,1.828,5.364,2.788,8.114,1.719
					c2.814-1.095,5.41-3.95,4.083-7.117c-0.451-1.078-1.812-1.603-2.889-1.681c-0.885-0.064-4.354,0.751-3.856-0.561
					c1.194-3.15-1.493-6.164-4.615-5.678C162.963,96.151,162.666,96.583,163.21,96.499z"/>
			</g>
		</g>
		<g>
			<g>
				<path fill="#C9E5EB" d="M157.231,106.518c-1.8,0.715-3.602-0.22-4.444-1.849c-0.109-0.211-0.858,0.064-0.783,0.21
					c1.084,2.095,3.395,2.688,5.507,1.848C158.027,106.522,157.54,106.395,157.231,106.518L157.231,106.518z"/>
			</g>
		</g>
		<g>
			<g>
				<path fill="#C9E5EB" d="M150.706,102.964c-3.155,0.87-6.086,0.434-7.957-2.382c-0.118-0.178-0.829,0.141-0.783,0.21
					c2.094,3.15,5.456,3.298,8.795,2.378C151.213,103.046,151.159,102.839,150.706,102.964L150.706,102.964z"/>
			</g>
		</g>
		<g>
			<g>
				<path fill="#C9E5EB" d="M167.402,106.326c-1.046,0.054-1.896-0.26-2.78-0.783c-0.506-0.299-0.958-0.909-1.502-1.107
					c-0.736-0.27-1.84,1.03-2.333,1.222c-0.516,0.2-0.036,0.382,0.291,0.255c0.398-0.155,0.748-0.328,1.109-0.559
					c0.093-0.059,0.559-0.556,0.659-0.585c-0.137-0.006-0.272-0.011-0.409-0.017c1.593,0.947,2.643,2.062,4.645,1.959
					C167.33,106.698,167.927,106.299,167.402,106.326L167.402,106.326z"/>
			</g>
		</g>
	</g>
	
		<text transform="matrix(0.9814 -0.1922 0.1922 0.9814 49.9634 53.5498)" fill="#1087AB" font-family="'AlphaEcho'" font-size="25.1486">Let’s </text>
	<g>
		
			<text transform="matrix(0.9636 0.2672 -0.2672 0.9636 61.4526 40.3345)" fill="#FFFFFF" font-family="'AlphaEcho'" font-size="25.1485">Let’s </text>
	</g>
	<g>
		<g>
			<g>
				<g>
					<polygon fill="#F4AC49" points="84.799,65.088 125.389,55.798 133.046,59.546 104.036,70.879 					"/>
					<g>
						<path fill="#3D3E3D" d="M84.865,65.333c12.123-2.774,24.246-5.549,36.369-8.324c0.998-0.229,1.997-0.457,2.995-0.686
							c0.286-0.065,0.572-0.131,0.858-0.196c0.438-0.1,0.332,0.049,0.029-0.099c1.266,0.619,2.531,1.239,3.796,1.858
							c0.821,0.402,1.642,0.804,2.463,1.206c0.292,0.143,0.585,0.287,0.878,0.43c0.708,0.347,0.062,0.037,0.616-0.18
							c-5.448,2.128-10.896,4.256-16.343,6.384c-3.291,1.286-6.582,2.571-9.874,3.857c-0.849,0.332-1.697,0.664-2.546,0.995
							c-0.441,0.172,0.054,0.021,0.1,0.035c-0.357-0.107-0.715-0.215-1.072-0.323c-6.034-1.816-12.069-3.633-18.104-5.45
							c-0.307-0.092-0.926,0.355-0.461,0.495c4.511,1.358,9.023,2.716,13.535,4.074c1.881,0.566,3.761,1.132,5.642,1.698
							c0.609,0.184,1.67-0.494,2.197-0.7c9.09-3.551,18.181-7.102,27.271-10.653c0.141-0.055,0.361-0.313,0.138-0.422
							c-2.097-1.026-4.193-2.053-6.291-3.08c-0.852-0.417-1.315-0.796-2.214-0.59c-4.141,0.948-8.281,1.896-12.423,2.844
							c-9.229,2.112-18.459,4.225-27.689,6.338C84.248,64.955,84.384,65.443,84.865,65.333z"/>
					</g>
				</g>
				<g>
					<path fill="#FFFFFF" d="M154.544,85.872l10.661-3.844c0.403-0.146,0.428-0.705,0.038-0.886l-3.879-1.797
						c-0.394-0.183-0.833-0.229-1.255-0.133l-10.874,2.492c-0.414,0.096-0.51,0.641-0.152,0.871l5.038,3.249
						C154.247,85.904,154.404,85.924,154.544,85.872z"/>
					<g>
						<path fill="#3D3E3D" d="M154.838,86.135c3.518-1.269,7.036-2.538,10.555-3.806c1.617-0.583,0.586-1.487-0.394-1.941
							c-1.545-0.716-3.229-1.907-5.006-1.5c-3.606,0.827-7.213,1.653-10.818,2.479c-1.804,0.413-0.82,1.5,0.127,2.111
							c1.36,0.877,3.1,2.589,4.751,2.776c0.424,0.048,1.831-0.668,0.982-0.765c-1.25-0.141-2.851-1.676-3.914-2.362
							c-0.436-0.281-0.871-0.562-1.307-0.843c-0.711-0.458-0.201-0.316,0.406-0.455c3.246-0.744,6.492-1.488,9.738-2.232
							c1.06-0.243,2.866,1.065,3.776,1.487c0.202,0.094,1.508,0.561,0.941,0.765c-0.537,0.194-1.074,0.388-1.611,0.581
							c-2.938,1.06-5.877,2.119-8.815,3.179C153.21,85.984,154.177,86.374,154.838,86.135z"/>
					</g>
				</g>
				<g>
					<path fill="#FFFFFF" d="M20.5,67.53c9.401,3.556,21.628,7.227,34.639,10.663c6.791,1.801,13.796,3.53,20.731,5.15
						c15.082,3.515,29.822,6.489,41.207,8.394c0,0,9.404,0.826,19.756,1.206c3.102,0.111,6.298,0.191,9.346,0.191
						c6.855,0,12.974-0.373,15.752-1.516c0.174-0.071,0.34-0.149,0.496-0.246c1.676-1.009,1.969-3.086-1.093-4.039
						c0,0-2.096-0.667-5.753-1.841c-1.158-0.373-2.467-0.793-3.927-1.262c-5.697-1.815-13.553-4.323-22.54-7.179
						c-6.997-2.223-14.693-4.658-22.596-7.14c-5.982-1.881-12.084-3.794-18.097-5.66c-17.923-5.569-35.069-10.789-45.923-13.835
						c0,0-13.304-4.808-25.625,1.31c-1.555,0.769-3.094,1.714-4.585,2.863c-0.199,0.151-0.39,0.31-0.588,0.468
						c-0.302,0.248-0.604,0.5-0.905,0.77c-0.688,0.603-1.374,1.253-2.031,1.967C8.765,57.795,7.439,62.596,20.5,67.53z"/>
					<g>
						<path fill="#3D3E3D" d="M20.185,67.704c14.02,5.268,28.551,9.183,43.061,12.834c14.917,3.754,29.958,7.062,45.08,9.882
							c11.234,2.096,22.555,2.645,33.98,2.873c6.136,0.122,12.802,0.429,18.786-1.205c3.217-0.878,3.984-3.835,0.386-4.982
							c-27.639-8.811-55.267-17.654-82.99-26.198c-11.953-3.684-24.113-6.873-35.992-10.771c-9.48-3.111-20.517-2.148-28.937,3.283
							c-1.35,0.871-2.568,1.913-3.758,2.986c-0.313,0.282-1.358,1.071-1.44,1.519c-0.111,0.608,0.081,1.25,0.304,1.808
							C10.366,63.989,16.345,66.216,20.185,67.704c0.207,0.08,0.922-0.234,0.632-0.347c-3.959-1.534-9.713-3.694-11.451-8.042
							c-0.188-0.469-0.311-1.04-0.218-1.545c0.185-1.01,2.549-2.421,3.45-3.138c2.092-1.664,4.48-2.895,6.953-3.879
							c10.674-4.247,21.346-0.59,31.688,2.449c29.49,8.665,58.778,18.037,88.063,27.366c6.137,1.955,12.272,3.917,18.406,5.881
							c1.633,0.523,4.557,0.982,5.458,2.607c1.777,3.208-8.062,3.611-9.457,3.699c-8,0.503-16.09,0.088-24.083-0.351
							c-4.303-0.237-8.773-0.263-13.033-0.98c-15.153-2.55-30.2-5.8-45.141-9.375c-15.085-3.609-30.141-7.575-44.824-12.6
							c-1.948-0.667-3.883-1.368-5.811-2.092C20.609,67.279,19.895,67.595,20.185,67.704z"/>
					</g>
				</g>
				<g>
					<path fill="#EC7452" d="M20.5,67.53c9.401,3.556,21.628,7.227,34.639,10.663c6.791,1.801,13.796,3.53,20.731,5.15
						c15.082,3.515,29.822,6.489,41.207,8.394c0,0,9.404,0.826,19.756,1.206c3.102,0.111,6.298,0.191,9.346,0.191
						c6.855,0,12.974-0.373,15.752-1.516c0.174-0.071,0.34-0.149,0.496-0.246C143.722,94.252,35.319,59.839,12.289,54.59
						c-0.199,0.151-0.39,0.31-0.588,0.468c-0.302,0.248-0.604,0.5-0.905,0.77c-0.688,0.603-1.374,1.253-2.031,1.967
						C8.765,57.795,7.439,62.596,20.5,67.53z"/>
					<g>
						<path fill="#1C252C" d="M20.183,67.7c25.635,9.633,52.845,15.7,79.645,21.075c5.575,1.118,11.359,2.655,17.029,3.149
							c4.085,0.356,8.18,0.622,12.274,0.854c6.581,0.375,13.179,0.613,19.771,0.52c4.354-0.062,9.738,0.146,13.758-1.844
							c0.315-0.156,0.062-0.293-0.17-0.26c-4.552,0.666-9.472-0.31-13.954-1.045c-7.5-1.23-14.927-2.917-22.317-4.676
							c-18.451-4.391-36.732-9.497-54.979-14.661c-15.782-4.466-31.516-9.108-47.33-13.458c-2.593-0.714-5.19-1.415-7.796-2.079
							c-0.958-0.245-1.919-0.481-2.882-0.708c-1.304-0.308-1.688,0.309-2.742,1.227c-1.93,1.679-2.781,2.317-1.475,4.623
							C11.171,64.227,16.364,66.22,20.183,67.7c0.2,0.077,0.915-0.23,0.635-0.339c-3.951-1.531-9.716-3.7-11.453-8.046
							c-0.188-0.469-0.311-1.042-0.219-1.547c0.032-0.174,2.735-3.029,3.029-2.961c0.518,0.119,1.034,0.243,1.55,0.369
							c5.526,1.345,11.001,2.906,16.475,4.447c17.043,4.8,34.037,9.772,51.091,14.533c17.696,4.94,35.445,9.803,53.396,13.744
							c6.319,1.387,12.688,2.689,19.118,3.441c2.116,0.247,4.25,0.422,6.382,0.383c0.4-0.007,0.801-0.03,1.2-0.062
							c0.725-0.057,1.583-0.521-0.381,0.106c-3.415,1.091-7.302,1.037-10.848,1.135c-10.516,0.292-21.094-0.403-31.573-1.246
							c-3.554-0.286-7.087-1.111-10.588-1.765c-5.897-1.1-11.775-2.299-17.643-3.551c-23.409-4.996-47.095-10.547-69.538-18.981
							C20.617,67.286,19.903,67.594,20.183,67.7z"/>
					</g>
				</g>
				<g opacity="0.3">
					<path fill="#EC7452" d="M20.5,67.53c9.401,3.556,21.628,7.227,34.639,10.663c6.791,1.801,13.796,3.53,20.731,5.15
						c15.082,3.515,29.822,6.489,41.207,8.394c0,0,9.404,0.826,19.756,1.206c3.102,0.111,6.298,0.191,9.346,0.191
						c6.855,0,12.974-0.373,15.752-1.516c0.174-0.071,0.34-0.149,0.496-0.246c-3.005,0.459-8.321-0.038-15.223-1.222
						c-2.445-0.015-4.952-0.087-7.397-0.175c-10.351-0.381-19.753-1.207-19.753-1.207c-11.386-1.904-26.127-4.879-41.209-8.393
						c-6.935-1.619-13.939-3.349-20.731-5.15c-13.011-3.436-25.237-7.108-34.639-10.662c-11.41-4.309-11.837-8.521-11.766-9.514
						l-0.008,0.008c-0.302,0.248-0.604,0.5-0.905,0.77c-0.688,0.603-1.374,1.253-2.031,1.967C8.765,57.795,7.439,62.596,20.5,67.53z
						"/>
				</g>
				<g>
					<polygon fill="#EC7452" points="160.761,59.546 154.322,58.486 129.114,77.052 149.824,83.3 					"/>
					<g>
						<path fill="#3D3E3D" d="M160.901,59.279c-1.683-0.277-3.365-0.554-5.048-0.832c-0.706-0.116-1.387-0.417-1.992,0.029
							c-2.559,1.884-5.117,3.769-7.676,5.653c-5.775,4.254-11.551,8.508-17.326,12.761c-0.161,0.118-0.204,0.341,0.024,0.411
							c6.903,2.083,13.807,4.165,20.71,6.248c0.193,0.058,0.51-0.014,0.603-0.215c3.646-7.918,7.291-15.836,10.937-23.754
							c0.18-0.392-0.61-0.36-0.744-0.069c-2.532,5.5-5.064,11.001-7.597,16.501c-1.086,2.359-2.172,4.717-3.258,7.076
							c-0.209,0.452,0.747,0.03,0.392-0.077c-0.317-0.096-0.635-0.192-0.953-0.288c-1.477-0.445-2.953-0.891-4.43-1.336
							c-3.771-1.138-7.543-2.275-11.313-3.413c-1.13-0.341-2.259-0.682-3.389-1.022c-0.64-0.193-0.647,0.39,0.045-0.12
							c5.478-4.034,10.954-8.068,16.432-12.102c2.537-1.869,5.074-3.737,7.611-5.605c0.205-0.151,0.41-0.302,0.615-0.453
							c0.072-0.053-0.577,0.045-0.182,0.11c0.403,0.067,0.807,0.133,1.21,0.2c1.683,0.277,3.365,0.554,5.048,0.832
							C160.982,59.873,161.427,59.366,160.901,59.279z"/>
					</g>
				</g>
				<g>
					<path fill="#FFFFFF" d="M147.07,90.362l-1.618,5.921c-0.16,0.586-0.724,0.962-1.326,0.887l-4.786-0.605
						c-0.354-0.046-0.669-0.241-0.863-0.537l-5.654-8.561L147.07,90.362z"/>
					<g>
						<path fill="#3D3E3D" d="M146.297,90.499c-0.503,1.841-1.006,3.683-1.51,5.524c-0.257,0.942-0.405,0.791-1.395,0.666
							c-1.104-0.14-2.209-0.279-3.313-0.419c-1.406-0.178-2.841-3.514-3.51-4.526c-0.987-1.496-1.976-2.992-2.964-4.488
							c-0.476,0.172-0.951,0.344-1.426,0.516c4.749,0.965,9.498,1.931,14.248,2.896c0.37,0.076,1.732-0.521,1.285-0.612
							c-4.749-0.965-9.498-1.931-14.248-2.896c-0.173-0.035-1.63,0.207-1.426,0.516c1.341,2.031,2.683,4.062,4.023,6.092
							c1.092,1.652,1.553,2.965,3.609,3.226c1.789,0.226,4.672,1.191,6.209-0.26c0.632-0.597,0.753-2.083,0.963-2.853
							c0.334-1.218,0.667-2.437,1-3.656C147.936,89.887,146.406,90.101,146.297,90.499z"/>
					</g>
				</g>
				<g>
					<path fill="#F4AC49" d="M78.118,80.898c0,0-9.453-5.704-22.982-7.007v22.942l6.031,2.484L78.118,80.898z"/>
					<g>
						<path fill="#3D3E3D" d="M78.486,80.762c-6.876-4.112-15.212-6.218-23.099-7.04c-0.147-0.015-0.643,0.062-0.643,0.274
							c0,7.647,0,15.295,0,22.942c0.014,0.03,0.038,0.048,0.071,0.053c2.011,0.828,4.021,1.656,6.031,2.484
							c0.179,0.074,0.55-0.044,0.677-0.181c5.65-6.14,11.3-12.279,16.951-18.419c0.176-0.191-0.58-0.098-0.713,0.046
							c-3.048,3.312-6.096,6.624-9.144,9.936c-1.957,2.126-3.913,4.252-5.87,6.378c-0.545,0.593-1.091,1.186-1.637,1.779
							c-0.097,0.105-0.194,0.211-0.292,0.317c0.37-0.401,0.924-0.066,0.301-0.323c-0.312-0.128-0.624-0.257-0.936-0.386
							c-1.277-0.525-4.657-1.127-4.657-2.555c0-2.536,0-5.071,0-7.607c0-4.892,0-9.783,0-14.675
							c-0.214,0.091-0.429,0.183-0.643,0.274c7.788,0.811,16.072,2.913,22.865,6.975C77.949,81.155,78.609,80.835,78.486,80.762z"/>
					</g>
				</g>
				<g>
					<g>
						<path fill="#3D3E3D" d="M136.659,90.414c0.618,0.854,1.153,1.753,1.611,2.702c0.137,0.284,0.902,0.038,0.783-0.21
							c-0.475-0.984-1.027-1.92-1.668-2.806C137.221,89.873,136.464,90.143,136.659,90.414L136.659,90.414z"/>
					</g>
				</g>
				<g>
					<g>
						<path fill="#3D3E3D" d="M138.664,93.954c0.061,0.196,0.123,0.393,0.186,0.588c0.105,0.329,0.887,0.112,0.783-0.21
							c-0.063-0.196-0.124-0.392-0.186-0.588C139.345,93.415,138.563,93.63,138.664,93.954L138.664,93.954z"/>
					</g>
				</g>
			</g>
			<g>
				<path fill="#1C252C" d="M11.703,55.056c3.547,2.459,7.87,3.737,12.102,4.765c2.823,0.689,5.82,1.292,8.591,0.417
					c0.923-0.285,1.936-0.962,1.851-1.927c-0.083-1.004-1.257-1.479-2.235-1.739c-5.119-1.367-10.175-2.989-15.141-4.847
					C15.11,52.599,13.379,53.688,11.703,55.056z"/>
			</g>
		</g>
		<g>
			<g>
				<path fill="#767C80" d="M111.988,79.192c-0.604-0.113-1.066-0.178-1.616-0.315c-0.191-0.049-0.325-0.228-0.304-0.424
					c0.026-0.239,0.086-0.476,0.147-0.708l0.382-1.489c0.058-0.213,0.277-0.339,0.487-0.283c0.699,0.187,1.897,0.485,2.008,0.85
					c0.058,0.184-0.273,1.263-0.497,2.001C112.52,79.084,112.254,79.241,111.988,79.192z"/>
			</g>
			<g>
				<path fill="#767C80" d="M107.655,78.024c-0.605-0.113-1.066-0.176-1.616-0.315c-0.193-0.047-0.327-0.228-0.305-0.422
					c0.025-0.239,0.088-0.476,0.146-0.708l0.386-1.49c0.054-0.212,0.273-0.339,0.485-0.282c0.697,0.186,1.896,0.485,2.009,0.85
					c0.055,0.183-0.273,1.264-0.495,2.001C108.187,77.917,107.921,78.075,107.655,78.024z"/>
			</g>
			<g>
				<path fill="#767C80" d="M103.365,76.837c-0.605-0.113-1.065-0.176-1.616-0.315c-0.193-0.046-0.327-0.228-0.304-0.421
					c0.024-0.24,0.086-0.477,0.147-0.709l0.384-1.488c0.054-0.213,0.273-0.34,0.485-0.284c0.697,0.188,1.897,0.485,2.008,0.85
					c0.056,0.183-0.273,1.263-0.497,2.001C103.895,76.731,103.633,76.888,103.365,76.837z"/>
			</g>
			<g>
				<path fill="#767C80" d="M99.076,75.652c-0.605-0.114-1.068-0.176-1.616-0.313c-0.191-0.049-0.325-0.229-0.305-0.424
					c0.027-0.24,0.089-0.475,0.149-0.708l0.382-1.488c0.054-0.215,0.273-0.34,0.485-0.283c0.698,0.187,1.896,0.484,2.009,0.85
					c0.055,0.182-0.273,1.262-0.495,2C99.605,75.546,99.344,75.702,99.076,75.652z"/>
			</g>
			<g>
				<path fill="#767C80" d="M94.786,74.467c-0.604-0.113-1.065-0.177-1.616-0.314c-0.192-0.049-0.324-0.229-0.304-0.424
					c0.026-0.239,0.088-0.476,0.147-0.709l0.382-1.488c0.056-0.213,0.273-0.339,0.487-0.282c0.699,0.185,1.897,0.484,2.008,0.849
					c0.058,0.183-0.273,1.262-0.496,2.001C95.317,74.359,95.054,74.517,94.786,74.467z"/>
			</g>
			<g>
				<path fill="#767C80" d="M90.497,73.282c-0.605-0.113-1.064-0.177-1.616-0.314c-0.191-0.049-0.325-0.229-0.304-0.424
					c0.027-0.239,0.088-0.475,0.149-0.709l0.382-1.489c0.056-0.212,0.271-0.338,0.486-0.282c0.699,0.186,1.896,0.485,2.01,0.85
					c0.055,0.183-0.275,1.263-0.497,2.001C91.028,73.173,90.765,73.331,90.497,73.282z"/>
			</g>
			<g>
				<path fill="#767C80" d="M86.209,72.096c-0.608-0.112-1.067-0.177-1.619-0.316c-0.19-0.047-0.324-0.228-0.304-0.422
					c0.029-0.239,0.087-0.476,0.148-0.71l0.383-1.488c0.057-0.211,0.275-0.339,0.487-0.282c0.696,0.186,1.896,0.484,2.007,0.85
					c0.057,0.184-0.273,1.262-0.495,2.001C86.739,71.988,86.476,72.146,86.209,72.096z"/>
			</g>
			<g>
				<path fill="#767C80" d="M81.918,70.91c-0.605-0.113-1.064-0.178-1.616-0.316c-0.192-0.048-0.326-0.229-0.304-0.423
					c0.027-0.238,0.087-0.476,0.148-0.709l0.38-1.488c0.058-0.212,0.276-0.34,0.488-0.281c0.696,0.185,1.897,0.483,2.009,0.848
					c0.056,0.184-0.275,1.262-0.497,2.001C82.449,70.803,82.186,70.959,81.918,70.91z"/>
			</g>
			<g>
				<path fill="#767C80" d="M77.63,69.725c-0.605-0.114-1.065-0.177-1.618-0.316c-0.19-0.048-0.324-0.227-0.304-0.423
					c0.027-0.239,0.088-0.475,0.148-0.709l0.383-1.487c0.057-0.214,0.273-0.339,0.485-0.283c0.699,0.186,1.897,0.485,2.011,0.849
					c0.054,0.183-0.275,1.263-0.496,2.001C78.161,69.617,77.898,69.774,77.63,69.725z"/>
			</g>
			<g>
				<path fill="#767C80" d="M73.34,68.539c-0.605-0.115-1.065-0.178-1.615-0.316c-0.193-0.048-0.325-0.227-0.304-0.423
					c0.026-0.24,0.087-0.475,0.146-0.709l0.385-1.487c0.057-0.214,0.273-0.339,0.486-0.284c0.698,0.186,1.896,0.485,2.008,0.85
					c0.056,0.184-0.273,1.264-0.494,2.001C73.87,68.431,73.606,68.588,73.34,68.539z"/>
			</g>
			<g>
				<path fill="#767C80" d="M69.049,67.353c-0.604-0.114-1.065-0.177-1.615-0.314c-0.191-0.048-0.324-0.227-0.302-0.425
					c0.024-0.239,0.085-0.475,0.146-0.707l0.385-1.489c0.055-0.213,0.273-0.339,0.486-0.283c0.697,0.186,1.895,0.485,2.008,0.85
					c0.054,0.184-0.275,1.263-0.496,2C69.582,67.247,69.317,67.402,69.049,67.353z"/>
			</g>
			<g>
				<path fill="#767C80" d="M64.763,66.167c-0.607-0.113-1.069-0.176-1.619-0.315c-0.191-0.048-0.325-0.227-0.302-0.424
					c0.025-0.238,0.087-0.476,0.147-0.708l0.383-1.489c0.055-0.212,0.273-0.338,0.486-0.282c0.699,0.186,1.897,0.485,2.008,0.85
					c0.057,0.185-0.273,1.263-0.494,2.001C65.291,66.061,65.03,66.217,64.763,66.167z"/>
			</g>
			<g>
				<path fill="#767C80" d="M60.15,64.949c-0.605-0.112-1.067-0.176-1.618-0.314c-0.19-0.049-0.324-0.229-0.304-0.426
					c0.027-0.236,0.087-0.475,0.148-0.707l0.384-1.489c0.053-0.212,0.271-0.339,0.484-0.282c0.698,0.186,1.897,0.485,2.008,0.849
					c0.057,0.185-0.273,1.263-0.494,2.001C60.679,64.843,60.418,64.998,60.15,64.949z"/>
			</g>
			<g>
				<path fill="#767C80" d="M55.538,63.731c-0.605-0.113-1.067-0.176-1.618-0.314c-0.188-0.049-0.322-0.229-0.302-0.425
					c0.027-0.238,0.087-0.475,0.148-0.709l0.382-1.488c0.055-0.213,0.274-0.339,0.486-0.282c0.698,0.187,1.897,0.485,2.006,0.849
					c0.059,0.184-0.271,1.263-0.494,2.002C56.068,63.625,55.806,63.781,55.538,63.731z"/>
			</g>
		</g>
		<path fill="none" stroke="#3D3E3D" stroke-width="0.811" stroke-miterlimit="10" d="M47.36,67.75
			c-0.148,0.52-0.332,1.083-0.788,1.373c-0.298,0.187-0.664,0.226-1.013,0.228c-1.396,0.012-2.746-0.458-4.063-0.923
			c-0.092-0.032-0.191-0.072-0.242-0.156c-0.054-0.085-0.04-0.194-0.024-0.293c0.485-3.165,0.974-6.329,1.462-9.494
			c0.02-0.13,0.04-0.266,0.103-0.381c0.277-0.522,1.053-0.354,1.606-0.145c1.144,0.435,2.3,0.582,3.477,0.868
			c1.061,0.255,1.2,0.589,1.061,1.662C48.619,62.936,48.024,65.378,47.36,67.75z"/>
		
			<path fill="none" stroke="#3D3E3D" stroke-width="0.6083" stroke-linecap="round" stroke-linejoin="round" stroke-miterlimit="10" d="
			M125.012,87.178c-0.134,0.48-0.306,1.003-0.728,1.271c-0.273,0.172-0.611,0.208-0.937,0.21c-1.29,0.012-2.535-0.424-3.755-0.853
			c-0.086-0.031-0.178-0.067-0.226-0.143c-0.047-0.081-0.036-0.181-0.021-0.272c0.451-2.926,0.901-5.852,1.353-8.777
			c0.02-0.121,0.036-0.246,0.094-0.354c0.258-0.481,0.975-0.327,1.484-0.134c1.059,0.401,2.127,0.54,3.216,0.802
			c0.98,0.238,1.11,0.545,0.98,1.538C126.18,82.728,125.625,84.985,125.012,87.178z"/>
		<g>
			<g>
				<path fill="#3D3E3D" d="M20.188,51.982c2.412,0.895,4.896,1.518,7.382,2.168c1.019,0.266,10.165,2.752,7.976,4.792
					c-0.353,0.329,0.413,0.426,0.648,0.206c2.097-1.954-1.959-3.422-3.291-3.973c-3.946-1.632-8.253-2.211-12.256-3.696
					C20.336,51.364,19.728,51.812,20.188,51.982L20.188,51.982z"/>
			</g>
		</g>
		<g>
			<g>
				<path fill="#3D3E3D" d="M34.402,60.416c-1.278,1.107-2.82,1.662-4.514,1.567c-0.365-0.02-0.809,0.515-0.278,0.545
					c1.957,0.109,3.819-0.492,5.305-1.779C35.317,60.4,34.687,60.169,34.402,60.416L34.402,60.416z"/>
			</g>
		</g>
		<g>
			<g>
				<path fill="#3D3E3D" d="M28.278,61.923c-0.52-0.005-1.026-0.084-1.525-0.229c-0.341-0.099-0.926,0.395-0.451,0.532
					c0.628,0.183,1.255,0.27,1.909,0.276C28.661,62.507,28.809,61.928,28.278,61.923L28.278,61.923z"/>
			</g>
		</g>
		<g>
			<g>
				<path fill="#3D3E3D" d="M24.273,61.296c-3.555-1.131-7.712-1.909-10.63-4.359c-0.236-0.198-0.94,0.146-0.612,0.422
					c2.97,2.494,7.172,3.275,10.779,4.423C24.108,61.876,24.734,61.442,24.273,61.296L24.273,61.296z"/>
			</g>
		</g>
		<g>
			<g>
				<path fill="#3D3E3D" d="M47.047,63.113c-0.117,0.794-0.313,1.565-0.589,2.319c-0.067,0.185,0.697,0.091,0.776-0.126
					c0.276-0.754,0.472-1.524,0.589-2.319C47.857,62.756,47.079,62.903,47.047,63.113L47.047,63.113z"/>
			</g>
		</g>
		<g>
			<g>
				<path fill="#3D3E3D" d="M124.271,84.203c-0.155,0.873-0.399,1.717-0.729,2.54c-0.068,0.169,0.689,0.085,0.775-0.128
					c0.33-0.823,0.574-1.667,0.729-2.54C125.085,83.857,124.308,83.995,124.271,84.203L124.271,84.203z"/>
			</g>
		</g>
		<g>
			<g>
				<path fill="#3D3E3D" d="M56.861,81.109c-0.013,3.266-0.135,6.525-0.371,9.783c-0.006,0.083,0.768,0.006,0.783-0.21
					c0.236-3.257,0.358-6.517,0.371-9.783C57.645,80.8,56.862,80.903,56.861,81.109L56.861,81.109z"/>
			</g>
		</g>
		<g>
			<g>
				<path fill="#3D3E3D" d="M56.72,93.136c0.02,0.522-0.013,1.035-0.092,1.551c-0.042,0.276,0.743,0.131,0.78-0.11
					c0.084-0.549,0.116-1.096,0.095-1.65C57.495,92.708,56.709,92.857,56.72,93.136L56.72,93.136z"/>
			</g>
		</g>
		<g>
			<g>
				<path fill="#3D3E3D" d="M116.41,58.906c-1.919,0.281-3.707,1.003-5.585,1.456c-1.905,0.46-3.807,0.679-5.633,1.43
					c-0.497,0.205-0.056,0.628,0.348,0.463c1.747-0.718,3.592-0.971,5.429-1.354c1.823-0.381,3.519-1.148,5.371-1.42
					C116.771,59.417,116.941,58.828,116.41,58.906L116.41,58.906z"/>
			</g>
		</g>
		<g>
			<g>
				<path fill="#3D3E3D" d="M103.769,62.286c-0.327,0.074-0.628,0.187-0.922,0.348c-0.47,0.257-0.043,0.637,0.338,0.429
					c0.232-0.127,0.459-0.215,0.719-0.273C104.392,62.678,104.25,62.177,103.769,62.286L103.769,62.286z"/>
			</g>
		</g>
	</g>
	
		<text transform="matrix(0.9765 -0.2157 0.2157 0.9765 53.7324 129.6216)" fill="#1087AB" font-family="'AlphaEcho'" font-size="25.1486">Travel</text>
	
		<text transform="matrix(0.9698 0.244 -0.244 0.9698 31.9453 110.0967)" fill="#FFFFFF" font-family="'AlphaEcho'" font-size="25.1487">Travel</text>
	<g>
		<g>
			<g>
				<path fill="#C9E5EB" d="M52.244,73.356c4.931-0.647,9.855-1.843,14.717-2.88c0.224-0.048,0.124-0.368-0.093-0.336
					c-4.889,0.712-9.907,1.662-14.643,3.079C52.153,73.241,52.164,73.366,52.244,73.356L52.244,73.356z"/>
			</g>
		</g>
		<g>
			<g>
				<path fill="#C9E5EB" d="M79.601,57.215c15.565-2.727,31.076-5.73,46.607-8.655c0.223-0.042,0.126-0.373-0.092-0.336
					c-8.373,1.398-16.712,3.029-25.048,4.631c-7.154,1.375-14.406,2.588-21.505,4.226C79.475,57.101,79.514,57.23,79.601,57.215
					L79.601,57.215z"/>
			</g>
		</g>
		<g>
			<g>
				<path fill="#C9E5EB" d="M10.035,79.589c5.752-0.803,11.566-1.85,17.257-3.008c0.224-0.045,0.124-0.368-0.093-0.336
					c-5.74,0.836-11.62,1.593-17.202,3.209C9.909,79.48,9.949,79.601,10.035,79.589L10.035,79.589z"/>
			</g>
		</g>
		<g>
			<g>
				<path fill="#C9E5EB" d="M78.922,100.941c5.752-0.808,11.566-1.851,17.257-3.01c0.225-0.045,0.124-0.368-0.092-0.336
					c-5.74,0.838-11.623,1.59-17.203,3.211C78.796,100.833,78.836,100.953,78.922,100.941L78.922,100.941z"/>
			</g>
		</g>
		<g>
			<g>
				<path fill="#C9E5EB" d="M72.637,94.53c10.934-1.893,21.96-3.317,32.861-5.389c0.223-0.042,0.126-0.371-0.092-0.336
					c-10.919,1.743-22.074,2.879-32.806,5.59C72.512,94.417,72.55,94.544,72.637,94.53L72.637,94.53z"/>
			</g>
		</g>
		<g>
			<g>
				<path fill="#C9E5EB" d="M41.318,68.301c4.931-0.648,9.854-1.842,14.718-2.879c0.224-0.048,0.124-0.368-0.093-0.336
					c-4.888,0.712-9.908,1.66-14.644,3.078C41.228,68.186,41.238,68.312,41.318,68.301L41.318,68.301z"/>
			</g>
		</g>
		<g>
			<g>
				<path fill="#C9E5EB" d="M59.562,68.164c-15.356,2.353-30.798,4.381-46.088,7.132c-0.175,0.032-0.135,0.335,0.042,0.311
					c15.407-2.062,30.736-4.851,46.083-7.309C59.688,68.285,59.649,68.151,59.562,68.164L59.562,68.164z"/>
			</g>
		</g>
		<g>
			<g>
				<path fill="#C9E5EB" d="M109.275,92.255c-15.355,2.354-30.796,4.382-46.087,7.132c-0.175,0.032-0.135,0.335,0.042,0.311
					c15.406-2.06,30.735-4.85,46.082-7.308C109.401,92.376,109.363,92.242,109.275,92.255L109.275,92.255z"/>
			</g>
		</g>
	</g>
	<g>
		<g>
			<path fill="#C9E5EB" d="M65.93,55.913c9.386-1.438,18.708-3.22,28.058-4.84c0.177-0.031,0.102-0.299-0.074-0.269
				c-9.349,1.62-18.726,3.079-28.046,4.883C65.718,55.716,65.784,55.935,65.93,55.913L65.93,55.913z"/>
		</g>
	</g>
	<g>
		<g>
			<path fill="#C9E5EB" d="M92.546,58.719c9.39-1.422,18.716-3.188,28.07-4.792c0.177-0.03,0.102-0.299-0.074-0.269
				c-9.353,1.604-18.733,3.046-28.059,4.835C92.333,58.522,92.399,58.742,92.546,58.719L92.546,58.719z"/>
		</g>
	</g>
</g>
</svg>
