<?xml version="1.0" encoding="UTF-8" standalone="no"?>
<!DOCTYPE svg PUBLIC "-//W3C//DTD SVG 1.1//EN" "http://www.w3.org/Graphics/SVG/1.1/DTD/svg11.dtd">
<svg width="100%" height="100%" viewBox="0 0 470 109" version="1.1" xmlns="http://www.w3.org/2000/svg" xmlns:xlink="http://www.w3.org/1999/xlink" xml:space="preserve" xmlns:serif="http://www.serif.com/" style="fill-rule:evenodd;clip-rule:evenodd;stroke-linejoin:round;stroke-miterlimit:2;">
    <g>
        <g transform="matrix(0.983755,0,0,1.00044,2.04319,-0.973834)">
            <circle cx="51.051" cy="55.45" r="44.877" style="fill:rgb(89,47,20);"/>
        </g>
        <path d="M184.736,24.963C186.492,25.49 187.373,25.868 187.373,26.174C187.373,26.552 187.006,26.853 186.346,27.152C185.322,27.609 184.661,27.987 184.295,28.214L183.929,54.072C183.929,71.083 181.44,82.728 176.456,89C176.164,88.698 175.87,88.472 175.722,88.321C176.456,85.374 177.042,80.987 177.629,74.94C178.214,69.116 178.507,61.255 178.58,51.271L178.653,30.403C178.507,27.609 178.36,25.339 178.214,23.679C180.852,24.13 183.049,24.584 184.736,24.963M194.771,29.876C196.31,30.177 197.116,30.633 197.116,31.16C197.116,31.539 196.75,31.765 196.089,31.918C194.991,32.374 194.477,32.671 194.477,32.828L194.477,65.335C194.551,72.067 194.625,76.752 194.698,79.477C194.698,80.535 193.38,81.062 190.818,81.062C189.497,81.062 188.911,80.681 188.911,79.854C188.984,77.585 189.056,72.672 189.129,65.106L189.129,34.64C188.984,32.672 188.764,30.783 188.618,28.971C190.524,29.271 192.573,29.575 194.771,29.876M205.249,24.584C207.005,24.883 207.885,25.339 207.885,25.946C209.645,26.397 212.281,26.552 215.798,26.552L232.134,26.552C234.186,23.978 235.652,22.387 236.605,21.79C236.751,21.79 236.899,21.86 237.116,21.86C237.63,22.167 238.216,22.543 238.802,22.994C241.587,25.49 243.05,27.08 243.05,27.759C243.05,28.516 242.757,28.818 242.319,28.818L227.446,28.818C225.833,31.993 223.711,34.79 221.219,37.208L230.45,37.208C232.21,34.79 233.38,33.584 234.113,33.505C234.7,33.584 235.871,34.261 237.775,35.625C239.389,36.907 240.193,37.814 240.193,38.419C240.193,38.875 239.9,39.325 239.313,39.703C238.435,40.459 237.85,40.986 237.703,41.295L237.703,59.894C237.922,67.152 238.067,71.76 238.067,73.879C238.067,75.391 236.898,76.224 234.553,76.224C232.793,76.224 231.841,75.846 231.767,74.94L231.767,73.051L216.163,73.051L216.163,73.879C215.87,75.391 214.479,76.146 212.135,76.146C210.668,76.146 209.79,75.919 209.497,75.391C209.497,68.887 209.569,62.617 209.79,56.413L209.79,43.94C209.644,38.649 209.497,35.472 209.202,34.411L216.238,37.208L218.947,37.208C219.681,34.639 220.266,31.845 220.631,28.818L217.482,28.818C212.941,28.818 210.154,29.119 209.057,29.726C208.616,28.592 208.178,27.458 207.591,26.397C207.371,26.622 207.078,26.774 206.711,26.774C205.541,27.23 204.955,27.609 204.955,27.837L204.955,68.132C205.027,75.467 205.102,80.61 205.248,83.558C205.248,84.69 203.782,85.296 200.998,85.296C199.531,85.296 198.873,84.84 198.873,84.012C198.946,81.441 199.019,76.074 199.093,67.829L199.093,29.798C198.946,27.685 198.8,25.567 198.507,23.601C200.632,23.907 202.903,24.207 205.249,24.584M221.438,79.099C223.271,80.453 224.223,81.288 224.223,81.667C224.223,82.123 223.928,82.422 223.417,82.5C221.438,82.35 220.194,82.193 219.753,82.193C215.798,85.974 209.57,88.547 201.071,89.91C201.071,89.226 200.926,88.927 200.778,88.927C207.811,86.28 213.306,82.123 217.335,76.299C218.069,76.753 219.387,77.738 221.438,79.099M231.768,39.176L216.164,39.176L216.164,47.947L231.768,47.947L231.768,39.176ZM231.768,49.912L216.164,49.912L216.164,59.287L231.768,59.287L231.768,49.912ZM231.768,61.328L216.164,61.328L216.164,71.083L231.768,71.083L231.768,61.328ZM242.318,85.524C242.318,86.131 242.171,86.808 241.88,87.486C241.658,88.397 240.853,88.926 239.534,89.226C238.654,89.226 237.337,88.093 235.652,85.903C231.916,82.123 228.252,79.477 224.735,77.965C224.882,77.81 225.027,77.432 225.247,76.831C236.605,78.564 242.318,81.441 242.318,85.524" style="fill:rgb(89,47,20);fill-rule:nonzero;"/>
        <g transform="matrix(1,0,0,1,-72.1488,0)">
            <path d="M184.736,24.963C186.492,25.49 187.373,25.868 187.373,26.174C187.373,26.552 187.006,26.853 186.346,27.152C185.322,27.609 184.661,27.987 184.295,28.214L183.929,54.072C183.929,71.083 181.44,82.728 176.456,89C176.164,88.698 175.87,88.472 175.722,88.321C176.456,85.374 177.042,80.987 177.629,74.94C178.214,69.116 178.507,61.255 178.58,51.271L178.653,30.403C178.507,27.609 178.36,25.339 178.214,23.679C180.852,24.13 183.049,24.584 184.736,24.963M194.771,29.876C196.31,30.177 197.116,30.633 197.116,31.16C197.116,31.539 196.75,31.765 196.089,31.918C194.991,32.374 194.477,32.671 194.477,32.828L194.477,65.335C194.551,72.067 194.625,76.752 194.698,79.477C194.698,80.535 193.38,81.062 190.818,81.062C189.497,81.062 188.911,80.681 188.911,79.854C188.984,77.585 189.056,72.672 189.129,65.106L189.129,34.64C188.984,32.672 188.764,30.783 188.618,28.971C190.524,29.271 192.573,29.575 194.771,29.876M205.249,24.584C207.005,24.883 207.885,25.339 207.885,25.946C209.645,26.397 212.281,26.552 215.798,26.552L232.134,26.552C234.186,23.978 235.652,22.387 236.605,21.79C236.751,21.79 236.899,21.86 237.116,21.86C237.63,22.167 238.216,22.543 238.802,22.994C241.587,25.49 243.05,27.08 243.05,27.759C243.05,28.516 242.757,28.818 242.319,28.818L227.446,28.818C225.833,31.993 223.711,34.79 221.219,37.208L230.45,37.208C232.21,34.79 233.38,33.584 234.113,33.505C234.7,33.584 235.871,34.261 237.775,35.625C239.389,36.907 240.193,37.814 240.193,38.419C240.193,38.875 239.9,39.325 239.313,39.703C238.435,40.459 237.85,40.986 237.703,41.295L237.703,59.894C237.922,67.152 238.067,71.76 238.067,73.879C238.067,75.391 236.898,76.224 234.553,76.224C232.793,76.224 231.841,75.846 231.767,74.94L231.767,73.051L216.163,73.051L216.163,73.879C215.87,75.391 214.479,76.146 212.135,76.146C210.668,76.146 209.79,75.919 209.497,75.391C209.497,68.887 209.569,62.617 209.79,56.413L209.79,43.94C209.644,38.649 209.497,35.472 209.202,34.411L216.238,37.208L218.947,37.208C219.681,34.639 220.266,31.845 220.631,28.818L217.482,28.818C212.941,28.818 210.154,29.119 209.057,29.726C208.616,28.592 208.178,27.458 207.591,26.397C207.371,26.622 207.078,26.774 206.711,26.774C205.541,27.23 204.955,27.609 204.955,27.837L204.955,68.132C205.027,75.467 205.102,80.61 205.248,83.558C205.248,84.69 203.782,85.296 200.998,85.296C199.531,85.296 198.873,84.84 198.873,84.012C198.946,81.441 199.019,76.074 199.093,67.829L199.093,29.798C198.946,27.685 198.8,25.567 198.507,23.601C200.632,23.907 202.903,24.207 205.249,24.584M221.438,79.099C223.271,80.453 224.223,81.288 224.223,81.667C224.223,82.123 223.928,82.422 223.417,82.5C221.438,82.35 220.194,82.193 219.753,82.193C215.798,85.974 209.57,88.547 201.071,89.91C201.071,89.226 200.926,88.927 200.778,88.927C207.811,86.28 213.306,82.123 217.335,76.299C218.069,76.753 219.387,77.738 221.438,79.099M231.768,39.176L216.164,39.176L216.164,47.947L231.768,47.947L231.768,39.176ZM231.768,49.912L216.164,49.912L216.164,59.287L231.768,59.287L231.768,49.912ZM231.768,61.328L216.164,61.328L216.164,71.083L231.768,71.083L231.768,61.328ZM242.318,85.524C242.318,86.131 242.171,86.808 241.88,87.486C241.658,88.397 240.853,88.926 239.534,89.226C238.654,89.226 237.337,88.093 235.652,85.903C231.916,82.123 228.252,79.477 224.735,77.965C224.882,77.81 225.027,77.432 225.247,76.831C236.605,78.564 242.318,81.441 242.318,85.524" style="fill:rgb(89,47,20);fill-rule:nonzero;"/>
        </g>
        <path d="M275.925,32.671C278.49,35.094 279.952,36.608 280.246,37.365C280.246,38.041 280.027,38.341 279.662,38.341L263.396,38.341C263.324,40.31 263.324,42.956 263.324,46.129C263.324,47.642 263.25,49.154 263.25,50.594L269.551,50.594C271.457,48.476 272.7,47.418 273.435,47.418C274.093,47.493 275.265,48.175 277.024,49.532C278.93,51.044 279.882,52.104 279.882,52.634C279.882,53.315 279.149,54.145 277.684,55.052C277.098,55.431 276.803,56.113 276.803,57.169C276.365,67.076 275.557,75.09 274.533,81.215C273.434,86.578 270.429,89.304 265.595,89.304C265.081,89.304 264.787,88.62 264.642,87.265C264.495,86.43 264.057,85.597 263.47,84.84C262.518,83.633 261.199,82.877 259.44,82.571C259.44,82.421 259.514,81.894 259.514,81.137C260.759,81.286 261.859,81.365 262.739,81.439C266.547,81.439 268.672,79.626 268.965,75.845C269.844,70.777 270.358,63.067 270.504,52.782L263.177,52.782C262.372,72.741 257.683,85.067 249.186,89.98C249.186,89.83 249.038,89.453 248.818,88.848C254.092,81.515 256.732,67.678 256.732,47.264C256.732,45.453 256.803,42.426 256.803,38.34C253.874,38.34 251.601,38.569 250.063,38.947C249.771,38.04 249.479,37.057 249.038,35.922C250.577,36.229 253.289,36.452 257.097,36.452L270.651,36.452C271.674,34.941 272.702,33.657 273.728,32.519C274.094,32.143 274.388,31.917 274.535,31.917C274.825,31.918 275.265,32.224 275.925,32.671M263.544,23.53C266.327,25.49 267.792,27.759 267.792,30.403C267.719,32.223 267.279,33.428 266.402,34.036C265.817,34.564 265.008,34.79 263.983,34.79C262.666,34.79 261.859,33.428 261.491,30.709C260.907,28.286 260.393,26.475 259.806,25.262C259.222,24.285 258.488,23.222 257.535,22.167C257.682,21.938 257.902,21.632 258.195,21.255C260.394,21.791 262.152,22.543 263.544,23.53M291.018,47.871C296.512,45.302 300.909,42.129 304.204,38.192C308.821,41.595 311.166,43.562 311.166,44.018C311.166,44.317 310.946,44.397 310.654,44.397L308.161,44.397C305.377,46.358 302.08,47.798 298.27,48.626C298.928,54.374 300.027,59.288 301.494,63.444C304.059,60.5 306.329,56.942 308.379,52.713C313.291,56.414 315.78,58.531 315.78,58.987C315.78,59.744 315.413,60.046 314.682,60.046C313.143,59.817 311.969,59.669 311.238,59.669C308.748,62.013 305.745,63.975 302.301,65.563C303.912,69.574 305.816,72.825 308.086,75.393C310.724,78.115 313.654,80.307 316.731,81.975L316.511,83.487C316.072,83.487 315.559,83.635 314.9,83.938C314.021,84.691 313.437,85.526 313.143,86.511C312.703,88.473 312.115,89.533 311.311,89.533C310.432,89.533 308.305,87.188 304.863,82.573C300.027,75.62 297.171,64.43 296.368,49.082C294.461,49.459 292.555,49.687 290.649,49.837L290.649,79.926C294.314,79.322 297.17,78.416 299.223,77.28C299.517,77.738 299.737,78.186 299.881,78.493C296.512,81.516 290.871,84.392 282.813,87.415C282.445,89.603 282.004,90.738 281.42,90.738C280.981,90.738 280.396,89.681 279.733,87.717C279,85.753 278.268,83.256 277.536,80.306C278.854,80.611 280.906,80.76 283.616,80.76L283.616,51.201C283.543,49.533 283.325,47.193 283.032,44.018C285.961,45.455 288.673,46.738 291.018,47.871M296.805,24.814C296.805,25.868 295.485,26.475 292.849,26.703C291.97,28.818 291.018,30.782 290.135,32.52L303.398,32.52C305.303,29.798 306.622,28.214 307.355,27.685C307.501,27.609 307.647,27.529 307.794,27.529C308.378,27.759 309.333,28.516 310.724,29.726C312.555,31.539 313.581,32.751 313.8,33.356C313.8,34.112 313.581,34.564 313.29,34.639L288.966,34.639C286.183,39.254 283.103,42.805 279.734,45.374C279.296,44.998 278.855,44.694 278.416,44.546C282.372,38.341 285.084,30.333 286.695,20.654C293.434,22.921 296.805,24.286 296.805,24.814" style="fill:rgb(89,47,20);fill-rule:nonzero;"/>
        <path d="M323.672,64.278C323.381,63.902 323.014,63.523 322.649,63.069C331.073,55.658 337.372,46.738 341.622,36.154C347.555,38.273 350.56,39.781 350.56,40.689C350.56,41.295 349.242,41.743 346.603,41.898C344.699,45.222 342.573,48.326 340.082,51.045L340.082,80.611C340.228,82.422 340.376,84.769 340.376,87.863C340.376,89 339.059,89.603 336.418,89.755C334.37,89.755 333.272,89.533 333.272,89.076C333.272,87.794 333.344,84.84 333.344,80.156L333.344,57.549C330.339,60.044 327.117,62.312 323.672,64.278M347.336,25.64C347.262,26.325 345.945,26.703 343.307,26.774C339.497,32.223 333.416,37.365 325.065,42.2C324.625,42.2 324.261,42.049 323.82,41.898C331.878,34.942 336.786,28.063 338.546,21.182C344.406,23.449 347.336,24.963 347.336,25.64M383.821,40.765C387.044,43.64 388.802,45.53 389.167,46.435C389.167,47.115 388.947,47.419 388.653,47.419L375.688,47.419L375.688,80.381C375.688,85.752 372.684,88.849 366.677,89.681C366.089,89.681 365.576,88.926 365.284,87.415C364.698,85.447 363.378,84.085 361.327,83.406C359.424,82.5 357.738,81.895 356.2,81.441C356.2,81.062 356.2,80.681 356.346,80.232C358.617,80.453 361.987,80.681 366.529,80.911C367.996,80.911 368.803,80.305 368.803,79.021L368.803,47.419L357.08,47.419C354.074,47.419 351.731,47.642 350.045,48.02C349.753,47.115 349.459,46.13 349.094,44.998C350.631,45.302 353.27,45.53 357.08,45.53L377.372,45.53C378.692,43.64 379.937,41.973 381.256,40.538C381.62,40.082 381.914,39.854 382.208,39.854C382.501,39.854 383.014,40.16 383.821,40.765M379.864,22.994C382.795,25.72 384.48,27.458 384.92,28.366C384.92,29.043 384.7,29.348 384.333,29.348L360.23,29.348C357.227,29.348 354.881,29.576 353.197,29.954C352.903,29.043 352.611,28.063 352.244,26.932C353.782,27.23 356.421,27.381 360.23,27.381L373.857,27.381C375.029,25.72 376.275,24.13 377.446,22.771C377.813,22.388 378.106,22.167 378.326,22.167C378.618,22.167 379.133,22.467 379.864,22.994" style="fill:rgb(89,47,20);fill-rule:nonzero;"/>
        <path d="M423.288,34.79C424.606,36.002 425.412,36.907 425.559,37.436C425.485,38.041 424.972,38.57 423.947,38.875C422.552,39.476 421.822,39.854 421.676,40.16C419.77,44.998 417.206,49.232 414.13,52.941L414.13,54.752C422.19,56.036 426.363,59.138 426.731,63.973C426.731,64.885 426.585,65.643 426.438,66.243C425.924,67.456 425.12,68.06 423.947,68.06C422.775,68.06 421.237,66.468 419.184,63.219C417.648,60.799 415.962,58.681 414.13,56.942L414.13,81.367C414.276,83.105 414.422,85.524 414.422,88.547C414.422,89.755 413.106,90.36 410.467,90.516C408.342,90.516 407.242,90.21 407.242,89.755C407.317,88.547 407.39,85.597 407.39,80.912L407.39,59.518C404.018,62.238 400.281,64.581 396.033,66.548C395.959,66.398 395.739,66.092 395.3,65.643C399.989,62.389 404.019,58.383 407.534,53.62C411.419,48.021 414.056,42.657 415.449,37.517L406.07,37.517C402.553,37.586 399.696,37.745 397.425,38.042C396.986,36.986 396.544,35.925 396.181,34.869C398.598,35.398 401.894,35.626 405.998,35.626L414.861,35.626C417.058,33.051 418.523,31.767 419.256,31.767C420.21,32.144 421.529,33.129 423.288,34.79M409.955,23.151C413.179,24.884 414.79,26.932 414.79,29.271C414.715,31.088 414.276,32.292 413.398,32.979C412.811,33.428 412.006,33.658 410.906,33.658C409.294,33.658 408.267,32.452 407.683,30.025C407.024,27.91 406.29,26.247 405.56,25.112C404.973,24.13 404.239,23.074 403.286,22.013C403.434,21.79 403.725,21.482 404.019,21.105C406.438,21.56 408.418,22.239 409.955,23.151M457.646,78.872C460.944,81.818 462.63,83.634 462.63,84.463C462.63,85.148 462.338,85.525 461.895,85.525L430.321,85.525C424.534,85.525 420.944,85.825 419.551,86.43C419.039,85.069 418.449,83.706 417.793,82.5C419.918,82.951 423.58,83.255 428.782,83.255L436.62,83.255L436.62,50.972L433.177,50.972C428.341,50.972 425.411,51.271 424.241,51.878C423.727,50.516 423.141,49.232 422.552,47.948C424.167,48.476 427.024,48.705 431.054,48.705L436.62,48.705L436.62,29.955C436.62,26.325 436.474,23.449 436.18,21.256C443.508,22.388 447.243,23.373 447.243,24.206C447.243,24.963 446.805,25.417 445.925,25.568C444.387,26.247 443.583,26.774 443.583,27.23L443.583,48.705L447.392,48.705C449.736,45.601 451.42,43.712 452.518,42.956C452.664,42.956 452.884,43.034 453.179,43.034C453.764,43.335 454.423,43.789 455.084,44.316C458.453,47.265 460.138,49.154 460.138,49.911C460.138,50.666 459.843,50.972 459.405,50.972L443.584,50.972L443.584,83.255L449.883,83.255C452.227,80.156 453.911,78.266 455.011,77.509C455.157,77.509 455.375,77.586 455.67,77.586C456.255,77.887 456.913,78.344 457.646,78.872" style="fill:rgb(89,47,20);fill-rule:nonzero;"/>
    </g>
</svg>
