<?xml version="1.0" encoding="utf-8"?>
<!-- Generator: Adobe Illustrator 15.0.0, SVG Export Plug-In . SVG Version: 6.00 Build 0)  -->
<!DOCTYPE svg PUBLIC "-//W3C//DTD SVG 1.1//EN" "http://www.w3.org/Graphics/SVG/1.1/DTD/svg11.dtd">
<svg version="1.1" id="圖層_1" xmlns="http://www.w3.org/2000/svg" xmlns:xlink="http://www.w3.org/1999/xlink" x="0px" y="0px"
	 width="470px" height="109px" viewBox="0 0 470 109" enable-background="new 0 0 470 109" xml:space="preserve">
<g>
	<path fill="#592F14" d="M43.314,70.114c-9.496,28.106-37.981,34.856-37.981,34.856s19.924-7.35,29.561-35.87
		C44.526,40.593,66.855,32.72,66.855,32.72S52.811,42.014,43.314,70.114"/>
	<path fill="#592F14" d="M68.22,49.578c-7.376,28.735-35.279,37.555-35.279,37.555s19.333-8.789,26.802-37.94
		c7.477-29.138,29.15-38.626,29.15-38.626S75.598,20.862,68.22,49.578"/>
	<path fill="#592F14" d="M129.515,25.192c0,0.603-1.319,0.982-3.81,1.132c-1.391,3.474-3.442,6.576-6.228,9.451h2.932
		c1.905-3.025,3.15-4.539,3.735-4.615c0.44,0,1.246,0.833,2.566,2.498c1.318,1.51,2.051,2.571,2.196,3.098
		c0,0.759-0.293,1.207-0.878,1.207h-10.185v11.419h1.392c1.758-2.947,2.931-4.458,3.443-4.535c0.368,0,1.1,0.833,2.273,2.493
		c1.17,1.515,1.831,2.496,1.977,3.105c0,0.755-0.293,1.204-0.879,1.204h-8.206v5.292c0,2.346-0.073,4.387-0.073,6.203h2.346
		c2.123-3.022,3.516-4.533,4.102-4.533c0.44,0,1.392,0.826,2.856,2.416c1.392,1.511,2.198,2.568,2.418,3.174
		c0,0.756-0.292,1.136-0.879,1.136h-10.917c-0.219,4.534-0.584,7.406-1.098,8.543c-0.66,2.574-1.759,4.913-3.368,7.031
		c-2.713,4.009-6.156,6.883-10.331,8.621c-0.366,0-0.513-0.306-0.513-0.834c3.005-3.021,5.202-6.505,6.667-10.585
		c1.026-2.646,1.758-6.881,2.124-12.699c-5.934,0.146-8.936,0.379-8.936,0.604c-0.441-0.912-0.954-2.267-1.468-3.935
		c1.027,0.379,4.47,0.683,10.476,0.984c0-1.74,0.076-3.551,0.076-5.443v-5.898c-5.129,0.151-7.767,0.377-7.767,0.529
		c-0.441-0.907-0.879-2.192-1.392-3.858c0.88,0.306,3.956,0.533,9.159,0.833V38.041c-6.009,0.151-9.014,0.379-9.014,0.609
		c-0.438-0.987-0.952-2.271-1.464-3.932c1.026,0.377,4.835,0.755,11.354,1.058h3.373c2.051-5.443,3.148-10.285,3.442-14.52
		C126.658,23.075,129.515,24.356,129.515,25.192 M115.008,31.087c0,2.496-1.025,3.781-3.003,3.781c-1.906,0-2.783-0.984-2.783-2.951
		c0-0.757-0.148-1.74-0.441-3.024s-0.659-2.719-1.099-4.309c-0.513-1.286-0.952-2.197-1.245-2.795
		c0.513-0.456,0.806-0.684,0.954-0.684C112.443,24.506,115.008,27.837,115.008,31.087 M149.293,25.795
		c0.294,0.301,0.514,0.452,0.66,0.602h9.305c1.392-2.041,2.564-3.323,3.443-3.779c0.586,0,1.76,0.604,3.516,1.738
		c1.903,1.363,2.933,2.347,2.933,3.024c0,0.457-0.442,0.985-1.321,1.513c-0.878,0.605-1.466,1.061-1.612,1.439v50.883
		c0,4.537-2.93,7.332-8.718,8.388c-0.439,0-0.733-0.527-0.878-1.433c-0.512-1.818-1.393-3.175-2.565-4.086
		c-1.758-1.134-2.929-1.735-3.517-1.892c0-0.07,0.075-0.449,0.075-1.206c1.977,0.301,4.614,0.453,7.91,0.453
		c1.027,0,1.613-0.529,1.613-1.586V56.792c-1.906,5.37-3.591,9.677-5.055,12.852c0,0.456,0.146,1.135,0.586,2.196
		c0,0.604-0.22,0.903-0.658,0.903c-0.514,0-2.638-1.811-6.447-5.44c4.615-3.629,8.497-8.243,11.574-13.912V28.366h-9.523
		c-0.293,0.3-0.514,0.453-0.734,0.605c-1.465,0.906-2.124,1.511-2.124,1.663v50.883c0,4.993-2.491,7.788-7.473,8.543
		c-0.807,0-1.32-0.605-1.466-1.663c-0.293-1.817-1.024-3.178-2.269-4.085c-1.393-0.906-3.078-1.584-5.057-2.118
		c0.073-0.07,0.148-0.527,0.148-1.282c3.221,0.305,5.934,0.455,8.205,0.455c1.172,0,1.831-0.685,1.831-2.045V56.868
		c-2.051,5.75-3.882,10.285-5.495,13.759c0,0.455,0.148,1.213,0.586,2.347c0,0.678-0.218,0.982-0.659,0.982
		c-0.513,0-2.784-1.888-6.887-5.823c4.983-3.854,9.084-8.769,12.455-14.742V28.366h-4.834c-3.079,0-5.056,0.227-6.081,0.605
		c-0.295-0.907-0.661-2.039-1.173-3.48c2.124,0.606,4.397,0.907,6.813,0.907h4.323c1.976-2.42,3.371-3.626,4.102-3.626
		C145.705,23.075,147.244,24.056,149.293,25.795 M139.845,46.587c-0.145,3.021-1.32,4.457-3.589,4.457
		c-1.613,0-2.493-0.905-2.493-2.796c0-0.451,0-0.908,0.074-1.364c0-0.755,0.073-1.662,0.148-2.644
		c-0.148-3.173-1.027-6.121-2.493-8.921c0.586-0.151,0.879-0.377,0.879-0.53C137.354,38.649,139.845,42.578,139.845,46.587
		 M158.013,46.436c-0.145,3.022-1.318,4.458-3.588,4.458c-1.613,0-2.492-0.906-2.492-2.795c0-0.456,0-0.906,0.073-1.435
		c0-0.755,0.074-1.59,0.146-2.646c-0.146-3.178-0.806-6.125-1.978-8.999c0.586-0.15,0.954-0.379,0.954-0.527
		C155.668,38.419,158.013,42.352,158.013,46.436"/>
	<path fill="#592F14" d="M184.736,24.963c1.756,0.527,2.637,0.905,2.637,1.211c0,0.378-0.367,0.679-1.027,0.978
		c-1.024,0.457-1.685,0.835-2.051,1.062l-0.366,25.858c0,17.011-2.489,28.656-7.473,34.928c-0.292-0.302-0.586-0.528-0.734-0.679
		c0.734-2.947,1.32-7.334,1.907-13.381c0.585-5.824,0.878-13.685,0.951-23.669l0.073-20.868c-0.146-2.794-0.293-5.064-0.439-6.724
		C180.852,24.13,183.049,24.584,184.736,24.963 M194.771,29.876c1.539,0.301,2.345,0.757,2.345,1.284
		c0,0.379-0.366,0.605-1.027,0.758c-1.098,0.456-1.612,0.753-1.612,0.91v32.507c0.074,6.732,0.148,11.417,0.221,14.142
		c0,1.058-1.318,1.585-3.88,1.585c-1.321,0-1.907-0.381-1.907-1.208c0.073-2.269,0.145-7.182,0.218-14.748V34.64
		c-0.145-1.968-0.365-3.857-0.511-5.669C190.524,29.271,192.573,29.575,194.771,29.876 M205.249,24.584
		c1.756,0.299,2.636,0.755,2.636,1.362c1.76,0.451,4.396,0.606,7.913,0.606h16.336c2.052-2.574,3.518-4.165,4.471-4.762
		c0.146,0,0.294,0.07,0.511,0.07c0.514,0.307,1.1,0.683,1.686,1.134c2.785,2.496,4.248,4.086,4.248,4.765
		c0,0.757-0.293,1.059-0.731,1.059h-14.873c-1.613,3.175-3.735,5.972-6.227,8.39h9.231c1.76-2.418,2.93-3.624,3.663-3.703
		c0.587,0.079,1.758,0.756,3.662,2.12c1.614,1.282,2.418,2.189,2.418,2.794c0,0.456-0.293,0.906-0.88,1.284
		c-0.878,0.756-1.463,1.283-1.61,1.592v18.599c0.219,7.258,0.364,11.866,0.364,13.985c0,1.512-1.169,2.345-3.514,2.345
		c-1.76,0-2.712-0.378-2.786-1.284v-1.889h-15.604v0.828c-0.293,1.512-1.684,2.267-4.028,2.267c-1.467,0-2.345-0.227-2.638-0.755
		c0-6.504,0.072-12.774,0.293-18.978V43.94c-0.146-5.291-0.293-8.468-0.588-9.529l7.036,2.797h2.709
		c0.734-2.569,1.319-5.363,1.684-8.39h-3.149c-4.541,0-7.328,0.301-8.425,0.908c-0.441-1.134-0.879-2.268-1.466-3.329
		c-0.22,0.225-0.513,0.377-0.88,0.377c-1.17,0.456-1.756,0.835-1.756,1.063v40.295c0.072,7.335,0.147,12.478,0.293,15.426
		c0,1.132-1.466,1.738-4.25,1.738c-1.467,0-2.125-0.456-2.125-1.284c0.073-2.571,0.146-7.938,0.22-16.183V29.798
		c-0.147-2.113-0.293-4.231-0.586-6.197C200.632,23.907,202.903,24.207,205.249,24.584 M221.438,79.099
		c1.833,1.354,2.785,2.189,2.785,2.568c0,0.456-0.295,0.755-0.806,0.833c-1.979-0.15-3.223-0.307-3.664-0.307
		c-3.955,3.781-10.183,6.354-18.682,7.717c0-0.684-0.145-0.983-0.293-0.983c7.033-2.647,12.528-6.804,16.557-12.628
		C218.069,76.753,219.387,77.738,221.438,79.099 M231.768,39.176h-15.604v8.771h15.604V39.176z M231.768,49.912h-15.604v9.375
		h15.604V49.912z M231.768,61.328h-15.604v9.755h15.604V61.328z M242.318,85.524c0,0.607-0.147,1.284-0.438,1.962
		c-0.222,0.911-1.027,1.44-2.346,1.74c-0.88,0-2.197-1.133-3.882-3.323c-3.736-3.78-7.4-6.426-10.917-7.938
		c0.147-0.155,0.292-0.533,0.512-1.134C236.605,78.564,242.318,81.441,242.318,85.524"/>
	<path fill="#592F14" d="M275.925,32.671c2.565,2.423,4.027,3.937,4.321,4.694c0,0.676-0.219,0.976-0.584,0.976h-16.266
		c-0.072,1.969-0.072,4.615-0.072,7.788c0,1.513-0.074,3.025-0.074,4.465h6.301c1.906-2.118,3.149-3.176,3.884-3.176
		c0.658,0.075,1.83,0.757,3.589,2.114c1.906,1.512,2.858,2.572,2.858,3.102c0,0.681-0.733,1.511-2.198,2.418
		c-0.586,0.379-0.881,1.061-0.881,2.117c-0.438,9.907-1.246,17.921-2.27,24.046c-1.099,5.363-4.104,8.089-8.938,8.089
		c-0.514,0-0.808-0.684-0.953-2.039c-0.147-0.835-0.585-1.668-1.172-2.425c-0.952-1.207-2.271-1.963-4.03-2.269
		c0-0.15,0.074-0.677,0.074-1.434c1.245,0.149,2.345,0.228,3.225,0.302c3.808,0,5.933-1.813,6.226-5.594
		c0.879-5.068,1.393-12.778,1.539-23.063h-7.327c-0.805,19.959-5.494,32.285-13.991,37.198c0-0.15-0.148-0.527-0.368-1.132
		c5.274-7.333,7.914-21.17,7.914-41.584c0-1.811,0.071-4.838,0.071-8.924c-2.929,0-5.202,0.229-6.74,0.607
		c-0.292-0.907-0.584-1.89-1.025-3.025c1.539,0.307,4.251,0.53,8.059,0.53h13.554c1.023-1.511,2.051-2.795,3.077-3.933
		c0.366-0.376,0.66-0.602,0.807-0.602C274.825,31.918,275.265,32.224,275.925,32.671 M263.544,23.53
		c2.783,1.96,4.248,4.229,4.248,6.873c-0.073,1.82-0.513,3.025-1.39,3.633c-0.585,0.528-1.394,0.754-2.419,0.754
		c-1.317,0-2.124-1.362-2.492-4.081c-0.584-2.423-1.098-4.234-1.685-5.447c-0.584-0.977-1.318-2.04-2.271-3.095
		c0.147-0.229,0.367-0.535,0.66-0.912C260.394,21.791,262.152,22.543,263.544,23.53 M291.018,47.871
		c5.494-2.569,9.891-5.742,13.186-9.679c4.617,3.403,6.962,5.37,6.962,5.826c0,0.299-0.22,0.379-0.512,0.379h-2.493
		c-2.784,1.961-6.081,3.401-9.891,4.229c0.658,5.748,1.757,10.662,3.224,14.818c2.565-2.944,4.835-6.502,6.885-10.731
		c4.912,3.701,7.401,5.818,7.401,6.274c0,0.757-0.367,1.059-1.098,1.059c-1.539-0.229-2.713-0.377-3.444-0.377
		c-2.49,2.344-5.493,4.306-8.937,5.894c1.611,4.011,3.515,7.262,5.785,9.83c2.638,2.722,5.568,4.914,8.645,6.582l-0.22,1.512
		c-0.439,0-0.952,0.148-1.611,0.451c-0.879,0.753-1.463,1.588-1.757,2.573c-0.44,1.962-1.028,3.022-1.832,3.022
		c-0.879,0-3.006-2.345-6.448-6.96c-4.836-6.953-7.692-18.143-8.495-33.491c-1.907,0.377-3.813,0.605-5.719,0.755v30.089
		c3.665-0.604,6.521-1.51,8.574-2.646c0.294,0.458,0.514,0.906,0.658,1.213c-3.369,3.023-9.01,5.899-17.068,8.922
		c-0.368,2.188-0.809,3.323-1.393,3.323c-0.439,0-1.024-1.057-1.687-3.021c-0.733-1.964-1.465-4.461-2.197-7.411
		c1.318,0.305,3.37,0.454,6.08,0.454V51.201c-0.073-1.668-0.291-4.008-0.584-7.183C285.961,45.455,288.673,46.738,291.018,47.871
		 M296.805,24.814c0,1.054-1.32,1.661-3.956,1.889c-0.879,2.115-1.831,4.079-2.714,5.817h13.263
		c1.905-2.722,3.224-4.306,3.957-4.835c0.146-0.076,0.292-0.156,0.439-0.156c0.584,0.23,1.539,0.987,2.93,2.197
		c1.831,1.813,2.857,3.025,3.076,3.63c0,0.756-0.219,1.208-0.51,1.283h-24.324c-2.783,4.615-5.863,8.166-9.232,10.735
		c-0.438-0.376-0.879-0.68-1.318-0.828c3.956-6.205,6.668-14.213,8.279-23.892C293.434,22.921,296.805,24.286,296.805,24.814"/>
	<path fill="#592F14" d="M323.672,64.278c-0.291-0.376-0.658-0.755-1.023-1.209c8.424-7.411,14.723-16.331,18.973-26.915
		c5.933,2.119,8.938,3.627,8.938,4.535c0,0.606-1.318,1.054-3.957,1.209c-1.904,3.324-4.03,6.428-6.521,9.147v29.566
		c0.146,1.811,0.294,4.158,0.294,7.252c0,1.137-1.317,1.74-3.958,1.892c-2.048,0-3.146-0.222-3.146-0.679
		c0-1.282,0.072-4.236,0.072-8.92V57.549C330.339,60.044,327.117,62.312,323.672,64.278 M347.336,25.64
		c-0.074,0.685-1.391,1.063-4.029,1.134c-3.81,5.449-9.891,10.591-18.242,15.426c-0.44,0-0.804-0.151-1.245-0.302
		c8.058-6.956,12.966-13.835,14.726-20.716C344.406,23.449,347.336,24.963,347.336,25.64 M383.821,40.765
		c3.223,2.875,4.981,4.765,5.346,5.67c0,0.68-0.22,0.984-0.514,0.984h-12.965v32.962c0,5.371-3.004,8.468-9.011,9.3
		c-0.588,0-1.101-0.755-1.393-2.266c-0.586-1.968-1.906-3.33-3.957-4.009c-1.903-0.906-3.589-1.511-5.127-1.965
		c0-0.379,0-0.76,0.146-1.209c2.271,0.221,5.641,0.449,10.183,0.679c1.467,0,2.274-0.606,2.274-1.89V47.419h-11.723
		c-3.006,0-5.349,0.223-7.035,0.601c-0.292-0.905-0.586-1.89-0.951-3.022c1.537,0.304,4.176,0.532,7.986,0.532h20.292
		c1.32-1.89,2.565-3.557,3.884-4.992c0.364-0.456,0.658-0.684,0.952-0.684C382.501,39.854,383.014,40.16,383.821,40.765
		 M379.864,22.994c2.931,2.726,4.616,4.464,5.056,5.372c0,0.677-0.22,0.982-0.587,0.982H360.23c-3.003,0-5.349,0.228-7.033,0.606
		c-0.294-0.911-0.586-1.891-0.953-3.022c1.538,0.298,4.177,0.449,7.986,0.449h13.627c1.172-1.661,2.418-3.251,3.589-4.61
		c0.367-0.383,0.66-0.604,0.88-0.604C378.618,22.167,379.133,22.467,379.864,22.994"/>
	<path fill="#592F14" d="M423.288,34.79c1.318,1.212,2.124,2.117,2.271,2.646c-0.074,0.605-0.587,1.134-1.612,1.439
		c-1.395,0.601-2.125,0.979-2.271,1.285c-1.906,4.838-4.47,9.072-7.546,12.781v1.811c8.06,1.284,12.233,4.386,12.601,9.221
		c0,0.912-0.146,1.67-0.293,2.27c-0.514,1.213-1.318,1.817-2.491,1.817c-1.172,0-2.71-1.592-4.763-4.841
		c-1.536-2.42-3.222-4.538-5.054-6.277v24.425c0.146,1.738,0.292,4.157,0.292,7.18c0,1.208-1.316,1.813-3.955,1.969
		c-2.125,0-3.225-0.306-3.225-0.761c0.075-1.208,0.148-4.158,0.148-8.843V59.518c-3.372,2.72-7.109,5.063-11.357,7.03
		c-0.074-0.15-0.294-0.456-0.733-0.905c4.689-3.254,8.719-7.26,12.234-12.023c3.885-5.599,6.522-10.963,7.915-16.103h-9.379
		c-3.517,0.069-6.374,0.228-8.645,0.525c-0.439-1.056-0.881-2.117-1.244-3.173c2.417,0.529,5.713,0.757,9.817,0.757h8.863
		c2.197-2.575,3.662-3.859,4.395-3.859C420.21,32.144,421.529,33.129,423.288,34.79 M409.955,23.151
		c3.224,1.733,4.835,3.781,4.835,6.12c-0.075,1.817-0.514,3.021-1.392,3.708c-0.587,0.449-1.392,0.679-2.492,0.679
		c-1.612,0-2.639-1.206-3.223-3.633c-0.659-2.115-1.393-3.778-2.123-4.913c-0.587-0.982-1.321-2.038-2.274-3.099
		c0.148-0.223,0.439-0.531,0.733-0.908C406.438,21.56,408.418,22.239,409.955,23.151 M457.646,78.872
		c3.298,2.946,4.984,4.762,4.984,5.591c0,0.685-0.292,1.062-0.735,1.062h-31.574c-5.787,0-9.377,0.3-10.77,0.905
		c-0.512-1.361-1.102-2.724-1.758-3.93c2.125,0.451,5.787,0.755,10.989,0.755h7.838V50.972h-3.443c-4.836,0-7.766,0.299-8.936,0.906
		c-0.514-1.362-1.1-2.646-1.689-3.93c1.615,0.528,4.472,0.757,8.502,0.757h5.566v-18.75c0-3.63-0.146-6.506-0.44-8.699
		c7.328,1.132,11.063,2.117,11.063,2.95c0,0.757-0.438,1.211-1.318,1.362c-1.538,0.679-2.342,1.206-2.342,1.662v21.475h3.809
		c2.344-3.104,4.028-4.993,5.126-5.749c0.146,0,0.366,0.078,0.661,0.078c0.585,0.301,1.244,0.755,1.905,1.282
		c3.369,2.949,5.054,4.838,5.054,5.595c0,0.755-0.295,1.061-0.733,1.061h-15.821v32.283h6.299c2.344-3.099,4.028-4.989,5.128-5.746
		c0.146,0,0.364,0.077,0.659,0.077C456.255,77.887,456.913,78.344,457.646,78.872"/>
</g>
</svg>
