<?xml version="1.0" encoding="utf-8"?>
<!-- Generator: Adobe Illustrator 15.0.0, SVG Export Plug-In . SVG Version: 6.00 Build 0)  -->
<!DOCTYPE svg PUBLIC "-//W3C//DTD SVG 1.1//EN" "http://www.w3.org/Graphics/SVG/1.1/DTD/svg11.dtd">
<svg version="1.1" id="圖層_1" xmlns="http://www.w3.org/2000/svg" xmlns:xlink="http://www.w3.org/1999/xlink" x="0px" y="0px"
	 width="365px" height="290px" viewBox="0 0 365 290" enable-background="new 0 0 365 290" xml:space="preserve">
<path fill="#C29875" d="M261.906,175.082c0,0-0.755,2.827-6.031,3.267c0,0-1.884,0.063-2.637-0.502c0,0-1.006-0.754-1.76-0.754
	c0,0-0.344-1.257,0.348-1.226c0,0,0.375-0.533-0.348-0.564c0,0-0.22-0.314,0.252-0.535c0,0,0.627-0.313,0.375-0.532
	c0,0,0.032-0.472-0.439-0.347c0,0-0.658-0.188-0.815,0.252c0,0-0.534-0.189-0.943,0.219c0,0-0.909,0-0.942-0.188
	c0,0,0-0.502-0.658-0.723c0,0-0.408-0.816,0.188-0.879c0,0,0.095-0.471-0.345-0.597c0,0-0.19-0.158-0.19-0.409
	c0,0-0.281-0.219-0.47,0.157c0,0-0.221,0.472-0.723,0.472c0,0-0.912,0.063-0.943,0.534c0,0-0.188,0.22-0.656,0.22
	c0,0-2.2-0.22-2.702-1.006c0,0-0.096-0.722,0.313-1.004c0,0,0.565-0.534,0.251-0.912c0,0,0.126-0.564-0.251-0.659
	c0,0-0.032-0.533-0.346-0.659c0,0-0.974,0.031-1.602,0.566c0,0-0.565,0.093-1.162,0.093c0,0-0.723,0.095-0.941,0.346
	c0,0-0.379,0.284-0.567,0.284c0,0-0.501-0.252-0.501,0.155c0,0,0.094,0.409-0.126,0.534c0,0-0.564,0.503-0.472,0.723
	c0,0-0.281,1.037,0.251,1.319c0,0,0.629,0.126,0.599,1.382c0,0,0.47,0.219,0.564,0.127c0,0,0.66,0,0.723,0.407
	c0,0,1.476,0.501,1.255,1.161c0,0-0.438,1.319-0.344,1.635c0,0-0.03,0.941,0.439,1.161c0,0,0.093,1.036,0.409,1.224
	c0,0,0.691,0.912,0.375,2.136c0,0-0.627,2.011-0.973,2.104c0,0-0.911-0.094-1.257,0.408c0,0-1.382,2.324-0.69,2.732
	c0,0,0.533,0.188,0.754,0.156c0,0,0.975,0.189,0.754,1.037c0,0-0.85,2.826-1.225,3.078c0,0-1.005,0.282-0.975,0.754
	c0,0,0.031,0.691,0.785,0.691c0,0,0.88-0.031,1.225,0.282c0,0,1.038,0.409,1.1,0.847c0,0,1.445-0.156,1.854,0.189
	c0,0,1.35-0.314,1.475,0.723c0,0,0,1.256-0.22,1.664c0,0-0.251,1.004,0.252,0.973c0,0,0.628,0.346,0.44,0.598
	c0,0-0.282,0.816-0.127,1.005c0,0,0.188,1.413-0.061,1.602c0,0-0.41,0.911,0.219,0.974c0,0,0.94,0.156,1.287,0.188
	c0,0,0.755,0.158-0.096,0.408c0,0-1.631,0-1.663,0.66c0,0,0.032,2.402-0.108,2.545c0,0-0.285,1.13-0.285,1.601
	c0,0,0.191,1.978-0.046,2.12c0,0-0.376,1.649-0.566,1.744c0,0-0.328,0.801-0.328,1.176c0,0-0.048,0.707-0.284,0.707
	c0,0-0.329,0.658-0.047,1.178c0,0,0.896,0.424,1.413,0.377c0,0,0.942-0.234,1.132-0.094c0,0,1.272,0,1.648-0.141
	c0,0,1.319,0.376,0.943,0.518c0,0-1.039,0.281-1.508,0.094c0,0-0.988-0.283-1.603,0.096c0,0-1.177-0.143-1.603,0.422
	c0,0-0.847,1.838-1.177,2.402c0,0-0.284,0.519-0.235,1.037c0,0,0.188,2.119,0.424,2.875c0,0,0.659,2.07,0.377,2.307
	c0,0,0.094,0.66,0.519,0.801c0,0,0.644,1.164,0.644,2.012c0,0,0.313,1.255,0.533,1.412c0,0,0.755,2.512,0.535,2.701
	c0,0,0.094,0.912,0.377,1.068c0,0,0.723,1.57,0.627,2.039c0,0,0.535,2.045,0.346,2.199c0,0,0.533,1.226,1.131,0.535
	c0,0,1.005-0.816,1.602-0.723c0,0-1.444,1.255-2.137,1.288c0,0,0.315,1.194,0.127,1.227c0,0-0.44,0.472,0,1.319
	c0,0,0.974,3.344,0.927,4.475c0,0,0.423,1.648,0.141,2.072c0,0-0.046,3.063,0.234,3.109c0,0,0.269,3.125,0.111,3.125
	c0,0,0.251,2.418-0.063,2.576c0,0-0.032,1.568,0.252,1.979c0,0,0.346,1.16,0,1.35c0,0-0.439,1.414-1.696,1.57
	c0,0-0.724-0.252-0.597-0.881c0,0,0-0.154-0.409-0.094c0,0-1.066-0.092-1.382,0.16c0,0-0.377,0.281-0.627,0.25
	c0,0-0.408,0.063-0.535,0.127c0,0-0.612,0.549-0.628,0.672c0,0-0.862,1.021-0.973,1.021c0,0-0.313,0-0.47-0.016
	c0,0,0.141,0.631,0.076,0.738c0,0-0.076,0.52,0.127,0.611c0,0,0.738,0.977,0.644,1.508c0,0,0.079,2.061-0.329,2.311
	c0,0-0.597,0.912-0.691,1.193c0,0-1.352,1.697-1.304,2.027c0,0-0.243,0.736-0.268,1.184c0,0-0.257,1.082-0.825,1.105
	c0,0-0.305,0.332-0.187,0.637c0,0,0.211,1.555-0.047,1.648c0,0,0.282,0.754,0.517,0.871c0,0,0.85,0.777,1.107,0.803
	c0,0,0.26,0.303,0.188,0.539c0,0,0.024,0.59,0.285,0.756c0,0,0.376,0.66,0.141,1.082c0,0-0.401,0.236-0.166,0.826
	c0,0,0.071,0.775,0.379,0.967c0,0,1.059,1.035,1.084,1.363c0,0,0.658,0.447,1.012,0.377c0,0-0.188-0.822-0.025-1.365
	c0,0,0.025-1.178-0.259-1.484c0,0-0.47-1.105-0.117-1.461c0,0,0.14-0.211,0.14-0.586c0,0,0.236-0.686,0.543-0.686
	c0,0,0.331-0.211,0.165-0.588c0,0,0.612-1.391,1.013-1.365c0,0,2.12-0.943,5.041-0.66c0,0,0.4,0.635,0.824,0.611
	c0,0,0.283,0.611,1.014,0.59c0,0,0.613,0.164,0.801,0.354c0,0,1.626,0.281,1.861,0.117c0,0,0.329-0.59,0.707-0.59
	c0,0,0.635-0.068,0.706-0.377c0,0,0.233-0.4,0.047-0.609c0,0,1.084,0.303,1.319-0.285c0,0,2.542-0.117,2.921,0.211
	c0,0,1.837,0.566,2.026,0.943c0,0,0.564-0.117,0.706-0.096c0,0,0.021-0.66-0.119-0.941c0,0,0.826-0.471,0.826-0.68
	c0,0,0.354-0.379-0.497-0.639l-0.021-0.686l0.047-0.092c0,0,1.106-0.564,1.247-0.66c0,0,4.335-1.201,8.245,3.533
	c0,0-0.119,0.85,0.26,0.85c0,0,1.365,1.389,1.435,1.838c0,0,0.166,0.492-0.046,0.492c0,0,0.094,0.732,0.376,0.686
	c0,0,0.636-0.096,0.636-0.379c0,0,0.307-0.236,0.59-0.26c0,0,0.281-0.422,0.211-0.729c0,0,0.189-0.59,0.401-0.615
	c0,0,0.024-0.586-0.187-0.682c0,0-0.19-0.424,0.281-0.4c0,0,1.529-0.328,2.167-0.047c0,0,0.635,0.07,0.823-0.258
	c0,0,0.755-0.283,0.732-0.496c0,0,0.352-0.234,0.799,0.143c0,0,5.183,2.779,5.982,4.051c0,0-0.071,1.107,0.426,1.271
	c0,0,0.328,0.543,0.211,0.871c0,0,1.933,1.648,1.907,2.428c0,0-0.165,0.941,0.071,1.223c0,0,0.731,1.721,0.967,1.838
	c0,0,0.233,0.447,0.989,0.426c0,0,0.823-0.096,1.013,0.188c0,0,1.343,0.328,1.459-0.166c0,0,0.543-0.518,1.06-0.518
	c0,0,0.142-0.213,0.142-0.447c0,0-0.234-0.824,0-0.92c0,0,0.165-0.705-0.234-0.848c0,0-1.131-1.27-0.541-2.707
	c0,0,0.541-1.885,0.871-1.93c0,0,0.4-0.262,0.306-0.615c0,0,0.519-0.846,0.776-0.916c0,0,0.754-0.896,0.731-1.133
	c0,0,0.188-0.33,0.612-0.355c0,0,0.423-0.232,0.494-0.801c0,0,0.423-0.258,0.66-0.305c0,0,0.4-0.188,0.328-0.635
	c0,0-0.211-0.826,0.141-0.873c0,0,0.096-0.824-0.445-1.178c0,0-0.519-0.4-0.824-0.258c0,0-0.59-0.283-0.143-0.541
	c0,0,1.366-0.307,1.366-0.637c0,0,0.612-0.52,0.778-0.52c0,0,0.517-0.518,0.188-0.684c0,0-0.447-0.172-0.008-0.52
	c0,0,1.318-3.264,1.383-4.111c0,0,0.816-4.146,1.225-4.461c0,0,0.91-1.506,0.863-2.684c0,0-0.093-2.637,0.659-2.969
	c0,0,2.216-3.723,2.026-4.285c0,0,0.706-1.557,1.272-1.557c0,0,0.424-0.141,0.565-0.658c0,0,0.234-1.227,0.942-1.227
	c0,0,0.894-1.602,1.177-3.201c0,0-0.189-0.283-0.753-0.189c0,0,0.141-1.365,0.425-1.461c0,0,0.28-0.328-0.049-0.611
	c0,0,0.141-0.564,0.518-0.66c0,0,0.19-1.131-0.047-1.412c0,0,0.142-0.941,0.424-1.18c0,0,1.271-2.826,0.896-3.721
	c0,0-1.082-1.367-0.753-1.603c0,0,0.14-0.753-0.566-1.226c0,0,0.095-1.414,0.613-1.414c0,0,2.119,0.38,2.214-0.234
	c0,0-0.048-1.508,0.188-1.648c0,0,0.423-0.612-0.236-0.754c0,0-0.564,0,0.095-0.426c0,0,0.564-0.188,0.564-0.893
	c0,0-0.188-0.754,0.188-0.849c0,0,0.189-0.376-0.422-0.661c0,0-0.096-0.801,0.188-1.318c0,0,0.47-1.506,0.659-1.696
	c0,0-0.614-0.424-1.037-0.28c0,0-0.52-3.064-0.188-3.487c0,0,1.603-2.027,1.459-2.592l0.19-0.753c0,0-0.047,1.178,0.706,1.178
	c0,0,1.131,0.328,1.462,0.801c0,0,1.223,0.139,1.459-0.849c0,0,0.424-0.755-0.236-1.226c0,0-0.329-0.377-0.989-0.281
	c0,0,0.096-0.236-0.188-0.567c0,0,1.413-0.799,1.413-1.223c0,0,1.649-1.177,1.672-1.438c0,0,1.155-1.46,1.485-1.508
	c0,0-0.802-1.343-1.392-1.437c0,0-0.66-0.258-0.141-0.4c0,0,1.697,0.66,1.884,1.461c0,0,0.496,0.211,0.564-0.164
	c0,0-0.093-0.613,0.19-0.66c0,0,0.8-0.731,0.8-0.966c0,0,0.142-0.401,0.331-0.448c0,0,0.07-0.258-0.283-0.518
	c0,0-0.165-0.612,0.188-0.801c0,0,0.683-0.447,0.707-0.636c0,0-0.118-0.542-0.542-0.613c0,0-0.189-0.282,0.188-0.306
	c0,0,0.439-0.188,0.689-0.03c0,0,0.126-0.409-0.157-0.503c0,0,0.472-0.378,0.692,0.062c0,0,0.439,0.314,0.47-0.439
	c0,0,0.378-0.565,0.975-0.251c0,0,0.409,0.22,0.44-0.252c0,0-0.313-0.848,0.157-1.004c0,0,1.443-1.413,0.658-3.078
	c0,0-0.439-0.377-1.067-0.252c0,0-1.131-0.281-1.225-0.816c0,0-0.974-0.407-1.54,0.033c0,0-0.313,0.156-0.563-0.158
	c0,0-0.628-0.439-1.54-0.313c0,0-1.476,0.313-1.6,0.03c0,0-0.629-0.69-1.603-0.848c0,0-3.259-1.57-3.503-2.445
	c-0.01-0.033-0.015-0.066-0.015-0.098c0-0.848-0.441-0.942-1.006-1.225c0,0-2.575-0.881-2.575-1.32c0,0-2.857-2.449-2.889-3.172
	c0,0-0.283-0.66-0.504-0.754c0,0-0.346-0.313-0.283-0.814c0,0,0.064-0.472,0.504-0.126c0,0,0.629,0.753,1.036,0.659
	c0,0,0.407,0.564,0.44-0.063c0,0-0.095-0.627,0.25-0.502c0,0,0.221-0.313,0.221-0.753c0,0,0.062-0.566-0.283-0.723
	c0,0-0.063-0.754,0.252-0.88c0,0,0.406-0.532,0.377-1.067c0,0,0.534-0.816,0.564-1.759c0,0,0.221-1.382-0.156-2.04
	c0,0-0.189-0.787,0.094-0.943c0,0,0.817-0.502-0.031-1.318c0,0-1.067-0.346-1.414,0.063c0,0-0.564,0.252-0.721-0.063
	c0,0-0.881-0.471-0.881-0.816c0,0-0.063-0.754-0.691-0.629c0,0-2.574,0.189-2.606-0.063c0,0-0.407-0.627-0.532-0.785
	c0,0-0.473-0.251-0.723,0.031c0,0-1.287-0.282-2.042-0.094c0,0-0.346,0.063-0.376-0.314c0,0,0.125-0.597-0.566-0.597
	c0,0-0.815-0.125-0.849-0.345c0,0,0.157-0.283-0.563-0.283c0,0-0.911,0.503-1.383,0.377c0,0-0.911,0.031-1.383,0.282
	c0,0-0.973,0.378-1.317,0.095c0,0-1.916,0.534-2.167,0.189c0,0-0.41-0.284-0.756-0.284c0,0-0.563-1.13-0.248-1.287
	c0,0,0.248-0.659-0.223-0.974c0,0-0.156-1.193,0-1.444c0,0,0.032-0.313-0.471-0.378c0,0-0.47-0.345-0.564-0.628
	c0,0-0.125-0.628-0.785-0.69c0,0-0.599,0.031-0.785-0.281c0,0-0.408-0.629-1.477-0.504c0,0-1.227,0.346-1.601,0.629
	c0,0-0.63,0.124-0.818-0.252c0,0-0.815-0.533-1.569-0.125c0,0-0.346-0.063-0.346-0.502c0,0-0.125-0.66-0.598-0.691
	c0,0-0.532-0.126-0.69-0.503c0,0-0.628-0.126-1.005,0.22c0,0-0.596-0.032-0.565-0.564c0,0-1.224,0.031-1.067,0.691
	c0,0,0.033,0.407-0.314,0.563c0,0-5.15,4.146-5.686,4.962c0,0-2.355,2.639-2.605,2.67c0,0-0.533,0.723-0.942,0.598
	c0,0-0.188-0.629-0.597-0.346c0,0-0.564,0.973-1.38,0.941c0,0-1.227,0.252-1.257-0.063c0,0-0.093-0.439-0.91-0.408
	C265.361,175.775,262.188,175.771,261.906,175.082z"/>
<path fill="#C29875" d="M31.885,69.272c0,0-1.479,2.855-3.248,2.855c0,0-1.085-0.198-2.463,0.786c0,0-1.081,0.198-1.379-0.786
	c0,0-0.983-1.773-2.263-1.97l-0.395-0.099c0,0,0-1.476-1.28-1.476c0,0-1.871,0.59-1.871-0.296c0,0-0.883-0.591-2.064-0.591
	c0,0-0.593-1.083-1.576-2.165c0,0-0.789-0.885-1.575-0.296c0,0-0.688-1.279-2.657-0.688c0,0-1.281,0.688-1.774,0.295
	c0,0-0.193-0.787-1.573,0c0,0-1.871,1.083-1.675,2.561c0,0,1.083,3.544,0.492,4.331c0,0-0.492,3.544-0.1,4.036
	c0,0,0.395,2.364-0.097,2.758c0,0-0.887,1.967,0.196,2.558c0,0,2.756,1.575,1.772,5.022c0,0-0.541,3.001,0.101,3.494
	c0,0,0.689,2.609,0.195,3.199c0,0-0.837,1.872-0.64,2.117c0,0-0.491,2.067,0.394,2.658c0,0,0.981,2.265,0.592,2.904
	c0,0-0.592,2.313,0.048,2.559c0,0,0.885,2.117,0.048,2.708c0,0-0.885,2.363,0.446,2.707c0,0,2.164,1.428,1.574,2.265
	c0,0-1.035,3.151,0.441,3.938c0,0,1.97,1.477,1.772,2.953c0,0,0,1.132,0.738,1.231c0,0,1.083,0.542,1.083,1.23
	c0,0,1.035,1.97,3.101,1.527c0,0,1.872-0.493,2.759-0.099c0,0,0.836,0.443,1.773-0.443c0,0,0.834-1.034,1.278-0.985
	c0,0,1.081-0.689,1.574-1.131c0,0,2.411-0.247,3.247,1.524c0,0,0.79,0.395,1.429-1.083c0,0,0.69-1.476,2.166-1.181
	c0,0,2.117-1.871,4.331,0.689c0,0,1.28,0.639,1.477,0.394c0,0,0.838-0.689,0.248-1.28c0,0-0.493-0.492-1.38-0.492
	c0,0-0.689-0.394-0.147-0.64c0,0,0.688-0.344,0.444-0.788c0,0,0.243-0.738,0.688,0.099c0,0,1.034,0.59,0.984,1.279
	c0,0-0.297,0.493,0.295,0.887c0,0-0.493,1.624-1.23,1.525c0,0-0.246,1.182,0.05,1.28c0,0-0.296,1.28,0.442,1.429
	c0,0,0.788,0.294,1.033,1.131c0,0,0.494,0.591,1.283,0.295c0,0,0.688-0.541,1.228-0.394c0,0,0.147-0.59,0.788-0.59
	c0,0,1.379,0.147,1.279,0.688c0,0,0.051,1.034,0.592,1.083c0,0,0.248,0.443-0.147,0.739c0,0,0.049,0.739,0.836,0.048
	c0,0,0.393-0.886,0.839-0.738c0,0,1.033-0.099,1.08-0.591c0,0,0.101-1.624,0.985-1.525c0,0,0.984,0.444,1.649-0.516
	c0,0,1.055-0.172,1.204,0c0,0,1.01-0.024,1.083,0.271c0,0,0.715,0.837,1.206,0.739c0,0,0.985-0.025,1.084-0.197
	c0,0,0.346-0.64,0.837-0.345c0,0,1.476,0.172,1.599-0.171c0,0,0.442-0.592,0.765-0.566c0,0,0.516-0.222,0.516-0.74
	c0,0,0.715-0.27,0.861,0.395c0,0,1.404,2.756,1.798,2.805c0,0,0.639,0.887,0.713,1.428c0,0,0.248,0.296,0.764,0.048
	c0,0,0.812,0.051,0.86,0.419c0,0,0.667,0.665,0.125,0.468c0,0-0.715-0.321-0.913,0c0,0-0.491,1.107,0.074,1.131
	c0,0,0.591,0.099,0.887,1.132c0,0,1.132,3.299,2.017,4.086c0,0,0.493,3.297,0.249,3.889c0,0-0.396,0.443-0.89,0.443
	c0,0-0.787,0.493-1.574,0.345c0,0-0.59,0.245-0.196,0.443c0,0,0.886,0.246,0.886,0.541c0,0,0.297,0.639,0.838,0.344
	c0,0,1.279,0.149,1.081,1.231c0,0,0.985,1.575,0.645,3.15c0,0,0.095,3.297,0.588,3.396c0,0,0.295,1.428-0.542,2.265
	c0,0-1.673,4.186-2.904,4.873c0,0-2.509,4.677-2.905,4.823c0,0-0.245,0.493-0.886,0.395c0,0-0.54-0.294-0.885-0.639
	c0,0-0.197,0.049,1.082,1.428c0,0,4.577,3.101,4.577,4.134c0,0,0.05,1.133-0.294,1.429c0,0-0.589,1.771-0.346,2.018
	c0,0-0.342,1.033,0.299,1.28c0,0,2.999,2.019,3.789,3.643c0,0,2.41,3.347,2.311,3.987c0,0-0.344,0.886,0.25,1.082
	c0,0,0.344,0.297,0.541,1.28c0,0,2.214,6.744,1.722,8.122c0,0-0.098,1.378,0.395,1.525c0,0,0.146,0.591-0.248,0.642
	c0,0-0.244,0.638,0.148,0.983c0,0,1.279,0.984,0.147,1.723c0,0-1.281,1.674-1.133,2.066c0,0-0.787,1.674-1.377,1.674
	c0,0-0.59,0.345-0.146,0.738c0,0,0.934,1.182,0.885,1.576c0,0,0.736,0.148,0.936-0.345c0,0,0.736-0.936,1.477-0.345
	c0,0,1.625,0.641,1.968,1.131c0,0,0.495,0.395,0.59-0.49c0,0,0.492-0.936,0.839-0.936c0,0,0.345-0.641-0.05-0.887
	c0,0-0.789-0.935-0.543-1.82c0,0-0.341-1.033,0.198-1.231c0,0,0.739-1.378,1.675-0.542c0,0,0.589,0.099,1.23,0.346
	c0,0,0.194-0.395-0.05-0.837c0,0-0.541-1.724,0.49-1.821c0,0,0.839,0.098,0.938,0.787c0,0,0.245,0.838,0.984,0.689
	c0,0,0.886-0.246,1.13,0.295c0,0,0.889,0.641,0.937-0.344c0,0,0.051-1.034-0.342-1.133c0,0-0.2-1.033,0.834-0.688
	c0,0,1.085,0.836,1.526,0.541c0,0,0.64-0.59,0.542-0.983c0,0-0.051-0.689,0.246-0.74c0,0,0.49-1.082,1.033-0.196
	c0,0,0.737,0.247,0.69-0.245c0,0,0.394-0.592-0.297-0.788c0,0-0.789-0.985-0.345-1.28c0,0-0.837-0.689-0.146-1.131
	c0,0,0.146-0.936-0.05-1.232c0,0,0.491,0.197,0.983-0.344c0,0,0-1.083-0.589-1.28c0,0,0.689-0.787-1.872-1.181
	c0,0-2.757-0.591-3.101-1.379c0,0,1.573,0.985,3.396,0.592c0,0,2.166,0.246,2.709,1.377c0,0,1.278,0.985,1.92,0.985
	c0,0,0.639-0.788,0.148-1.379c0,0-0.594-1.132,0.738-1.033c0,0,0.589-0.199,0.589-0.789c0,0,1.134-0.296,1.281,0.345
	c0,0,0.196,0.639,1.181,0.344c0,0,1.427,0.641,1.576,1.33c0,0,1.13,0.639,1.622-0.494c0,0,0.642-1.082,1.772-0.836
	c0,0,1.131,1.182,1.869,0.984c0,0,0.888,0.641,1.331,1.574c0,0,1.329,1.183,1.377,0.051c0,0,0.739-0.738,1.331-0.838
	c0,0,0.146-0.984-0.198-1.23c0,0,0.294-0.935,0.937-0.935c0,0,0.737-0.246,0.737-1.23c0,0-0.146-1.624,1.183-1.576
	c0,0,0.785,0.591,1.772-0.048c0,0,0.54-1.771,1.524-1.575c0,0,0.543,0.983,1.576,0.295c0,0,0.244-1.133,0.984-1.083
	c0,0,0.443-0.492,0.443-0.936c0,0,0.541-0.936,1.18-0.936c0,0,0.198-0.098,0.148-0.787c0,0,0.197-0.838,0.886-0.689
	c0,0,0.541-0.936-0.588-1.132c0,0-0.199-0.739,0.638-0.983c0,0,0.539-0.395,0.936-0.1c0,0,1.378,0.148,1.575-0.443
	c0,0,1.129-0.542,1.129-1.231c0,0-0.487-1.032,0.249-0.983c0,0,0.542,0.196,0.542,0.344c0,0,0.688,0.147,0.688-0.541
	c0,0,0.148-0.69,1.033-0.69c0,0,0.739-0.345,0.739-1.133c0,0,0.394-1.329,1.231-1.378c0,0,0.885,0.049,0.786-0.836
	c0,0,0.592-0.492,0.295-1.183c0,0-0.146-0.493-0.54-0.591c0,0-0.198-0.886,0.148-1.033c0,0,0.146-1.133-0.445-1.379
	c0,0-1.328-0.786-2.215-0.689c0,0-2.903-0.245-2.019-0.491c0,0,2.265,0,2.265-0.689c0,0,0.296-0.147,0.983,0.541
	c0,0,0.643,0.788,1.431,0.148c0,0,1.723-0.739,0.246-1.429c0,0-1.134-0.492-0.984-0.984c0,0-0.248-0.196-1.035,0
	c0,0-0.591-0.296-1.478-0.689c0,0-0.294-0.049-1.033,0.099c0,0-1.134-0.542,0.147-0.739c0,0,0.692-0.246,1.871,0.295
	c0,0,1.969,0.936,2.362,0.738c0,0,0.887,0.197,1.034,0.739c0,0,0.936,0.197,1.281,0.148c0,0,1.426,0.441,0.59-0.641
	c0,0-0.493-0.198-0.344-0.79c0,0-0.838-0.491-1.281,0.051c0,0-0.541-0.789,0.346-1.035c0,0,1.327,0.788,1.77,0.246
	c0,0,1.184,0.197,1.478-0.098c0,0,0.442-0.887,1.328-0.148c0,0,0.739-0.099,0.937-0.442c0,0,0.936-0.395,1.033-0.788
	c0,0,1.773-0.394,2.51,0.344c0,0,0.789,0.197,0.987-0.148c0,0-1.97-0.689,0.64-0.394c0,0,1.869,0.492,2.263-0.247
	c0,0,0.688-0.786,0.887-0.639c0,0,1.182,0.196,1.134-0.591c0,0,0.885-0.492,1.523-0.394c0,0,1.427,0.247,1.33-0.688
	c0,0-0.049-1.084,0.886-0.247c0,0,1.231,0.788,2.117,0.641c0,0,1.378,0.196,0.884,0.984c0,0-0.295,0.837-1.03,0.689
	c0,0-1.231,0.689-0.69,0.984c0,0,0.69,0.345,1.426-0.294c0,0,0.246-0.689,0.74-0.641c0,0,0.887,0.296,1.031-0.442
	c0,0,0.101-1.231,0.938-1.231c0,0,1.624-0.639,1.477,0.295c0,0,0.247,0.344-0.592,0.492c0,0-0.147,0.591,0.739,0.737
	c0,0,0.983,0.542,1.084-0.097c0,0,0.736-0.738,1.476,0.393c0,0,1.032,0.984,1.33,0.788c0,0,0.737-0.147,0.589-0.836
	c0,0,1.182-0.198,1.082,0.491c0,0-0.147,0.985-1.327,0.985c0,0-0.936,1.871-0.394,2.118c0,0,1.573,0.54,2.117,0.295
	c0,0,1.524,0.541,1.524,1.181c0,0,0.739,0.345,0.936-0.099c0,0,2.115,0.985,1.131,2.707c0,0-0.439,1.576,0.396,2.215
	c0,0,0.047,1.97-1.133,1.871c0,0-0.788,1.231-0.051,1.723c0,0,0.985,2.461,0.348,2.904c0,0-0.199,0.984,0.488,0.787
	c0,0,0.395,0.297,0.348,0.494c0,0,1.772,0.59,2.065,0.146c0,0,0.543-0.344,1.527,0.788c0,0,1.426,0.983,2.164,0.59
	c0,0,1.578,0.05,1.282,1.476c0,0,0.195,1.091-0.543,1.238c0,0-0.543,0.639-0.294,0.935c0,0,0.294,1.033,0.146,1.132
	c0,0,0.592-0.345,0.592-1.083c0,0-0.443-0.837,0.885-0.983c0,0,0.836-0.099,0.836-1.035c0,0-0.048-1.574,0.542-1.673
	c0,0,0.297-1.822-0.49-2.067c0,0-0.493-1.23-0.1-1.625c0,0-0.689-1.673-1.919-1.428c0,0-0.395-1.525,0.442-1.92
	c0,0,0.59-0.736,0.59-1.082c0,0,2.067-1.182,2.462-0.049c0,0-0.197,0.639,0.837,0.541c0,0,0.591,0.197,0.539,0.935
	c0,0,0.394,0.689,1.085,0.247c0,0,0.937-0.295,0.837-0.74c0,0,0.737-0.738,1.034,0.346c0,0,0.195,0.984,1.525,0
	c0,0,0.197-1.133,1.133-0.983c0,0,0.985-0.05,1.23-0.69c0,0,0.295-0.59,1.328-0.197c0,0,0.592-0.787,0.445-1.181
	c0,0,0.293-0.738,0.835-0.295c0,0,0.444-0.296,0.395-0.641c0,0,0.392-0.737-0.345-1.575c0,0-1.081-0.837-0.639-1.625
	c0,0,0.341-0.639-0.544-0.982c0,0-0.194-1.084,0.739-1.282c0,0,1.279-0.64,1.87-0.049c0,0,0.788-0.147,0.739-0.688
	c0,0-0.492-1.429,0.492-1.575c0,0,1.572-0.296,1.721-0.837c0,0,0.788-0.246,1.232,0.049c0,0,0.441,0.098,0.541-0.591
	c0,0,1.133-0.294,1.034,0.394c0,0,0.344,0.639,1.083,0.246c0,0,0.539,0.245,0.491,0.491c0,0,0.197,0.592,0.886,0.148
	c0,0,1.036-0.344,0.689-0.837c0,0-0.392-0.935,0.397-1.132c0,0,0.391-0.541,0.341-1.083c0,0,0.491-0.738,1.725-0.246
	c0,0,1.574,0.147,2.117-0.344c0,0,0.441-0.739,1.525-0.592c0,0,1.031,0,1.229-0.541c0,0,0.59-0.197,0.935,0.146
	c0,0,0.836-0.343,0.443-0.983c0,0,0.984-0.443,1.38,0.098c0,0,0.44,0.247,0.688-0.098c0,0,1.18,0.64,1.968-0.05
	c0,0,0.148-0.443-0.345-0.443c0,0-0.688-1.23,0.148-1.23c0,0,0.539,0.05,0.492-0.492c0,0-0.345-1.329,0.295-1.132
	c0,0,0.444-0.098,0.444-0.493c0,0,0.516,0.346,0.933,0.125c0,0,0.271-0.641-0.098-0.689c0,0-0.246-0.566,0.125-0.713
	c0,0,0.146-1.206-0.594-1.354c0,0-0.959-0.837-0.49-1.576c0,0,0.64-0.639,0.443-1.131c0,0-0.643-1.181,0.244-1.501
	c0,0,0.838-0.985,0.592-1.502c0,0-0.023-0.615-0.541-0.812c0,0-0.344-0.566,0.146-0.738c0,0,0.396-1.428-0.688-1.65
	c0,0-0.664-0.836-2.215-0.713c0,0-0.49-0.196-0.541-0.837c0,0-0.738-1.329-1.354-1.329c0,0-0.813-0.491-0.64-1.305
	c0,0,0.296-1.377-0.983-1.846c0,0-1.527,0.099-2.388-1.574c0,0-1.353-1.625-1.23-2.142c0,0,0.566-1.477-0.347-1.525
	c0,0-0.858-0.615-0.07-0.96c0,0,0.638,0.05,0.588-0.885c0,0,0.566-1.919,2.241-1.673c0,0,0.863,0.172,1.354,0.787
	c0,0,0.593,0.517,1.034-0.123c0,0,0.441-0.887-0.318-0.887c0,0-0.716,0.37-0.446-0.368c0,0-0.121-0.296-0.467-0.296
	c0,0-0.49-1.723,0.148-1.772c0,0,1.625,0.123,1.625-0.591c0,0-0.48-2.597,0.293-2.891c0,0,0.444-0.444,0.262-1.07
	c0,0,0.699-1.995,1.993-1.81c0,0,0.44-0.332-0.336-0.812c0,0-0.699-1.477,0.224-1.994c0,0,0.405-1.771-0.224-2.14
	c0,0-0.072-0.998,0.298-1.33c0,0-0.258-1.624-1.219-2.399c0,0-0.664-0.37-0.592-1.07c0,0-0.221-1.035-1.255-0.148
	c0,0-0.813,1.366-1.106,1.402c0,0-0.553,0.223-0.59,0.592c0,0,0.369,1.034-0.259,1.218c0,0-0.368,0.627-1.478,0.627
	c0,0-0.739,0.037-1.107,0.259c0,0,0.112,0.886-0.406,0.886c0,0-1.109,0.886-1.733,0.812c0,0-2.03,0.406-2.44,1.697
	c0,0-0.514,2.143-1.587,2.216c0,0-2.065,0.922-2.656,1.367c0,0-0.369,0.369-0.925,0.074c0,0-2.324-0.038-2.105-2.104
	c0,0-0.402-0.923,0.039-1.81c0,0,0.518-1.439-0.629-1.587c0,0-1.807-0.923-3.763-0.37c0,0-1.22,0.923-1.553,1.884
	c0,0,0.038,0.258-0.478,0.222c0,0-1.626,1.366-1.922,1.956c0,0-1.217,1.107-0.7,2.03c0,0,0.296,1.588,1.218,1.811
	c0,0,0.96,0.773,0.555,1.476c0,0-0.52,1.219,0.035,1.735c0,0-0.442,0.812-0.627,0.074c0,0-0.48-1.439-0.037-2.03
	c0,0,0.109-0.591-0.59-0.85c0,0-1.587-1.145-1.366-2.031c0,0,0.038-0.222-0.442,0.295c0,0-0.664,0.997-1.072,0.185
	c0,0-0.554-1.551,0.483-1.588c0,0,1.364,0.185,1.327-0.441c0,0,1.145-2.217,1.955-2.438c0,0,0.555-0.628,0-1.106
	c0,0-0.295-0.887-1.77-0.223c0,0-0.775,0.332-1.182,0.295c0,0-0.518-0.332-0.481,0.222c0,0-0.701,0.332-0.37-0.664
	c0,0,0.112-0.479,0.96-0.074c0,0,0.812,0.221,1.735-0.592c0,0,0.961-0.738,1.736,0.813c0,0,2.18-0.48,1.439-2.289
	c0,0-0.036-1.181-0.516-1.846c0,0-0.185-0.848,0.59-1.07c0,0,0.479-0.959,0.518,0.222c0,0-0.923,0.11-0.147,1.402
	c0,0,0.109,1.773,1.548,1.514c0,0,2.696-0.443,3.804,0.997c0,0,1.441,0.813,1.404,4.468c0,0,0.33,1.071,0.997,0.554
	c0,0,2.436-1.256,3.1-2.474c0,0-0.258-1.33,0.444-1.477c0,0,0.552,0,0.147-1.551c0,0-0.186-0.849,1.218-0.923
	c0,0,0.738-0.517,0.441-1.07c0,0,0.445-0.775,0.593,0.037c0,0,0.11,1.478-0.664,1.478c0,0-0.888,1.328,0.071,0.775
	c0,0,1.479-1.034,2.364-1.44c0,0,0.922-0.295,0.737-1.255c0,0-0.222-1.145-0.847-1.293c0,0-0.556-0.479-0.111-1.477
	c0,0,0.111-0.183-0.444-0.589c0,0-0.186-2.99,0.48-4.467c0,0,0.147-1.588-0.741-2.178c0,0-0.697-1.108-0.697-1.883
	c0,0-0.629-0.922-1.033-0.922c0,0-2.278-2.413-1.835-3.496c0,0,0.344-1.378-1.033-1.918c0,0-1.573,0.195-0.936,0.835
	c0,0,0.196,0.69-0.246,0.886c0,0-0.051,0.936,0.788,1.034c0,0,0.639,1.133-0.689,0.591c0,0-0.986,0.345-0.887-1.871
	c0,0,0.394-1.329-0.688-1.379c0,0-0.543-0.836-0.246-1.377c0,0-0.494-1.526-1.579-1.526c0,0-0.737-0.049-0.737-0.738
	c0,0-0.59,0.936-0.344,1.478c0,0,0.344,1.229-0.541,0.541c0,0-0.344-0.592-0.788-0.592c0,0-0.983,0-1.034-0.983
	c0,0,0.147-0.591-0.588-0.787c0,0-0.444-0.74-0.543,0.147c0,0-0.885,0.542-0.885-0.444c0,0-0.248-0.835-0.84-0.984
	c0,0-0.688-0.345-0.49-1.28c0,0-0.248-0.59-0.789-0.64c0,0-0.984-0.148-0.689-1.772c0,0-0.295-0.64-1.031-0.295
	c0,0-0.791,1.427-1.479,1.23c0,0-1.526-0.196-1.674,0.295c0,0-0.443,1.478,0.395,1.871c0,0,0.738,1.427,0.049,1.329
	c0,0-0.59-0.345-0.639,0.394c0,0-0.248,1.279-0.74,1.279c0,0-0.983,0.935-0.786,2.068c0,0,0.098,2.953-0.838,3.151
	c0,0-0.688-0.099-0.345-1.28c0,0,0.198-1.132-0.245-2.215c0,0-0.54-0.984,0.639-1.969c0,0,0.444-0.984,0.493-2.412
	c0,0,0.296-1.723,0.985-1.624c0,0,0.735-0.296,0.542-1.428c0,0-0.643-1.871-2.069-1.821c0,0-0.982,0.049-0.836-1.083
	c0,0,0.196-1.082-0.64-1.13c0,0-1.033-0.247-0.935,0.589c0,0,0.147,0.739-0.298,0.592c0,0-1.328-0.198-0.885-1.181
	c0,0,0.835-0.296,0.639-0.739c0,0-0.54-0.689-0.295-0.984c0,0-0.492-0.788-1.23-0.295c0,0-0.787,0.246-0.491,0.936
	c0,0,0.346,0.344-0.642,0.294c0,0-2.51,0.05-2.558-1.181c0,0,0.099-0.64,0.442-0.689c0,0,0.05-1.182-0.638-0.64
	c0,0-1.036,0.936-1.135-0.344c0,0-0.197-1.625,1.034-1.231c0,0,1.133,0.247,0.936-0.392c0,0-0.1-1.036-0.738-1.232
	c0,0-0.641-1.033-0.049-1.574c0,0,0.488-1.083,0.099-1.576c0,0,0.294-0.738,0.688,0c0,0,1.229-0.492-0.147-1.034
	c0,0-1.084-1.476,0.048-1.723c0,0,1.035,0.689,0.788-0.295c0,0-0.05-0.985,0.74-0.591c0,0,0.589,0,0.441-0.493
	c0,0,0.44-1.23-0.59-1.575c0,0-0.984-0.639-1.083-1.33c0,0-0.541-0.738-1.525-0.787c0,0-0.985,0.345-0.938-0.59
	c0,0-0.343-0.344-0.836,0c0,0-0.886,0-0.197-0.738c0,0,0.837-0.197,0.544-0.986c0,0-0.837-0.935,0.146-0.688
	c0,0,0.986,0.147,1.181,0.738c0,0,0.837,0.641,0.642-0.196c0,0-0.048-0.885-0.441-0.985c0,0-0.793-0.541-0.15-0.836
	c0,0-0.541-0.591-0.983-0.345c0,0-0.886,0.246-0.74-0.59c0,0-0.098-0.689-0.836-0.64c0,0-0.837,0.197-0.688-0.641
	c0,0-0.049-0.64-1.625-0.936c0,0-0.443-0.836,0.049-1.033c0,0,0.886-0.148,0.886-0.837c0,0,0.052-0.344-0.736-0.294
	c0,0-1.329-0.147-1.626-0.493c0,0-0.786-0.689-1.23-0.836c0,0-0.442,0.541-0.096,0.738c0,0,0.045,0.591-0.692,0.394
	c0,0-1.722-0.64-1.722-1.33c0,0,0.146-0.541-1.133-0.443c0,0-1.182,0.295-1.379-0.345c0,0-0.59-0.246-0.443-0.738
	c0,0-1.083-0.246-1.031,0.344c0,0-0.102,1.281,0.243,1.527c0,0-0.097,0.493-0.49,0.493c0,0-0.936,0.098-0.886-0.592
	c0,0-0.197-0.884-1.183-1.131c0,0-0.886-0.443-0.886-1.279c0,0-0.542-0.788-1.182-0.788c0,0-0.789-0.59-0.789-1.33
	c0,0,0-0.245-1.03-0.442c0,0-1.331-0.344-1.28,0.296c0,0,0.344,0.591-0.642,0.542c0,0-0.736,0.394-0.591,1.771
	c0,0,0.149,1.083-0.395,1.231c0,0-1.521,1.674-1.23,2.166c0,0-0.048,0.492-0.59,0.492c0,0-1.328-0.147-1.229,0.543
	c0,0-0.347,0.639,0.344,0.787c0,0,0.491,0.936,0.197,1.181c0,0-0.786,0.886,0.444,0.986c0,0,1.032,0.344,1.08-0.592
	c0,0,0.641-0.986,0-1.427c0,0-0.588-0.935,0.247-1.083c0,0,0.936-0.395,0.936-0.837c0,0,2.067-0.492,1.87,0.837
	c0,0,0.592,1.771-0.147,1.87c0,0-1.23,1.723,0.539,1.772c0,0,1.43,0.198,1.43,0.836c0,0,0.836,0.493,1.28,0.05
	c0,0,0.981-0.05,1.23,0.443c0,0,0.835,0.738,1.231-0.197c0,0,1.77-0.443,2.016,0.442c0,0-0.098,1.28,0.492,1.035
	c0,0,0.889,0.689,1.034-0.493c0,0-0.197-0.935,0.838-0.591c0,0,0.886,0.049,0.984,0.542c0,0,0.788,0.197,0.592-0.64
	c0,0,0.735-0.641,0.688,0.147c0,0,0.196,0.738-0.294,0.838c0,0-0.74,0.246,0,0.936c0,0,2.017,1.871,1.427,2.608
	c0,0-0.887,1.132-0.196,1.281c0,0,0.837,0.345,1.132,1.477c0,0,1.132,1.87,0.442,2.609c0,0-0.247,2.018,0.246,2.51
	c0,0,0.395,1.428-0.738-0.344c0,0-0.443-1.526-1.525-1.773c0,0-1.083-0.049-1.278-1.378c0,0-0.694-0.985-2.069-1.083
	c0,0-3.053-0.444-3.001-1.281c0,0-0.198-1.771-1.035-0.59c0,0-0.246,2.067,0.442,2.855c0,0,0.197,0.836-0.195,1.035
	c0,0-0.396,0.834,0,1.476c0,0-0.692,3.002-1.725,3.199c0,0-0.737,0.098-1.229,1.034c0,0-1.183,1.182-1.771,1.033
	c0,0-1.084,0.739,0.146,1.428c0,0,2.511,1.918,2.759,3.396c0,0,1.081,2.904,2.113,2.117c0,0,1.477-0.985,2.265-0.738
	c0,0,2.217-0.344,2.315,1.181c0,0,0.098,0.985-0.246,0.69c0,0-0.247-1.183-0.69-0.985c0,0-1.231-1.034-2.265-0.049
	c0,0-0.247,0.295,0.246,0.444c0,0-0.049,0.787-0.884,0.738c0,0-1.727,0.443-2.218-0.394c0,0-0.195-1.329-1.378-1.478
	c0,0-0.589-0.64-0.146-0.984c0,0-0.147-1.132-0.987-0.197c0,0-0.242,1.378-0.785,1.28c0,0-1.477,0.049-1.477-0.739
	c0,0-0.787-1.378-1.968-0.934c0,0-0.444-0.689,0.589-0.689c0,0,1.477,0.443,1.871,1.23c0,0,0.886,0.542,0.293-1.034
	c0,0-0.098-1.281-1.082-1.427c0,0-0.736-0.542-0.245-1.182c0,0-0.097-0.886-0.837-0.935c0,0-0.344-0.935,0.985-0.935
	c0,0,1.132-0.689,1.132-0.984c0,0,2.116-2.56,2.657-2.363c0,0,1.231-0.688,1.034-1.723c0,0-0.197-1.576,0.296-1.92
	c0,0,0.442-1.624-0.296-2.264c0,0-0.147-1.871,0.44-2.511c0,0-0.539-1.083-1.522-0.591c0,0-3.2,2.363-4.332,4.283
	c0,0-0.148,0.493-1.232,0.542c0,0-2.558-0.247-3.1,1.034c0,0-0.542,3.002,0.886,5.119c0,0,0.789,0.885,1.577,0.443
	c0,0,1.178,0.345,0.541,0.64c0,0-1.427,0.344-1.772-0.05c0,0-1.183-1.28-2.659-0.738c0,0-1.182,0.247-0.195-0.639
	c0,0,1.475,0.294,1.081-0.59c0,0-0.884-3.644-0.099-4.628c0,0,1.576-2.018,4.234-1.674c0,0,0.739-0.098,0.788-1.181
	c0,0,2.853-3.938,3.938-3.938c0,0-1.231-0.197-0.889-0.542c0,0,0.74-0.59,1.135-0.345c0,0,0.244-1.083-1.034-0.836
	c0,0-2.264,0.935-4.774,4.774c0,0-1.33,1.428-2.41,1.279c0,0-2.119-0.246-2.119-1.083c0,0-0.739-1.083-0.542-1.575
	c0,0-0.64-0.541-0.937,0.099c0,0-1.426,1.968-2.655,3.396c0,0-3.051,2.411-3.496,4.479c0,0-0.813,2.754-1.18,2.827
	c0,0-1.773,2.438-1.773,2.955c0,0-0.888,1.181-1.919,1.181c0,0-0.813,0.738-0.813,1.107c0,0-2.289,6.867-3.323,6.94
	c0,0-1.551,0.812-2.512,0.296c0,0-2.952,0.59-3.319,1.55c0,0-0.519,0.96-1.7,0.369c0,0-0.221-0.296-2.068-0.148
	c0,0-3.986,0.96-5.241-0.074c0,0-0.813-0.664-0.813-1.33c0,0,0.223-1.698-0.811-1.771c0,0-0.813,0.37-1.257-1.106
	c0,0-1.179-1.551-0.738,0.221c0,0,0,0.811-0.812,0.811c0,0-1.182-0.59-2.585,0.518c0,0-0.886,1.108-0.073,1.55
	c0,0,0.37,0.738-1.107,0.592c0,0-1.846-0.297-2.731,0.369c0,0-1.772,0-1.697-0.739c0,0-0.371-0.444-1.108-0.296
	c0,0-1.182-0.148-1.182-0.812c0,0-0.592-0.664-1.699,0c0,0-1.92-1.329-1.106-2.067c0,0,1.181-0.886,0.295-1.034
	c0,0-1.253,0.073-1.181-0.518c0,0-0.59-1.107-0.74-0.442c0,0,0.297,1.255-0.516,1.255c0,0-0.812,1.255-0.221,1.477
	c0,0-0.516,0.666-1.327,0.371c0,0-1.035-0.371-1.112,0.368c0,0-0.957,0.443-1.18-0.368c0,0-1.253-0.444-0.884,1.106
	c0,0-0.147,1.331-0.667,1.331c0,0-1.253,0.516-0.294,1.771c0,0,0.665,0.074-0.147,1.55c0,0-1.256,1.108-0.591,2.807
	c0,0-2.954,5.315-4.43,5.315c0,0-2.807,2.66-2.807,3.987c0,0-0.737,2.364-1.106,0.592c0,0-0.813-0.886,0.958-2.363
	c0,0,2.216-1.846,2.216-2.732c0,0,0.221-0.96,0.887-1.107c0,0,0.59-0.591-0.37-1.92c0,0-0.146-1.033,0.149-1.55
	c0,0-0.076-0.96-1.108-0.96c0,0-0.813-0.59-1.696,0.221c0,0-1.553,0.591-1.035-0.516c0,0-0.445-0.96,0.738-1.108
	c0,0,1.109-0.368,1.109-1.181c0,0-0.964-1.625-0.373-2.584c0,0,1.109-1.478,0.593-2.658c0,0,0.222-1.995,1.18-2.29
	c0,0,1.257,0.664,1.478-0.517c0,0,0.071-0.886-1.105-1.034c0,0-1.406-0.223-1.995,0.443c0,0-1.034,0.369-1.698,0.073
	c0,0-2.438-0.664-2.438-1.476c0,0-0.811-1.182-2.585-0.591c0,0-3.467-0.591-3.026-1.477c0,0,0.741-1.402-0.44-1.624
	c0,0-1.403-0.223-1.994,0.295c0,0-1.55,0.443-2.143-0.591c0,0-0.737-0.665-1.255,0.443c0,0-1.032,0.886-2.14-0.075
	c0,0-2.439-0.072-3.176,1.183c0,0-0.517,0.812-2.213,0.369c0,0-0.963-0.369-2.586,0.739c0,0-4.505,1.625-5.54,1.034
	c0,0-0.663-0.295-1.104-1.182c0,0-1.109-0.664-1.626,0.37c0,0-0.958,0.589-1.403-0.443c0,0-0.886-0.517-2.289-0.369
	c0,0-1.106,0.369-1.699,1.254L31.885,69.272z"/>
<path fill-rule="evenodd" clip-rule="evenodd" fill="#C29875" d="M341.111,52.219c-0.195,0.135-0.318,0.223-0.49,0.34
	c-0.069-0.188-0.123-0.34-0.163-0.442c-0.191-0.045-0.348-0.082-0.51-0.117c0.084-0.167,0.171-0.333,0.279-0.552
	c0-0.018-0.005-0.143,0.003-0.267c0-0.029,0.045-0.069,0.033-0.083c-0.506-0.713,0.131-1.264,0.303-1.863
	c0.167-0.563,0.389-1.079,0.256-1.688c-0.133-0.627-0.192-1.267-0.246-1.906c-0.024-0.229,0.008-0.496,0.116-0.697
	c0.404-0.742,0.851-1.461,1.276-2.191c0.204-0.352,0.416-0.701,0.596-1.068c0.313-0.635,0.606-1.252,1.046-1.843
	c0.655-0.884,1.034-1.969,1.546-2.961c0.225-0.438,0.491-0.858,0.739-1.287c0.27-0.47,0.526-0.949,0.809-1.411
	c0.337-0.554,0.74-1.005,1.362-1.327c0.389-0.201,0.652-0.725,0.863-1.156c0.399-0.792,0.687-1.637,1.084-2.424
	c0.161-0.321,0.444-0.653,0.764-0.812c0.74-0.377,1.449-0.842,2.315-0.934c0.338-0.035,0.655-0.217,0.991-0.305
	c0.248-0.065,0.506-0.091,0.721-0.127c-0.035-0.029-0.183-0.162-0.361-0.315c0.43-0.646,0.839-1.312,1.787-1.21
	c0.172,0.019,0.395,0.08,0.508,0.198c0.313,0.328,0.563,0.707,0.863,1.043c0.12,0.136,0.3,0.246,0.475,0.308
	c0.342,0.12,0.69,0.232,1.048,0.289c0.465,0.077,0.985,0.012,0.89,0.76c-0.042,0.269,0.178,0.469,0.497,0.478
	c0.165,0.007,0.335,0.037,0.499,0.056c0.05,0.06,0.095,0.119,0.142,0.181c-0.122,0.053-0.252,0.107-0.377,0.16
	c-0.551,0.216-0.903,0.635-1.267,1.087c-0.521,0.643-0.666,1.284-0.422,2.047c0.049,0.14,0.036,0.302,0.03,0.454
	c-0.03,0.454,0.063,0.831,0.498,0.899c-0.026,0.217,0,0.42-0.073,0.582c-0.168,0.37-0.07,0.817-0.446,1.12
	c-0.516,0.415-0.375,1.062-0.516,1.607c-0.036,0.142-0.034,0.312-0.112,0.418c-0.569,0.756-1.147,1.503-1.499,2.388
	c-0.042,0.11-0.129,0.284-0.084,0.333c0.589,0.665-0.031,1.289-0.132,1.876c-0.363,2.189-0.891,4.348-1.376,6.518
	c-0.054,0.24-0.234,0.448-0.313,0.685c-0.122,0.365-0.209,0.742-0.296,1.116c-0.079,0.336-0.02,0.786-0.222,0.998
	c-0.604,0.636-0.671,1.522-1.165,2.188c-0.125,0.159-0.217,0.345-0.341,0.502c-0.276,0.347-0.576,0.633-0.694,1.128
	c-0.082,0.343-0.55,0.598-0.855,0.891c-0.229,0.224-0.521,0.409-0.689,0.67c-0.362,0.58-0.695,1.188-0.979,1.814
	c-0.271,0.603-0.541,1.228-0.674,1.876c-0.121,0.602-0.063,1.241-0.071,1.866c-0.005,0.479,0.026,0.959,0.024,1.439
	c0,0.163-0.017,0.358-0.103,0.491c-0.278,0.414-0.615,0.795-0.205,1.364c-0.449-0.224-0.775-0.391-1.065-0.534
	c-0.195,0.119-0.338,0.208-0.484,0.296c-0.054-0.149-0.137-0.296-0.154-0.453c-0.102-0.767-0.061-1.57-0.297-2.293
	c-0.265-0.842-0.637-1.733-1.216-2.379c-0.522-0.578-1.156-1.19-2.034-1.397c-0.245-0.057-0.431-0.404-0.619-0.636
	c-0.225-0.29-0.441-0.589-0.629-0.906c-0.115-0.203-0.189-0.438-0.255-0.667c-0.04-0.143,0-0.307-0.048-0.447
	c-0.219-0.622-0.497-1.223-0.672-1.855c-0.131-0.488-0.133-1.009-0.189-1.517C341.117,52.509,341.117,52.4,341.111,52.219"/>
<g>
	<path fill-rule="evenodd" clip-rule="evenodd" fill="#3E3A39" d="M57.75,260.584c0.525,1.125,1.051,2.252,1.59,3.373
		c1.59,3.325,3.193,6.647,4.796,10c-0.242,0.039-0.393-0.115-0.552-0.206c-2.654-1.421-5.303-2.841-7.936-4.286
		c-0.393-0.215-0.697-0.199-1.074,0.009c-2.654,1.444-5.318,2.873-7.978,4.304c-0.136,0.07-0.271,0.133-0.409,0.205
		c-0.084-0.168,0.029-0.256,0.085-0.36c1.981-4.134,3.973-8.269,5.966-12.404c0.071-0.139,0.124-0.284,0.184-0.425
		c0.175-0.359,0.35-0.715,0.527-1.071c0.635-1.313,1.264-2.629,1.906-3.937c0.07-0.141,0.096-0.39,0.279-0.385
		c0.172,0.006,0.201,0.248,0.277,0.395c0.311,0.618,0.616,1.244,0.923,1.867C56.769,258.657,57.234,259.631,57.75,260.584"/>
	<path fill-rule="evenodd" clip-rule="evenodd" fill="#3E3A39" d="M52.355,240.092c0.11,1.471,0.27,2.938,0.324,4.412
		c0.064,1.594,0.043,3.188,0.059,4.783c0,0.248-0.107,0.392-0.367,0.393c-0.749,0.002-1.495-0.001-2.238,0.002
		c-0.479,0.003-0.367-0.352-0.367-0.619c-0.003-3.789-0.003-7.582,0-11.373c0-1.65,0.006-1.559,1.621-1.68
		c1.188-0.088,1.782,0.33,2.288,1.388c1.292,2.695,2.834,5.269,3.99,8.032c0.023,0.063,0.046,0.167,0.206,0.143
		c-0.104-1.408-0.209-2.824-0.321-4.239c-0.12-1.632-0.021-3.269-0.056-4.904c-0.006-0.304,0.139-0.397,0.418-0.395
		c0.641,0.011,1.283,0.036,1.928-0.006c0.494-0.03,0.635,0.124,0.633,0.622c-0.023,3.71-0.006,7.418-0.023,11.123
		c0,0.609,0.283,1.385-0.136,1.787c-0.39,0.371-1.157,0.035-1.741,0.125c-0.961,0.154-1.459-0.225-1.889-1.107
		C55.301,245.729,53.672,243.004,52.355,240.092"/>
</g>
<g>
	<rect x="110.238" y="106.617" fill="none" width="42.67" height="14.328"/>
	<text transform="matrix(1 0 0 1 110.2383 115.6465)" fill="#040000" font-family="'DFYuanStd-W5-B5pc-H'" font-size="10.5">蘭卡威</text>
</g>
<g>
	<rect x="262.665" y="219.337" fill="none" width="28.67" height="14.327"/>
	<text transform="matrix(1 0 0 1 262.665 228.3672)" fill="#040000" font-family="'DFYuanStd-W5-B5pc-H'" font-size="10.5">檳城</text>
</g>
<path fill="none" stroke="#040000" stroke-width="1.0521" stroke-miterlimit="10" stroke-dasharray="1.1234,1.1234,1.1234,1.1234,1.1234,1.1234" d="
	M352.499,33.5c0,0-85.999,123.501-61.335,231.02"/>
<g>
	<path fill="#FFFFFF" d="M352.958,48.789c0.164,0.096,0.218,0.314,0.113,0.483l-1.101,1.772c-0.102,0.165-0.28,0.154-0.446,0.052
		c-0.165-0.1-0.257-0.249-0.157-0.414l1.103-1.776C352.572,48.743,352.792,48.686,352.958,48.789"/>
	<g opacity="0.3">
		<g>
			<defs>
				
					<rect id="SVGID_1_" x="351.091" y="49.01" transform="matrix(0.9556 -0.2945 0.2945 0.9556 0.9172 105.947)" width="2.177" height="1.838"/>
			</defs>
			<clipPath id="SVGID_2_">
				<use xlink:href="#SVGID_1_"  overflow="visible"/>
			</clipPath>
			<path clip-path="url(#SVGID_2_)" fill="#B9ADC7" d="M351.367,50.683c-0.1,0.161-0.012,0.312,0.153,0.41l1.448-2.296
				c-0.002-0.004-0.011-0.007-0.011-0.007c-0.028-0.019-0.057-0.029-0.087-0.035c-0.119,0.063-0.285,0.155-0.465,0.256
				L351.367,50.683z"/>
		</g>
	</g>
	<path fill="#FFFFFF" d="M355.036,49.132c0.165,0.099,0.218,0.315,0.114,0.479l-1.102,1.775c-0.102,0.167-0.28,0.154-0.447,0.056
		c-0.166-0.101-0.256-0.251-0.152-0.415l1.1-1.778C354.651,49.085,354.871,49.034,355.036,49.132"/>
	<g opacity="0.3">
		<g>
			<defs>
				
					<rect id="SVGID_3_" x="353.168" y="49.351" transform="matrix(0.9557 -0.2945 0.2945 0.9557 0.9059 106.5566)" width="2.179" height="1.839"/>
			</defs>
			<clipPath id="SVGID_4_">
				<use xlink:href="#SVGID_3_"  overflow="visible"/>
			</clipPath>
			<path clip-path="url(#SVGID_4_)" fill="#B9ADC7" d="M353.447,51.027c-0.101,0.164-0.014,0.312,0.149,0.411l1.451-2.299
				c-0.003-0.001-0.011-0.004-0.012-0.007c-0.026-0.018-0.058-0.026-0.085-0.036c-0.121,0.066-0.285,0.156-0.467,0.257
				L353.447,51.027z"/>
		</g>
	</g>
	<path fill="#D5D5D7" d="M351.37,50.68l0.857-0.047l0.844-1.361c0.104-0.169,0.051-0.387-0.113-0.483
		c-0.166-0.103-0.386-0.047-0.488,0.118L351.37,50.68z"/>
	<path fill="#D5D5D7" d="M354.439,50.755l0.711-1.144c0.038-0.054,0.055-0.12,0.053-0.184l-0.645-0.188
		c-0.006,0.003-0.008,0.006-0.01,0.011l-0.979,1.58L354.439,50.755z"/>
	<polygon fill="#FFFFFF" points="347.467,50.215 356.979,50.854 357.6,49.852 352.731,48.443 349.697,46.618 349.199,47.417 	"/>
	<path fill="#FFFFFF" d="M345.359,43.327c0.168,0.102,0.219,0.317,0.117,0.481l-1.103,1.776c-0.102,0.167-0.28,0.154-0.446,0.055
		c-0.166-0.103-0.258-0.252-0.156-0.418l1.102-1.778C344.977,43.282,345.193,43.229,345.359,43.327"/>
	<g opacity="0.3">
		<g>
			<defs>
				
					<rect id="SVGID_5_" x="343.493" y="43.547" transform="matrix(0.9555 -0.2951 0.2951 0.9555 2.2219 103.6587)" width="2.176" height="1.841"/>
			</defs>
			<clipPath id="SVGID_6_">
				<use xlink:href="#SVGID_5_"  overflow="visible"/>
			</clipPath>
			<path clip-path="url(#SVGID_6_)" fill="#B9ADC7" d="M343.771,45.221c-0.104,0.164-0.012,0.313,0.154,0.416l1.445-2.301
				c-0.003-0.002-0.006-0.006-0.014-0.01c-0.024-0.014-0.053-0.026-0.082-0.037c-0.119,0.069-0.285,0.161-0.467,0.261
				L343.771,45.221z"/>
		</g>
	</g>
	<path fill="#FFFFFF" d="M346.301,44.978c0.165,0.1,0.218,0.315,0.112,0.483l-1.099,1.774c-0.104,0.164-0.281,0.151-0.448,0.052
		c-0.167-0.102-0.257-0.251-0.153-0.414l1.099-1.776C345.917,44.934,346.133,44.878,346.301,44.978"/>
	<g opacity="0.3">
		<g>
			<defs>
				
					<rect id="SVGID_7_" x="344.432" y="45.197" transform="matrix(0.9558 -0.2939 0.2939 0.9558 1.7074 103.5953)" width="2.176" height="1.84"/>
			</defs>
			<clipPath id="SVGID_8_">
				<use xlink:href="#SVGID_7_"  overflow="visible"/>
			</clipPath>
			<path clip-path="url(#SVGID_8_)" fill="#B9ADC7" d="M344.711,46.873c-0.102,0.163-0.012,0.312,0.148,0.412l1.452-2.298
				c-0.003-0.003-0.009-0.007-0.011-0.009c-0.029-0.016-0.057-0.029-0.089-0.037c-0.118,0.066-0.282,0.157-0.462,0.257
				L344.711,46.873z"/>
		</g>
	</g>
	<path fill="#D5D5D7" d="M345.512,46.913l0.904-1.453c0.103-0.167,0.05-0.382-0.114-0.482c-0.167-0.102-0.384-0.046-0.491,0.12
		l-0.831,1.34L345.512,46.913z"/>
	<path fill="#D5D5D7" d="M344.529,45.327l0.947-1.519c0,0,0.001-0.002,0.001-0.003l-0.468-0.484
		c-0.055,0.029-0.102,0.074-0.138,0.125l-0.87,1.411L344.529,45.327z"/>
	<polygon fill="#FFFFFF" points="349.324,48.043 349.324,48.043 349.572,47.649 349.578,47.644 350.072,46.845 347.035,45.023 
		343.532,41.409 342.908,42.413 347.842,50.439 	"/>
	<g opacity="0.6">
		<g>
			<defs>
				
					<rect id="SVGID_9_" x="346.34" y="45.6" transform="matrix(0.9556 -0.2948 0.2948 0.9556 1.4209 104.7811)" width="3.898" height="4.155"/>
			</defs>
			<clipPath id="SVGID_10_">
				<use xlink:href="#SVGID_9_"  overflow="visible"/>
			</clipPath>
			<polygon clip-path="url(#SVGID_10_)" fill="#B9ADC7" points="346.355,48.021 347.609,50.061 349.508,47.749 349.572,47.65 
				349.578,47.644 350.071,46.844 347.989,45.597 			"/>
		</g>
	</g>
	<polygon fill="#FFFFFF" points="350.816,38.488 352.547,42.436 353.639,40.676 351.089,38.046 	"/>
	<g opacity="0.6">
		<g>
			<defs>
				
					<rect id="SVGID_11_" x="351.998" y="40.04" transform="matrix(0.9561 -0.2932 0.2932 0.9561 3.4384 105.2651)" width="1.749" height="2.245"/>
			</defs>
			<clipPath id="SVGID_12_">
				<use xlink:href="#SVGID_11_"  overflow="visible"/>
			</clipPath>
			<polygon clip-path="url(#SVGID_12_)" fill="#B9ADC7" points="352.947,39.965 351.881,40.917 352.547,42.436 353.638,40.677 			
				"/>
		</g>
	</g>
	<polygon fill="#FFFFFF" points="356.908,42.145 352.548,42.436 353.639,40.676 357.186,41.703 	"/>
	<path fill="#FFFFFF" d="M347.784,52.784l4.817-8.31c0.893-1.442,1.825-4.143,1.406-4.396c-0.42-0.25-2.436,1.803-3.329,3.242
		l-5.306,8.018c-1.229,1.982-1.688,3.919-1.022,4.313C345.015,56.054,346.551,54.768,347.784,52.784"/>
	<path fill="#8BC1CD" d="M344.844,53.053c-0.026,0.518,0.11,0.931,0.426,1.121c0.315,0.188,0.748,0.118,1.203-0.145
		c-0.346,0.018-0.678-0.055-0.975-0.23C345.209,53.624,344.988,53.363,344.844,53.053"/>
	<path fill="#4E5462" d="M346.473,54.029c-0.455,0.263-0.888,0.333-1.205,0.142c-0.313-0.187-0.45-0.6-0.424-1.118
		c0.145,0.31,0.365,0.571,0.655,0.748C345.795,53.974,346.127,54.046,346.473,54.029"/>
	<g opacity="0.3">
		<g>
			<defs>
				
					<rect id="SVGID_13_" x="342.134" y="41.814" transform="matrix(0.9556 -0.2946 0.2946 0.9556 1.3866 104.9538)" width="13.914" height="12.12"/>
			</defs>
			<clipPath id="SVGID_14_">
				<use xlink:href="#SVGID_13_"  overflow="visible"/>
			</clipPath>
			<path clip-path="url(#SVGID_14_)" fill="#B9ADC7" d="M344.351,55.651c0.005,0.007,0.016,0.012,0.026,0.018l9.584-15.608
				c-0.504-0.096-2.418,1.869-3.28,3.259l-5.308,8.019C344.144,53.32,343.683,55.255,344.351,55.651"/>
		</g>
	</g>
</g>
<path fill="#FFFFFF" d="M297.083,247.982c-0.187,0.038-0.37-0.092-0.403-0.287l-0.34-2.058c-0.033-0.192,0.108-0.302,0.301-0.335
	c0.188-0.035,0.356,0.019,0.391,0.206l0.341,2.063C297.403,247.763,297.276,247.952,297.083,247.982"/>
<g opacity="0.3">
	<g>
		<defs>
			
				<rect id="SVGID_15_" x="295.83" y="245.693" transform="matrix(-0.524 0.8517 -0.8517 -0.524 662.5436 122.9355)" width="2.175" height="1.839"/>
		</defs>
		<clipPath id="SVGID_16_">
			<use xlink:href="#SVGID_15_"  overflow="visible"/>
		</clipPath>
		<path clip-path="url(#SVGID_16_)" fill="#B9ADC7" d="M297.031,245.509c-0.031-0.184-0.197-0.241-0.384-0.205l0.422,2.682
			c0.005,0.002,0.014-0.001,0.014-0.003c0.034-0.003,0.063-0.016,0.089-0.029c0.047-0.128,0.113-0.307,0.18-0.5L297.031,245.509z"/>
	</g>
</g>
<path fill="#FFFFFF" d="M295.295,249.096c-0.189,0.035-0.372-0.094-0.402-0.285l-0.343-2.061c-0.033-0.192,0.108-0.3,0.302-0.338
	c0.19-0.032,0.358,0.021,0.388,0.212l0.344,2.063C295.615,248.876,295.484,249.061,295.295,249.096"/>
<g opacity="0.3">
	<g>
		<defs>
			
				<rect id="SVGID_17_" x="294.04" y="246.806" transform="matrix(-0.5251 0.8511 -0.8511 -0.5251 660.9221 126.6287)" width="2.178" height="1.841"/>
		</defs>
		<clipPath id="SVGID_18_">
			<use xlink:href="#SVGID_17_"  overflow="visible"/>
		</clipPath>
		<path clip-path="url(#SVGID_18_)" fill="#B9ADC7" d="M295.238,246.622c-0.031-0.188-0.195-0.242-0.381-0.208l0.425,2.683
			c0.003,0,0.011-0.002,0.013-0.001c0.03-0.004,0.061-0.019,0.089-0.029c0.046-0.129,0.107-0.307,0.181-0.5L295.238,246.622z"/>
	</g>
</g>
<path fill="#D5D5D7" d="M297.028,245.515l-0.61,0.601l0.262,1.58c0.033,0.195,0.217,0.325,0.403,0.287
	c0.193-0.03,0.321-0.218,0.289-0.41L297.028,245.515z"/>
<path fill="#D5D5D7" d="M294.674,247.482l0.219,1.329c0.008,0.066,0.039,0.126,0.081,0.173l0.61-0.285c0-0.006,0-0.009,0-0.016
	l-0.306-1.832L294.674,247.482z"/>
<polygon fill="#FFFFFF" points="300.272,243.292 292.697,249.08 292.893,250.244 297.485,248.095 300.967,247.468 300.813,246.537 
	"/>
<path fill="#FFFFFF" d="M306.397,247.082c-0.193,0.032-0.374-0.096-0.404-0.285l-0.343-2.063c-0.033-0.193,0.108-0.301,0.299-0.335
	c0.195-0.034,0.361,0.02,0.395,0.21l0.343,2.064C306.715,246.863,306.588,247.046,306.397,247.082"/>
<g opacity="0.3">
	<g>
		<defs>
			
				<rect id="SVGID_19_" x="305.143" y="244.791" transform="matrix(-0.5243 0.8515 -0.8515 -0.5243 676.0179 113.7707)" width="2.176" height="1.84"/>
		</defs>
		<clipPath id="SVGID_20_">
			<use xlink:href="#SVGID_19_"  overflow="visible"/>
		</clipPath>
		<path clip-path="url(#SVGID_20_)" fill="#B9ADC7" d="M306.343,244.607c-0.032-0.188-0.198-0.24-0.39-0.208l0.43,2.682
			c0,0,0.01,0.001,0.017-0.001c0.027-0.006,0.058-0.014,0.086-0.027c0.043-0.13,0.109-0.307,0.18-0.504L306.343,244.607z"/>
	</g>
</g>
<path fill="#FFFFFF" d="M304.602,246.46c-0.189,0.034-0.371-0.093-0.402-0.288l-0.344-2.058c-0.03-0.193,0.112-0.3,0.303-0.336
	c0.189-0.032,0.358,0.021,0.391,0.211l0.344,2.061C304.919,246.242,304.794,246.424,304.602,246.46"/>
<g opacity="0.3">
	<g>
		<defs>
			
				<rect id="SVGID_21_" x="303.349" y="244.168" transform="matrix(-0.5257 0.8507 -0.8507 -0.5257 672.9646 114.946)" width="2.175" height="1.841"/>
		</defs>
		<clipPath id="SVGID_22_">
			<use xlink:href="#SVGID_21_"  overflow="visible"/>
		</clipPath>
		<path clip-path="url(#SVGID_22_)" fill="#B9ADC7" d="M304.549,243.988c-0.032-0.188-0.198-0.242-0.383-0.211l0.42,2.684h0.014
			c0.035-0.007,0.063-0.018,0.092-0.032c0.048-0.127,0.11-0.304,0.18-0.498L304.549,243.988z"/>
	</g>
</g>
<path fill="#D5D5D7" d="M303.92,244.486l0.277,1.687c0.033,0.194,0.215,0.321,0.405,0.288c0.192-0.035,0.319-0.218,0.289-0.413
	l-0.261-1.558L303.92,244.486z"/>
<path fill="#D5D5D7" d="M305.703,245.029l0.29,1.768c0.001,0.002-0.001,0.003,0.001,0.002l0.669,0.057
	c0.022-0.058,0.027-0.122,0.022-0.186l-0.275-1.633L305.703,245.029z"/>
<polygon fill="#FFFFFF" points="300.306,246.149 300.306,246.149 300.381,246.609 300.382,246.615 300.535,247.543 304.02,246.91 
	309.037,247.319 308.844,246.152 299.844,243.371 "/>
<g opacity="0.6">
	<g>
		<defs>
			
				<rect id="SVGID_23_" x="299.378" y="243.663" transform="matrix(-0.5246 0.8513 -0.8513 -0.5246 668.6191 118.1348)" width="3.898" height="4.156"/>
		</defs>
		<clipPath id="SVGID_24_">
			<use xlink:href="#SVGID_23_"  overflow="visible"/>
		</clipPath>
		<polygon clip-path="url(#SVGID_24_)" fill="#B9ADC7" points="302.554,244.208 300.267,243.501 300.362,246.491 300.381,246.607 
			300.382,246.615 300.535,247.544 302.924,247.109 		"/>
	</g>
</g>
<polygon fill="#FFFFFF" points="305.485,254.319 301.582,252.491 301.922,254.534 305.572,254.831 "/>
<g opacity="0.6">
	<g>
		<defs>
			
				<rect id="SVGID_25_" x="301.302" y="252.542" transform="matrix(-0.5246 0.8514 -0.8514 -0.5246 676.6494 129.4634)" width="1.748" height="2.244"/>
		</defs>
		<clipPath id="SVGID_26_">
			<use xlink:href="#SVGID_25_"  overflow="visible"/>
		</clipPath>
		<polygon clip-path="url(#SVGID_26_)" fill="#B9ADC7" points="302.908,254.615 303.081,253.194 301.582,252.491 301.923,254.534 		
			"/>
	</g>
</g>
<polygon fill="#FFFFFF" points="298.493,255.585 301.58,252.491 301.922,254.534 298.576,256.102 "/>
<path fill="#FFFFFF" d="M298.34,241.569l1.857,9.424c0.278,1.672,1.357,4.321,1.839,4.235c0.48-0.091,0.644-2.962,0.364-4.634
	l-1.294-9.527c-0.382-2.303-1.313-4.061-2.074-3.917C298.267,237.285,297.962,239.264,298.34,241.569"/>
<path fill="#8BC1CD" d="M300.374,239.429c-0.322-0.407-0.697-0.628-1.057-0.563c-0.362,0.066-0.644,0.404-0.812,0.903
	c0.245-0.242,0.548-0.408,0.883-0.471C299.723,239.239,300.061,239.29,300.374,239.429"/>
<path fill="#4E5462" d="M298.506,239.77c0.168-0.499,0.449-0.837,0.813-0.902c0.358-0.066,0.733,0.154,1.056,0.562
	c-0.313-0.139-0.651-0.189-0.985-0.131C299.051,239.362,298.752,239.527,298.506,239.77"/>
<g opacity="0.3">
	<g>
		<defs>
			<polygon id="SVGID_27_" points="302.104,255.226 309.404,243.375 299.082,237.021 291.788,248.869 			"/>
		</defs>
		<clipPath id="SVGID_28_">
			<use xlink:href="#SVGID_27_"  overflow="visible"/>
		</clipPath>
		<path clip-path="url(#SVGID_28_)" fill="#B9ADC7" d="M299.032,237.15c-0.009-0.004-0.021,0.001-0.03,0.004l3.081,18.054
			c0.442-0.259,0.588-2.999,0.318-4.611l-1.295-9.529C300.723,238.766,299.795,237.006,299.032,237.15"/>
	</g>
</g>
<rect x="285.004" y="27.527" fill-rule="evenodd" clip-rule="evenodd" fill="none" width="63.18" height="9.945"/>
<text transform="matrix(1 0 0 1 285.002 36.5566)" fill="#040000" font-family="'DFYuanStd-W5-B5pc-H'" font-size="10.5">桃園國際機場</text>
<rect x="223.814" y="259.453" fill-rule="evenodd" clip-rule="evenodd" fill="none" width="63.182" height="10.422"/>
<text transform="matrix(1 0 0 1 223.8154 268.4824)" fill="#040000" font-family="'DFYuanStd-W5-B5pc-H'" font-size="10.5">檳城國際機場</text>
<circle fill="#040000" cx="291.165" cy="264.664" r="2.146"/>
<circle fill="#040000" cx="352.501" cy="32.5" r="2.146"/>
</svg>
