<?xml version="1.0" encoding="UTF-8" standalone="no"?>
<!DOCTYPE svg PUBLIC "-//W3C//DTD SVG 1.1//EN" "http://www.w3.org/Graphics/SVG/1.1/DTD/svg11.dtd">
<svg width="100%" height="100%" viewBox="0 0 800 470" version="1.1" xmlns="http://www.w3.org/2000/svg" xmlns:xlink="http://www.w3.org/1999/xlink" xml:space="preserve" xmlns:serif="http://www.serif.com/" style="fill-rule:evenodd;clip-rule:evenodd;stroke-linejoin:round;stroke-miterlimit:2;">
    <g class="cp" transform="matrix(3.52956,0,0,3.54775,-815.243,-1656.62)">
        <path d="M308.292,485.181L311.028,485.181C310.944,484.437 310.74,483.777 310.416,483.201C310.092,482.625 309.681,482.142 309.183,481.752C308.685,481.362 308.121,481.065 307.491,480.861C306.861,480.657 306.192,480.555 305.484,480.555C304.5,480.555 303.615,480.729 302.829,481.077C302.043,481.425 301.38,481.905 300.84,482.517C300.3,483.129 299.886,483.846 299.598,484.668C299.31,485.49 299.166,486.381 299.166,487.341C299.166,488.277 299.31,489.15 299.598,489.96C299.886,490.77 300.3,491.475 300.84,492.075C301.38,492.675 302.043,493.146 302.829,493.488C303.615,493.83 304.5,494.001 305.484,494.001C306.276,494.001 307.002,493.881 307.662,493.641C308.322,493.401 308.898,493.053 309.39,492.597C309.882,492.141 310.278,491.589 310.578,490.941C310.878,490.293 311.064,489.567 311.136,488.763L308.4,488.763C308.292,489.627 307.995,490.323 307.509,490.851C307.023,491.379 306.348,491.643 305.484,491.643C304.848,491.643 304.308,491.52 303.864,491.274C303.42,491.028 303.06,490.701 302.784,490.293C302.508,489.885 302.307,489.426 302.181,488.916C302.055,488.406 301.992,487.881 301.992,487.341C301.992,486.777 302.055,486.231 302.181,485.703C302.307,485.175 302.508,484.704 302.784,484.29C303.06,483.876 303.42,483.546 303.864,483.3C304.308,483.054 304.848,482.931 305.484,482.931C305.832,482.931 306.165,482.988 306.483,483.102C306.801,483.216 307.086,483.375 307.338,483.579C307.59,483.783 307.8,484.02 307.968,484.29C308.136,484.56 308.244,484.857 308.292,485.181Z"/>
        <path d="M312.792,484.407L312.792,493.713L315.348,493.713L315.348,489.519C315.348,489.099 315.39,488.709 315.474,488.349C315.558,487.989 315.699,487.674 315.897,487.404C316.095,487.134 316.356,486.921 316.68,486.765C317.004,486.609 317.4,486.531 317.868,486.531C318.024,486.531 318.186,486.54 318.354,486.558C318.522,486.576 318.666,486.597 318.786,486.621L318.786,484.245C318.582,484.185 318.396,484.155 318.228,484.155C317.904,484.155 317.592,484.203 317.292,484.299C316.992,484.395 316.71,484.53 316.446,484.704C316.182,484.878 315.948,485.088 315.744,485.334C315.54,485.58 315.378,485.847 315.258,486.135L315.222,486.135L315.222,484.407L312.792,484.407Z"/>
        <path d="M325.734,488.061L321.576,488.061C321.588,487.881 321.627,487.677 321.693,487.449C321.759,487.221 321.873,487.005 322.035,486.801C322.197,486.597 322.413,486.426 322.683,486.288C322.953,486.15 323.292,486.081 323.7,486.081C324.324,486.081 324.789,486.249 325.095,486.585C325.401,486.921 325.614,487.413 325.734,488.061ZM321.576,489.681L328.29,489.681C328.338,488.961 328.278,488.271 328.11,487.611C327.942,486.951 327.669,486.363 327.291,485.847C326.913,485.331 326.43,484.92 325.842,484.614C325.254,484.308 324.564,484.155 323.772,484.155C323.064,484.155 322.419,484.281 321.837,484.533C321.255,484.785 320.754,485.13 320.334,485.568C319.914,486.006 319.59,486.525 319.362,487.125C319.134,487.725 319.02,488.373 319.02,489.069C319.02,489.789 319.131,490.449 319.353,491.049C319.575,491.649 319.89,492.165 320.298,492.597C320.706,493.029 321.204,493.362 321.792,493.596C322.38,493.83 323.04,493.947 323.772,493.947C324.828,493.947 325.728,493.707 326.472,493.227C327.216,492.747 327.768,491.949 328.128,490.833L325.878,490.833C325.794,491.121 325.566,491.394 325.194,491.652C324.822,491.91 324.378,492.039 323.862,492.039C323.142,492.039 322.59,491.853 322.206,491.481C321.822,491.109 321.612,490.509 321.576,489.681Z"/>
        <path d="M329.694,487.269C329.73,486.669 329.88,486.171 330.144,485.775C330.408,485.379 330.744,485.061 331.152,484.821C331.56,484.581 332.019,484.41 332.529,484.308C333.039,484.206 333.552,484.155 334.068,484.155C334.536,484.155 335.01,484.188 335.49,484.254C335.97,484.32 336.408,484.449 336.804,484.641C337.2,484.833 337.524,485.1 337.776,485.442C338.028,485.784 338.154,486.237 338.154,486.801L338.154,491.643C338.154,492.063 338.178,492.465 338.226,492.849C338.274,493.233 338.358,493.521 338.478,493.713L335.886,493.713C335.838,493.569 335.799,493.422 335.769,493.272C335.739,493.122 335.718,492.969 335.706,492.813C335.298,493.233 334.818,493.527 334.266,493.695C333.714,493.863 333.15,493.947 332.574,493.947C332.13,493.947 331.716,493.893 331.332,493.785C330.948,493.677 330.612,493.509 330.324,493.281C330.036,493.053 329.811,492.765 329.649,492.417C329.487,492.069 329.406,491.655 329.406,491.175C329.406,490.647 329.499,490.212 329.685,489.87C329.871,489.528 330.111,489.255 330.405,489.051C330.699,488.847 331.035,488.694 331.413,488.592C331.791,488.49 332.172,488.409 332.556,488.349C332.94,488.289 333.318,488.241 333.69,488.205C334.062,488.169 334.392,488.115 334.68,488.043C334.968,487.971 335.196,487.866 335.364,487.728C335.532,487.59 335.61,487.389 335.598,487.125C335.598,486.849 335.553,486.63 335.463,486.468C335.373,486.306 335.253,486.18 335.103,486.09C334.953,486 334.779,485.94 334.581,485.91C334.383,485.88 334.17,485.865 333.942,485.865C333.438,485.865 333.042,485.973 332.754,486.189C332.466,486.405 332.298,486.765 332.25,487.269L329.694,487.269ZM335.598,489.159C335.49,489.255 335.355,489.33 335.193,489.384C335.031,489.438 334.857,489.483 334.671,489.519C334.485,489.555 334.29,489.585 334.086,489.609C333.882,489.633 333.678,489.663 333.474,489.699C333.282,489.735 333.093,489.783 332.907,489.843C332.721,489.903 332.559,489.984 332.421,490.086C332.283,490.188 332.172,490.317 332.088,490.473C332.004,490.629 331.962,490.827 331.962,491.067C331.962,491.295 332.004,491.487 332.088,491.643C332.172,491.799 332.286,491.922 332.43,492.012C332.574,492.102 332.742,492.165 332.934,492.201C333.126,492.237 333.324,492.255 333.528,492.255C334.032,492.255 334.422,492.171 334.698,492.003C334.974,491.835 335.178,491.634 335.31,491.4C335.442,491.166 335.523,490.929 335.553,490.689C335.583,490.449 335.598,490.257 335.598,490.113L335.598,489.159Z"/>
        <path d="M343.374,484.407L343.374,481.617L340.818,481.617L340.818,484.407L339.27,484.407L339.27,486.117L340.818,486.117L340.818,491.607C340.818,492.075 340.896,492.453 341.052,492.741C341.208,493.029 341.421,493.251 341.691,493.407C341.961,493.563 342.273,493.668 342.627,493.722C342.981,493.776 343.356,493.803 343.752,493.803C344.004,493.803 344.262,493.797 344.526,493.785C344.79,493.773 345.03,493.749 345.246,493.713L345.246,491.733C345.126,491.757 345,491.775 344.868,491.787C344.736,491.799 344.598,491.805 344.454,491.805C344.022,491.805 343.734,491.733 343.59,491.589C343.446,491.445 343.374,491.157 343.374,490.725L343.374,486.117L345.246,486.117L345.246,484.407L343.374,484.407Z"/>
        <path d="M349.098,482.967L349.098,480.861L346.542,480.861L346.542,482.967L349.098,482.967ZM346.542,484.407L346.542,493.713L349.098,493.713L349.098,484.407L346.542,484.407Z"/>
        <path d="M356.262,493.713L359.412,484.407L356.874,484.407L354.912,490.761L354.876,490.761L352.914,484.407L350.232,484.407L353.418,493.713L356.262,493.713Z"/>
        <path d="M366.738,488.061L362.58,488.061C362.592,487.881 362.631,487.677 362.697,487.449C362.763,487.221 362.877,487.005 363.039,486.801C363.201,486.597 363.417,486.426 363.687,486.288C363.957,486.15 364.296,486.081 364.704,486.081C365.328,486.081 365.793,486.249 366.099,486.585C366.405,486.921 366.618,487.413 366.738,488.061ZM362.58,489.681L369.294,489.681C369.342,488.961 369.282,488.271 369.114,487.611C368.946,486.951 368.673,486.363 368.295,485.847C367.917,485.331 367.434,484.92 366.846,484.614C366.258,484.308 365.568,484.155 364.776,484.155C364.068,484.155 363.423,484.281 362.841,484.533C362.259,484.785 361.758,485.13 361.338,485.568C360.918,486.006 360.594,486.525 360.366,487.125C360.138,487.725 360.024,488.373 360.024,489.069C360.024,489.789 360.135,490.449 360.357,491.049C360.579,491.649 360.894,492.165 361.302,492.597C361.71,493.029 362.208,493.362 362.796,493.596C363.384,493.83 364.044,493.947 364.776,493.947C365.832,493.947 366.732,493.707 367.476,493.227C368.22,492.747 368.772,491.949 369.132,490.833L366.882,490.833C366.798,491.121 366.57,491.394 366.198,491.652C365.826,491.91 365.382,492.039 364.866,492.039C364.146,492.039 363.594,491.853 363.21,491.481C362.826,491.109 362.616,490.509 362.58,489.681Z"/>
        <path d="M378.906,486.909L378.906,483.057L381.102,483.057C381.426,483.057 381.738,483.081 382.038,483.129C382.338,483.177 382.602,483.27 382.83,483.408C383.058,483.546 383.241,483.741 383.379,483.993C383.517,484.245 383.586,484.575 383.586,484.983C383.586,485.391 383.517,485.721 383.379,485.973C383.241,486.225 383.058,486.42 382.83,486.558C382.602,486.696 382.338,486.789 382.038,486.837C381.738,486.885 381.426,486.909 381.102,486.909L378.906,486.909ZM376.08,480.861L376.08,493.713L378.906,493.713L378.906,489.105L381.876,489.105C382.68,489.105 383.364,488.988 383.928,488.754C384.492,488.52 384.951,488.211 385.305,487.827C385.659,487.443 385.917,487.002 386.079,486.504C386.241,486.006 386.322,485.499 386.322,484.983C386.322,484.455 386.241,483.945 386.079,483.453C385.917,482.961 385.659,482.523 385.305,482.139C384.951,481.755 384.492,481.446 383.928,481.212C383.364,480.978 382.68,480.861 381.876,480.861L376.08,480.861Z"/>
        <path d="M390.084,489.069C390.084,488.697 390.12,488.331 390.192,487.971C390.264,487.611 390.387,487.293 390.561,487.017C390.735,486.741 390.966,486.516 391.254,486.342C391.542,486.168 391.902,486.081 392.334,486.081C392.766,486.081 393.129,486.168 393.423,486.342C393.717,486.516 393.951,486.741 394.125,487.017C394.299,487.293 394.422,487.611 394.494,487.971C394.566,488.331 394.602,488.697 394.602,489.069C394.602,489.441 394.566,489.804 394.494,490.158C394.422,490.512 394.299,490.83 394.125,491.112C393.951,491.394 393.717,491.619 393.423,491.787C393.129,491.955 392.766,492.039 392.334,492.039C391.902,492.039 391.542,491.955 391.254,491.787C390.966,491.619 390.735,491.394 390.561,491.112C390.387,490.83 390.264,490.512 390.192,490.158C390.12,489.804 390.084,489.441 390.084,489.069ZM387.528,489.069C387.528,489.813 387.642,490.485 387.87,491.085C388.098,491.685 388.422,492.198 388.842,492.624C389.262,493.05 389.766,493.377 390.354,493.605C390.942,493.833 391.602,493.947 392.334,493.947C393.066,493.947 393.729,493.833 394.323,493.605C394.917,493.377 395.424,493.05 395.844,492.624C396.264,492.198 396.588,491.685 396.816,491.085C397.044,490.485 397.158,489.813 397.158,489.069C397.158,488.325 397.044,487.65 396.816,487.044C396.588,486.438 396.264,485.922 395.844,485.496C395.424,485.07 394.917,484.74 394.323,484.506C393.729,484.272 393.066,484.155 392.334,484.155C391.602,484.155 390.942,484.272 390.354,484.506C389.766,484.74 389.262,485.07 388.842,485.496C388.422,485.922 388.098,486.438 387.87,487.044C387.642,487.65 387.528,488.325 387.528,489.069Z"/>
        <path d="M398.814,484.407L398.814,493.713L401.37,493.713L401.37,489.519C401.37,489.099 401.412,488.709 401.496,488.349C401.58,487.989 401.721,487.674 401.919,487.404C402.117,487.134 402.378,486.921 402.702,486.765C403.026,486.609 403.422,486.531 403.89,486.531C404.046,486.531 404.208,486.54 404.376,486.558C404.544,486.576 404.688,486.597 404.808,486.621L404.808,484.245C404.604,484.185 404.418,484.155 404.25,484.155C403.926,484.155 403.614,484.203 403.314,484.299C403.014,484.395 402.732,484.53 402.468,484.704C402.204,484.878 401.97,485.088 401.766,485.334C401.562,485.58 401.4,485.847 401.28,486.135L401.244,486.135L401.244,484.407L398.814,484.407Z"/>
        <path d="M409.056,484.407L409.056,481.617L406.5,481.617L406.5,484.407L404.952,484.407L404.952,486.117L406.5,486.117L406.5,491.607C406.5,492.075 406.578,492.453 406.734,492.741C406.89,493.029 407.103,493.251 407.373,493.407C407.643,493.563 407.955,493.668 408.309,493.722C408.663,493.776 409.038,493.803 409.434,493.803C409.686,493.803 409.944,493.797 410.208,493.785C410.472,493.773 410.712,493.749 410.928,493.713L410.928,491.733C410.808,491.757 410.682,491.775 410.55,491.787C410.418,491.799 410.28,491.805 410.136,491.805C409.704,491.805 409.416,491.733 409.272,491.589C409.128,491.445 409.056,491.157 409.056,490.725L409.056,486.117L410.928,486.117L410.928,484.407L409.056,484.407Z"/>
        <path d="M412.71,486.117L412.71,493.713L415.266,493.713L415.266,486.117L417.03,486.117L417.03,484.407L415.266,484.407L415.266,483.849C415.266,483.465 415.341,483.192 415.491,483.03C415.641,482.868 415.89,482.787 416.238,482.787C416.562,482.787 416.874,482.805 417.174,482.841L417.174,480.933C416.958,480.921 416.736,480.906 416.508,480.888C416.28,480.87 416.052,480.861 415.824,480.861C414.78,480.861 414,481.125 413.484,481.653C412.968,482.181 412.71,482.859 412.71,483.687L412.71,484.407L411.18,484.407L411.18,486.117L412.71,486.117Z"/>
        <path d="M420.414,489.069C420.414,488.697 420.45,488.331 420.522,487.971C420.594,487.611 420.717,487.293 420.891,487.017C421.065,486.741 421.296,486.516 421.584,486.342C421.872,486.168 422.232,486.081 422.664,486.081C423.096,486.081 423.459,486.168 423.753,486.342C424.047,486.516 424.281,486.741 424.455,487.017C424.629,487.293 424.752,487.611 424.824,487.971C424.896,488.331 424.932,488.697 424.932,489.069C424.932,489.441 424.896,489.804 424.824,490.158C424.752,490.512 424.629,490.83 424.455,491.112C424.281,491.394 424.047,491.619 423.753,491.787C423.459,491.955 423.096,492.039 422.664,492.039C422.232,492.039 421.872,491.955 421.584,491.787C421.296,491.619 421.065,491.394 420.891,491.112C420.717,490.83 420.594,490.512 420.522,490.158C420.45,489.804 420.414,489.441 420.414,489.069ZM417.858,489.069C417.858,489.813 417.972,490.485 418.2,491.085C418.428,491.685 418.752,492.198 419.172,492.624C419.592,493.05 420.096,493.377 420.684,493.605C421.272,493.833 421.932,493.947 422.664,493.947C423.396,493.947 424.059,493.833 424.653,493.605C425.247,493.377 425.754,493.05 426.174,492.624C426.594,492.198 426.918,491.685 427.146,491.085C427.374,490.485 427.488,489.813 427.488,489.069C427.488,488.325 427.374,487.65 427.146,487.044C426.918,486.438 426.594,485.922 426.174,485.496C425.754,485.07 425.247,484.74 424.653,484.506C424.059,484.272 423.396,484.155 422.664,484.155C421.932,484.155 421.272,484.272 420.684,484.506C420.096,484.74 419.592,485.07 419.172,485.496C418.752,485.922 418.428,486.438 418.2,487.044C417.972,487.65 417.858,488.325 417.858,489.069Z"/>
        <rect x="429.216" y="480.861" width="2.556" height="12.852"/>
        <path d="M436.416,482.967L436.416,480.861L433.86,480.861L433.86,482.967L436.416,482.967ZM433.86,484.407L433.86,493.713L436.416,493.713L436.416,484.407L433.86,484.407Z"/>
        <path d="M440.7,489.069C440.7,488.697 440.736,488.331 440.808,487.971C440.88,487.611 441.003,487.293 441.177,487.017C441.351,486.741 441.582,486.516 441.87,486.342C442.158,486.168 442.518,486.081 442.95,486.081C443.382,486.081 443.745,486.168 444.039,486.342C444.333,486.516 444.567,486.741 444.741,487.017C444.915,487.293 445.038,487.611 445.11,487.971C445.182,488.331 445.218,488.697 445.218,489.069C445.218,489.441 445.182,489.804 445.11,490.158C445.038,490.512 444.915,490.83 444.741,491.112C444.567,491.394 444.333,491.619 444.039,491.787C443.745,491.955 443.382,492.039 442.95,492.039C442.518,492.039 442.158,491.955 441.87,491.787C441.582,491.619 441.351,491.394 441.177,491.112C441.003,490.83 440.88,490.512 440.808,490.158C440.736,489.804 440.7,489.441 440.7,489.069ZM438.144,489.069C438.144,489.813 438.258,490.485 438.486,491.085C438.714,491.685 439.038,492.198 439.458,492.624C439.878,493.05 440.382,493.377 440.97,493.605C441.558,493.833 442.218,493.947 442.95,493.947C443.682,493.947 444.345,493.833 444.939,493.605C445.533,493.377 446.04,493.05 446.46,492.624C446.88,492.198 447.204,491.685 447.432,491.085C447.66,490.485 447.774,489.813 447.774,489.069C447.774,488.325 447.66,487.65 447.432,487.044C447.204,486.438 446.88,485.922 446.46,485.496C446.04,485.07 445.533,484.74 444.939,484.506C444.345,484.272 443.682,484.155 442.95,484.155C442.218,484.155 441.558,484.272 440.97,484.506C440.382,484.74 439.878,485.07 439.458,485.496C439.038,485.922 438.714,486.438 438.486,487.044C438.258,487.65 438.144,488.325 438.144,489.069Z"/>
        <path d="M448.854,491.787L448.854,493.713L457.404,493.713L457.404,491.787L452.22,491.787L457.062,486.333L457.062,484.407L449.214,484.407L449.214,486.333L453.696,486.333L448.854,491.787Z"/>
    </g>
    <g class="j" transform="matrix(0.944797,0,0,0.944797,-215.655,1.7343)">
        <path d="M332.303,19.164L332.303,-0.856L504.049,-0.856L504.049,19.164L479.288,19.164C461.376,19.164 452.42,25.661 452.42,38.656L452.42,292.061C452.42,322.617 441.62,347.466 420.02,366.607C398.42,385.749 369.883,395.32 334.41,395.32C303.854,395.32 278.566,386.364 258.547,368.451C238.527,350.539 228.517,328.061 228.517,301.017C228.517,281.7 233.259,266.071 242.742,254.129C252.225,242.188 264.693,236.217 280.147,236.217C292.088,236.217 301.922,239.905 309.649,247.281C317.376,254.656 321.239,264.49 321.239,276.783C321.239,286.968 318.254,295.573 312.283,302.598C306.313,309.622 299.113,313.134 290.683,313.134C287.874,313.134 283.659,312.256 278.039,310.5C272.42,308.744 268.908,307.866 267.503,307.866C260.83,307.866 257.493,312.607 257.493,322.09C257.493,336.139 264.166,348.432 277.513,358.968C290.859,369.505 307.366,374.773 327.035,374.773C348.108,374.773 365.054,367.134 377.874,351.856C390.693,336.578 397.103,315.593 397.103,288.9L397.103,38.656C397.103,30.578 394.82,25.31 390.254,22.851C385.688,20.393 377.61,19.164 366.02,19.164L332.303,19.164Z" style="fill-rule:nonzero;"/>
    </g>
    <g class="a" transform="matrix(0.944797,0,0,0.944797,-215.655,1.7343)">
        <path d="M583.074,177.212C583.074,178.617 586.059,184.412 592.03,194.598C595.191,199.866 596.771,204.607 596.771,208.822C596.771,226.383 587.639,235.164 569.376,235.164C560.244,235.164 552.781,232.442 546.986,226.998C541.191,221.554 538.293,213.739 538.293,203.554C538.293,185.29 548.478,169.222 568.849,155.349C589.22,141.476 614.683,134.539 645.239,134.539C672.986,134.539 694.849,140.598 710.83,152.715C726.81,164.832 734.8,180.549 734.8,199.866L734.8,335.261C734.8,358.09 741.825,369.505 755.874,369.505C759.737,369.505 763.337,368.89 766.674,367.661C770.01,366.432 773.61,364.412 777.474,361.603L787.483,375.827C774.839,389.173 760.791,395.846 745.337,395.846C721.103,395.846 703.717,381.095 693.181,351.593C677.727,367.749 664.381,378.812 653.142,384.783C639.444,392.159 622.761,395.846 603.093,395.846C578.859,395.846 559.981,390.578 546.459,380.042C532.937,369.505 526.176,355.456 526.176,337.895C526.176,312.959 540.664,291.798 569.639,274.412C598.615,257.027 639.093,245.349 691.074,239.378L691.074,202.5C691.074,188.1 685.717,176.334 675.005,167.203C664.293,158.071 650.859,153.505 634.703,153.505C621.005,153.505 608.976,156.227 598.615,161.671C588.254,167.115 583.074,172.295 583.074,177.212ZM691.074,292.588L691.074,257.29C650.332,262.91 620.742,271.427 602.303,282.842C583.864,294.256 574.644,310.851 574.644,332.627C574.644,345.973 578.244,356.422 585.444,363.973C592.644,371.525 602.391,375.3 614.683,375.3C635.054,375.3 652.878,367.486 668.156,351.856C683.435,336.227 691.074,316.471 691.074,292.588Z" style="fill-rule:nonzero;"/>
    </g>
    <g class="y" transform="matrix(0.944797,0,0,0.944797,-215.655,1.7343)">
        <path d="M805.396,159.827L805.396,141.388L923.405,141.388L923.405,159.827L906.547,159.827C892.498,159.827 885.474,164.568 885.474,174.051C885.474,176.861 886,179.671 887.054,182.481L956.069,330.52L1007.17,207.768C1010.68,199.69 1012.44,191.086 1012.44,181.954C1012.44,167.203 999.796,159.827 974.508,159.827L974.508,141.388L1076.71,141.388L1076.71,159.827C1058.1,159.827 1044.75,168.607 1036.67,186.168L945.532,398.481C931.483,430.793 916.908,454.764 901.805,470.393C886.703,486.022 868.966,493.837 848.596,493.837C835.249,493.837 824.625,490.237 816.722,483.037C808.82,475.837 804.869,466.968 804.869,456.432C804.869,448.003 807.152,441.329 811.717,436.412C816.283,431.495 822.43,429.037 830.156,429.037C837.181,429.037 842.8,431.144 847.015,435.359C851.23,439.573 853.337,445.017 853.337,451.69L851.756,464.861C851.756,469.427 854.566,471.71 860.186,471.71C873.883,471.71 886.527,463.807 898.117,448.003C904.791,438.871 916.556,417.271 933.415,383.203L839.639,182.481C836.127,174.754 831.825,169.31 826.732,166.149C821.639,162.988 814.527,160.881 805.396,159.827Z" style="fill-rule:nonzero;"/>
    </g>
</svg>
