<?xml version="1.0" encoding="utf-8"?>
<!-- Generator: Adobe Illustrator 28.1.0, SVG Export Plug-In . SVG Version: 6.00 Build 0)  -->
<svg version="1.1" id="圖層_1" xmlns="http://www.w3.org/2000/svg" xmlns:xlink="http://www.w3.org/1999/xlink" x="0px" y="0px"
	 viewBox="0 0 26 55" style="enable-background:new 0 0 26 55;" xml:space="preserve">
<style type="text/css">
	.st0{fill:#85A220;}
</style>
<g>
	<path class="st0" d="M2.2,2.9C3,2.6,3.2,1.8,2.9,1c0-0.1-0.1-0.2-0.2-0.3c0-0.1-0.1-0.1-0.2-0.2C2-0.3,0.4-0.1,0.1,1.1
		C0,1.2,0,1.3,0,1.4c0,0.1,0,0.2,0,0.2C0,1.8,0,1.9,0.1,2c0,0,0,0.1,0,0.1c0,0.1,0.1,0.2,0.1,0.3C0.7,3.1,1.5,3.3,2.2,2.9z"/>
	<g>
		<path class="st0" d="M10.6,18.6c-0.4,0-0.2,0.4-0.3,0.6c0,0.1,0,0.3,0,0.4c0,0.2,0,0.3,0.2,0.4c0.2,0,0.4,0,0.5-0.2
			c0.1-0.2,0.1-0.4,0.1-0.6C11.1,18.8,11,18.6,10.6,18.6z"/>
		<path class="st0" d="M10.5,17.9c0.3,0,0.4-0.1,0.5-0.4c0.1-0.2,0-0.4,0-0.6c-0.1-0.2-0.2-0.4-0.4-0.3c-0.2,0-0.2,0.2-0.2,0.4
			c0,0.1,0,0.2,0,0.2c0,0.1,0,0.2,0,0.2C10.3,17.6,10.2,17.9,10.5,17.9z"/>
		<path class="st0" d="M19.3,18.6c-0.4,0-0.2,0.4-0.3,0.6c0,0.1,0,0.3,0,0.4c0,0.2,0,0.4,0.3,0.4c0.2,0,0.4-0.1,0.5-0.3
			c0.1-0.2,0.1-0.3,0-0.5C19.8,18.8,19.6,18.6,19.3,18.6z"/>
		<path class="st0" d="M19.2,17.9c0.2,0,0.4-0.1,0.5-0.3c0.1-0.3,0.1-0.5-0.1-0.7c-0.1-0.2-0.2-0.3-0.4-0.2C19,16.6,19,16.8,19,17
			c0,0.1,0,0.2,0,0.3c0,0.1,0,0.2,0,0.2C19,17.6,18.9,17.9,19.2,17.9z"/>
		<path class="st0" d="M25.3,8.8c0.5,0,0.7-0.2,0.7-0.7c0-0.2,0-0.5,0-0.7c0-0.4-0.2-0.6-0.7-0.6c-0.3,0-0.7,0-1.1,0
			c0.1-0.2,0.2-0.2,0.3-0.3c0.7-0.7,0.9-1.6,0.6-2.5c-0.4-1.3-2-1.6-2.9-0.7c0,0,0,0,0,0l0,0c0,0,0,0,0,0c-0.4,0.3-0.5,0.8-0.4,1.2
			c0.1,0.8,0.7,1.2,1.4,1.4c-1,0.5-1.9,0.7-2.9,0.6c-1.3-0.1-2.6-0.6-3.7-1.2c-1.2-0.6-2.5-1.2-3.8-1.7C9.5,2.5,6.3,2.2,3.1,3.8
			C3,3.9,2.9,3.9,2.9,3.8C2.8,3.5,2.5,3.4,2.2,3.4c-0.4,0-0.8,0-1.2,0c-0.7,0-0.9,0.2-0.9,0.8c0,7.6,0,42.6,0,50.3
			c0,0.2,0,0.4,0,0.6c0,0.6,0.2,0.7,0.8,0.7c0.4,0,0.8,0,1.1,0c0.8,0,0.9-0.1,0.9-0.9c0-6.1,0-39.7,0-45.8c0-0.3,0.1-0.4,0.4-0.4
			c1.2,0,2.5,0,3.7,0c0.1,0,0.2-0.1,0.3,0c-0.5,0.7-0.5,1.3-0.2,2H6.5c-0.5,0-0.9,0.2-1.2,0.4C5,11.6,4.7,12,4.6,12.4c0,0,0,0,0,0
			c0,0,0,0,0,0c0,0.1-0.1,0.3-0.1,0.5v10.6c0,1,0.8,1.8,1.7,2c0.1,0,0.1,0,0.2,0h16.8c0.1,0,0.2,0,0.3,0c1-0.1,1.7-1,1.7-1.9V12.9
			c0-0.6-0.3-1.2-0.8-1.6c-0.3-0.2-0.7-0.4-1.2-0.4h-0.5c0.3-0.7,0.3-1.4-0.2-2.1C23.6,8.8,24.4,8.8,25.3,8.8z M21.4,9.8
			c0-0.3,0.2-0.5,0.5-0.5c0.3,0,0.5,0.2,0.5,0.5c0,0.1,0,0.2,0,0.2c0,0,0,0,0,0c0,0.1,0,0.2,0,0.3c0,0.3-0.2,0.5-0.5,0.5
			c-0.3,0-0.5-0.2-0.5-0.5C21.4,10.2,21.4,10,21.4,9.8z M3.3,6.8C3.2,6.8,3,6.9,2.9,6.7c0-0.2,0-0.4,0.2-0.6C4.4,5,5.9,4.5,7.6,4.5
			c2.6-0.1,5.1,0.7,7.4,1.7c0.4,0.2,0.7,0.3,1,0.5c0,0,0,0.1,0,0.1c-0.3,0-0.6,0-0.9,0C11.2,6.8,7.3,6.8,3.3,6.8z M8.6,10.4
			c0,0.3-0.2,0.4-0.5,0.5c-0.3,0-0.5-0.1-0.5-0.4c0-0.2,0-0.4,0-0.6c0-0.4,0.2-0.6,0.5-0.6c0.3,0,0.5,0.2,0.5,0.6c0,0.1,0,0.2,0,0.2
			c0,0,0,0,0,0C8.6,10.2,8.6,10.3,8.6,10.4z M12.4,20.4c-0.4,0.2-0.7,0.3-1.1,0.3c-0.4,0-0.8,0-1.2,0c-0.4,0-0.9,0-1.3,0
			c-0.2,0-0.4,0-0.5-0.2c-0.1-0.2,0.1-0.3,0.2-0.5c0.2-0.2,0.2-0.4,0.2-0.6c0-0.7,0.1-1.5,0.1-2.2c0-0.3,0-0.5-0.3-0.7
			c-0.1-0.1-0.2-0.2-0.2-0.3c0-0.1,0.1-0.2,0.3-0.3c0.1,0,0.2,0,0.3,0c0.8,0.1,1.7,0,2.5,0c0.2,0,0.4,0,0.6,0.1
			c0.8,0.2,1.1,1.1,0.5,1.8c-0.2,0.2-0.2,0.3,0,0.4C13.5,18.7,13.1,20,12.4,20.4z M16.6,18c-0.2,0.2-0.5,0.3-0.1,0.6
			c0.2,0.2,0,0.4-0.1,0.6c-0.6,0.8-2.3,0.8-2.9,0c-0.3-0.4-0.3-0.8,0.1-1.1c0.1-0.1,0.1-0.2,0.1-0.3c-0.1-0.5,0-0.7,0.5-0.9
			c0.3-0.1,0.6-0.1,0.9,0c0.1,0.1,0.3,0.2,0.2,0.4c-0.1,0.1-0.2,0.2-0.3,0.1c0,0-0.1,0-0.1-0.1c-0.1-0.1-0.3,0-0.3,0.1
			c-0.1,0.2-0.1,0.3,0.1,0.3c0.1,0,0.2,0,0.2,0.2c0,0.1-0.1,0.2-0.2,0.2c-0.4,0.1-0.3,0.3-0.2,0.5c0.3,0.5,0.8,0.7,1.2,0.3
			c0.1-0.1,0.2-0.3,0.1-0.4c-0.1-0.1-0.3-0.1-0.4,0c-0.2,0.3-0.3,0.1-0.4-0.1c0.1-0.5,0.4-0.6,0.8-0.8c0.3-0.1,0.3-0.1,0.1-0.3
			c-0.1-0.1,0-0.2,0.1-0.3c0.2-0.2,0.7-0.1,0.9,0.1C16.9,17.4,16.9,17.8,16.6,18z M21.7,19.3c-0.1,0.6-0.4,1-0.9,1.2
			c-0.4,0.2-0.9,0.2-1.3,0.1c-0.3,0-0.5,0-0.8,0c0,0,0,0,0,0.1c-0.5,0-0.9,0-1.4,0c-0.2,0-0.4-0.1-0.5-0.3c-0.1-0.2,0.1-0.3,0.2-0.4
			c0.2-0.2,0.2-0.4,0.3-0.7c0-0.7,0.1-1.4,0.1-2.1c0-0.3,0-0.5-0.4-0.7c-0.1,0-0.2-0.1-0.2-0.3c0-0.2,0.1-0.2,0.2-0.3
			c0.1,0,0.2-0.1,0.2-0.1c1,0,2,0,3,0.1c0.4,0,0.8,0.2,0.9,0.7c0.2,0.4,0.1,0.9-0.3,1.2c-0.2,0.2-0.2,0.3,0,0.4
			C21.5,18.4,21.8,18.8,21.7,19.3z M9.1,10.9c0.3-0.7,0.3-1.4-0.2-2.1c4.1,0,8.2,0,12.3,0c-0.5,0.7-0.5,1.4-0.2,2.1H9.1z"/>
	</g>
</g>
</svg>
