<?xml version="1.0" encoding="utf-8"?>
<!-- Generator: Adobe Illustrator 28.1.0, SVG Export Plug-In . SVG Version: 6.00 Build 0)  -->
<svg version="1.1" id="圖層_1" xmlns="http://www.w3.org/2000/svg" xmlns:xlink="http://www.w3.org/1999/xlink" x="0px" y="0px"
	 viewBox="0 0 62 55" style="enable-background:new 0 0 62 55;" xml:space="preserve">
<style type="text/css">
	.st0{fill:#85A220;}
</style>
<path class="st0" d="M62.3,52c-0.5,0-0.4-0.4-0.4-0.7c0-1,0-2.1,0-3.1c0-0.2-0.1-0.6,0.3-0.7c0.6-0.2,0.3-0.6,0.3-0.9
	c0-0.4-0.4-0.2-0.6-0.2c-2.6,0-5.3,0-7.9,0c-0.5,0-0.7-0.1-0.7-0.7c0-2.4,0-4.9,0-7.3c0-0.7-0.2-1.3-0.8-1.7
	c-0.7-0.6-1.3-1.2-1.9-1.8c-0.2-0.2-0.4-0.4-0.4-0.8c0-4.3,0-8.6,0-12.8c0-0.4,0.1-0.5,0.5-0.5c0.8,0,1.6,0,2.4,0
	c0-0.1,0.1-0.1,0.1-0.2c-0.2-0.2-0.5-0.4-0.7-0.6c-2.3-2.1-4.5-4.3-6.8-6.4c-0.2-0.2-0.5-0.4-0.5-0.8c0-2.3,0-4.5,0-6.8
	c0-0.2-0.1-0.5,0.2-0.4C46.1,5.5,46,5,46,4.6c0-0.5,0-0.9,0-1.4c0-0.4-0.1-0.5-0.5-0.5c-1,0-2.1,0-3.1,0c-0.6,0-1.5-0.3-1.8,0.1
	c-0.3,0.4-0.1,1.2-0.1,1.8c0,0.4-0.1,0.8,0.6,0.8c0.3,0,0.2,0.3,0.2,0.5c0,1,0,2,0,3.2c-0.3-0.3-0.6-0.5-0.8-0.7
	c-2.9-2.7-5.8-5.5-8.7-8.2c-0.4-0.4-0.6-0.4-0.9,0c-7,6.6-14,13.3-21,19.9c-0.1,0.1-0.4,0.2-0.3,0.5c0.7,0,1.5,0,2.2,0
	c0.5,0,0.7,0.2,0.7,0.7c0,3.1,0,6.3,0,9.4c0,1.2,0.3,2.6-0.1,3.6c-0.4,1-1.6,1.7-2.5,2.5c-0.4,0.3-0.5,0.7-0.5,1.1
	c0,2.5,0,4.9,0,7.4c0,0.8-0.2,0.9-0.9,0.9c-2.6,0-5.1,0-7.7,0c-0.2,0-0.5-0.1-0.6,0.2c0,0.3-0.2,0.8,0.1,0.9
	c0.5,0.1,0.4,0.5,0.4,0.8c0,1,0,2.1,0,3.1c0,0.2,0.1,0.5-0.2,0.5c-0.5,0-0.4,0.4-0.4,0.7c0,0.6,0,1.1,0,1.7c0,0.5,0.1,0.6,0.6,0.6
	c20.4,0,40.8,0,61.2,0c0.2,0,0.3,0,0.5,0C62.6,54.8,62.5,52,62.3,52z M2.3,51.5c0,0.3-0.1,0.5-0.4,0.5c-0.4,0-0.4-0.2-0.4-0.5
	c0-1.2,0-2.4,0-3.5c0-0.3,0.1-0.5,0.4-0.5c0.4,0,0.4,0.2,0.4,0.5c0,0.6,0,1.2,0,1.8c0,0,0,0,0,0C2.3,50.3,2.3,50.9,2.3,51.5z
	 M4,49.7c0,0.6,0,1.1,0,1.7c0,0.3,0,0.6-0.5,0.6c-0.4,0-0.5-0.1-0.5-0.5c0-1.2,0-2.4,0-3.5c0-0.4,0.1-0.5,0.5-0.5
	c0.4,0,0.5,0.2,0.5,0.5C4,48.6,4,49.1,4,49.7z M5.2,52c-0.4,0-0.4-0.2-0.4-0.5c0-1.2,0-2.4,0-3.5c0-0.3,0.1-0.5,0.4-0.5
	c0.4,0,0.4,0.2,0.4,0.5c0,0.6,0,1.2,0,1.8c0,0.6,0,1.1,0,1.7C5.7,51.7,5.7,52,5.2,52z M7,52c-0.4,0-0.5-0.1-0.5-0.5
	c0-1.2,0-2.4,0-3.5c0-0.3,0.1-0.5,0.5-0.5c0.4,0,0.5,0.2,0.5,0.5c0,0.6,0,1.2,0,1.8c0,0.6,0,1.2,0,1.8C7.4,51.8,7.3,52,7,52z
	 M8.8,52c-0.4,0-0.5-0.1-0.5-0.5c0-1.2,0-2.4,0-3.5c0-0.4,0.2-0.5,0.5-0.5c0.4,0,0.5,0.2,0.5,0.5c0,0.6,0,1.2,0,1.8c0,0,0,0,0,0
	c0,0.6,0,1.1,0,1.7C9.2,51.8,9.2,52,8.8,52z M40.1,25.2c1.5,0,3.1,0,4.6,0c0.4,0,0.6,0.1,0.6,0.5c0,0.9,0,1.8,0,2.7
	c0,0.8,0,1.7,0,2.5c0,0.4-0.1,0.6-0.5,0.6c-1.6,0-3.1,0-4.7,0c-0.4,0-0.5-0.1-0.5-0.5c0-1.8,0-3.5,0-5.3
	C39.5,25.3,39.7,25.2,40.1,25.2z M28.4,8.1c0.2-1.2,1.4-2.2,2.8-2.3c1.4,0,2.7,1,2.9,2.2c0.1,0.4,0,0.6-0.4,0.5c-0.8,0-1.6,0-2.4,0
	c-0.8,0-1.6,0-2.4,0C28.4,8.5,28.4,8.4,28.4,8.1z M29,10.7c1.5,0,3.1,0,4.6,0c0.4,0,0.6,0.1,0.6,0.5c0,1.8,0,3.5,0,5.3
	c0,0.4-0.2,0.5-0.5,0.5c-1.6,0-3.1,0-4.7,0c-0.5,0-0.5-0.2-0.5-0.6c0-0.9,0-1.7,0-2.6c0-0.9,0-1.7,0-2.6
	C28.4,10.8,28.5,10.6,29,10.7z M28.4,25.7c0-0.4,0.1-0.5,0.6-0.5c1.5,0,3,0,4.5,0c0.5,0,0.7,0.1,0.6,0.6c0,0.9,0,1.8,0,2.7
	c0,0.8,0,1.7,0,2.5c0,0.4-0.1,0.6-0.5,0.6c-1.6,0-3.1,0-4.7,0c-0.4,0-0.5-0.1-0.5-0.5C28.4,29.3,28.4,27.5,28.4,25.7z M28.5,39.6
	c1.8,0,3.7,0,5.5,0c0.6,0,0.8,0.1,0.8,0.7c0,3.7,0,7.5,0,11.2c0,0.5-0.1,0.6-0.6,0.6c-1.9,0-3.9,0-5.8,0c-0.5,0-0.6-0.2-0.6-0.6
	c0-1.9,0-3.8,0-5.7c0-1.9,0-3.7,0-5.6C27.7,39.7,27.9,39.5,28.5,39.6z M17.8,25.2c1.5,0,3.1,0,4.6,0c0.4,0,0.6,0.1,0.6,0.5
	c0,0.9,0,1.8,0,2.7c0,0,0,0,0,0c0,0.9,0,1.7,0,2.6c0,0.4-0.1,0.6-0.5,0.6c-1.6,0-3.1,0-4.7,0c-0.4,0-0.5-0.1-0.5-0.5
	c0-1.8,0-3.5,0-5.3C17.3,25.3,17.4,25.2,17.8,25.2z M23,41.7c0,0.9,0,1.7,0,2.6c0,0.9,0,1.7,0,2.6c0,0.4-0.1,0.6-0.5,0.6
	c-1.6,0-3.1,0-4.7,0c-0.4,0-0.5-0.1-0.5-0.5c0-1.8,0-3.5,0-5.3c0-0.5,0.2-0.5,0.6-0.5c1.5,0,3.1,0,4.6,0C22.9,41.1,23,41.3,23,41.7z
	 M34.8,53.9c-2.4,0-4.8,0-7.2,0c-0.3,0-0.5,0-0.5-0.4c0-0.4,0.2-0.4,0.5-0.4c1.2,0,2.4,0,3.6,0c1.2,0,2.4,0,3.6,0
	c0.3,0,0.5-0.1,0.5,0.4C35.4,53.9,35.1,53.9,34.8,53.9z M45.2,41.8c0,0.9,0,1.7,0,2.6c0,0.8,0,1.7,0,2.5c0,0.4-0.1,0.6-0.6,0.6
	c-1.5,0-3.1,0-4.6,0c-0.5,0-0.6-0.2-0.6-0.6c0-1.7,0-3.4,0-5.1c0-0.5,0.1-0.7,0.6-0.7c1.5,0,3,0,4.5,0
	C45.2,41.1,45.2,41.3,45.2,41.8z M53.7,52c-0.4,0-0.5-0.2-0.5-0.5c0-1.2,0-2.3,0-3.5c0-0.4,0.1-0.5,0.5-0.5c0.4,0,0.5,0.1,0.5,0.5
	c0,0.6,0,1.2,0,1.8c0,0.6,0,1.1,0,1.7C54.3,51.8,54.2,52,53.7,52z M56,51.5c0,0.3-0.1,0.5-0.4,0.5c-0.3,0-0.5-0.1-0.5-0.5
	c0-1.2,0-2.4,0-3.6c0-0.4,0.2-0.4,0.5-0.4c0.4,0,0.4,0.2,0.4,0.5c0,0.6,0,1.2,0,1.8C56,50.3,56,50.9,56,51.5z M57.7,49.7
	c0,0.6,0,1.2,0,1.8c0,0.3,0,0.5-0.4,0.5c-0.4,0-0.4-0.2-0.4-0.5c0-1.2,0-2.4,0-3.5c0-0.3,0-0.5,0.4-0.5c0.4,0,0.4,0.2,0.4,0.5
	C57.6,48.5,57.7,49.1,57.7,49.7z M59.4,49.7c0,0.6,0,1.1,0,1.7c0,0.3,0.1,0.6-0.4,0.6c-0.5,0-0.5-0.3-0.5-0.6c0-1.1,0-2.2,0-3.3
	c0-0.3,0-0.6,0.5-0.6c0.6,0,0.4,0.4,0.4,0.7C59.4,48.6,59.4,49.2,59.4,49.7z M61.1,49.8c0,0.6,0,1.1,0,1.7c0,0.3,0,0.5-0.4,0.5
	c-0.4,0-0.5-0.1-0.4-0.5c0-1.2,0-2.4,0-3.5c0-0.3,0-0.5,0.4-0.5c0.4,0,0.5,0.1,0.5,0.5C61,48.5,61.1,49.1,61.1,49.8z"/>
</svg>
