<?xml version="1.0" encoding="utf-8"?>
<!-- Generator: Adobe Illustrator 28.1.0, SVG Export Plug-In . SVG Version: 6.00 Build 0)  -->
<svg version="1.1" id="圖層_1" xmlns="http://www.w3.org/2000/svg" xmlns:xlink="http://www.w3.org/1999/xlink" x="0px" y="0px"
	 viewBox="0 0 800 600" style="enable-background:new 0 0 800 600;" xml:space="preserve">
<style type="text/css">
	.st0{fill:#E0E0E0;}
	.st1{fill:#9B9C9E;}
</style>
<rect class="st0" width="800" height="600"/>
<g>
	<path class="st1" d="M655.8,200.1c0-15.8-11.5-27.2-27.2-27.2c-8,0-16-0.1-24,0.1c-2.7,0.1-3.7-0.6-3.6-3.5
		c0.2-7.1,0.1-14.2,0.1-21.4c-0.2-18.3-14.1-30.2-29.9-30.1c-53.3,0.4-106.6,0.1-160,0.1c-79.4,0-158.8,0-238.2,0
		c-6,0-11.3,1.6-16.2,4.9c-9.2,6.4-12.7,15.7-12.7,26.5c0,80.6,0,161.2,0,241.8c0,3.5,0.3,7,0.5,10.4c0.9,14.9,14.5,26.6,29,26.1
		c7.5-0.2,15,0.1,22.5-0.1c2.6,0,3.5,0.7,3.4,3.4c-0.1,8.9,0.1,17.7-0.1,26.6c-0.2,11.6,11.8,24.4,24.4,24.4
		c67.9-0.5,135.9-0.2,203.8-0.2s135.9,0,203.8,0c2.6,0,5.2,0.2,7.7-0.9c10.3-4.4,16.7-13.6,16.7-24.8
		C655.9,370.8,655.9,285.4,655.8,200.1z M162,343.3c0-64.9,0-129.7,0-194.6c0-8.8,3.9-12.7,12.8-12.7c131.9,0,263.7,0,395.6,0
		c9,0,12.8,3.9,12.8,13c0,62.1,0,124.2,0,186.3c0,1.1,0,2.2,0,3.6c-1.8-0.3-2.6-1.7-3.6-2.7c-32.7-32.7-65.3-65.4-98-98.1
		c-9.1-9.2-18.6-9.2-27.7-0.1c-18.9,18.9-37.8,37.8-56.6,56.8c-2.5,2.5-3.8,2.2-6.1-0.1c-24.6-24.8-49.5-49.4-74-74.4
		c-8.1-8.3-19.5-8.5-27.9-0.1c-41,41.5-82.4,82.6-123.6,123.9c-1,1-1.7,2.1-2.6,3.2c-0.4-0.2-0.8-0.4-1.1-0.5
		C162,345.7,162,344.5,162,343.3z M175.1,410c-3.8,0-7.5-0.1-10.2-3.4c-1.8-2.2-3-4.5-2.9-7.5c0.1-7.5,0.1-15,0-22.5
		c-0.1-2.7,0.7-4.6,2.7-6.6c16-15.9,32-31.6,47.6-47.8c28.9-29.7,58.5-58.8,87.6-88.3c2.2-2.3,3.4-2.5,5.8-0.1
		c35.7,35.9,71.7,71.5,107.1,107.5c14.4,14.7,29.4,28.8,43.8,43.6c2.4,2.5,5.2,4.4,8.9,3.4c6.7-1.7,9.1-8.9,4.7-14.5
		c-0.8-1-1.7-1.8-2.6-2.7c-19.4-19.5-38.8-38.9-58.3-58.3c-2.2-2.2-2.3-3.3-0.1-5.6c12.5-12.3,24.8-24.7,37.1-37.1
		c6.2-6.3,12.4-12.7,18.5-19.1c1.7-1.8,2.9-2,4.8-0.1c29.5,29.7,59.2,59.2,88.6,88.9c7.5,7.5,14.9,15.1,22.4,22.6
		c1.8,1.8,2.6,3.7,2.5,6.3c-0.1,9.2-0.1,18.5-0.1,27.7c0,10-3.4,13.4-13.5,13.4c-65.7,0-131.4,0-197.1,0
		C306.8,409.9,241,409.9,175.1,410z M627.3,465.3c-66.7,0-133.4,0-200,0c-66.1,0-132.1,0-198.2,0c-9.2,0-12.3-3.1-12.3-12.4
		c0-7.4,0.1-14.7,0-22.1c0-2.3,0.7-3.2,3-3c1,0.1,2,0,3,0c116.1,0,232.2-0.1,348.4,0.1c16.6,0,30-12.4,30-30c0-67.5,0-135-0.1-202.4
		c0-3.8,0.9-4.9,4.7-4.8c7.5,0.3,15,0.1,22.5,0.1c6.6,0,9.7,3.1,9.7,9.6c0,85,0,170,0,254.9C638,462.1,634.5,465.3,627.3,465.3z"/>
	<path class="st1" d="M387.5,154c-16.9-1-31.4,14.4-31.7,30.9c-0.2,16.8,13.6,32.1,31.4,32.2c17,0.1,31.9-14.5,31.8-31.2
		C418.8,166.8,403.7,153.3,387.5,154z M387.1,199.2c-7.8-0.1-13.8-6.1-13.7-13.8c0.1-7.4,6.6-14,13.9-14c8,0,14,6.2,13.9,14.5
		C401,193.7,395.2,199.2,387.1,199.2z"/>
</g>
</svg>
