<?xml version="1.0" encoding="UTF-8"?>
<svg id="_圖層_1" data-name="圖層 1" xmlns="http://www.w3.org/2000/svg" version="1.1" viewBox="0 0 420 420">
  <defs>
    <style>
      .cls-1 {
        fill: #4d76b1;
      }

      .cls-1, .cls-2, .cls-3, .cls-4, .cls-5, .cls-6, .cls-7, .cls-8, .cls-9, .cls-10, .cls-11, .cls-12, .cls-13 {
        stroke-width: 0px;
      }

      .cls-2 {
        fill: #4872bc;
      }

      .cls-3 {
        fill: #77ae50;
      }

      .cls-4 {
        fill: #229544;
      }

      .cls-5 {
        fill: #e47f3a;
      }

      .cls-6 {
        fill: #b3ceea;
      }

      .cls-7 {
        fill: #cd0010;
      }

      .cls-8 {
        fill: #000;
      }

      .cls-9 {
        fill: #e9f555;
      }

      .cls-10 {
        fill: #7134a7;
      }

      .cls-11 {
        fill: #f9c027;
      }

      .cls-12 {
        fill: #2db6eb;
      }

      .cls-13 {
        fill: #d1ba74;
      }
    </style>
  </defs>
  <path class="cls-4" d="M209.9,10c27,0,53.2,5.3,77.8,15.7,23.8,10.1,45.2,24.5,63.5,42.8,18.4,18.4,32.8,39.7,42.8,63.5,10.4,24.6,15.7,50.8,15.7,77.8s-5.3,53.2-15.7,77.8c-10.1,23.8-24.5,45.2-42.8,63.5-18.4,18.4-39.7,32.8-63.5,42.8-24.6,10.4-50.8,15.7-77.8,15.7s-53.2-5.3-77.8-15.7c-23.8-10.1-45.2-24.5-63.5-42.8-18.4-18.4-32.8-39.7-42.8-63.5-10.4-24.6-15.7-50.8-15.7-77.8s5.3-53.2,15.7-77.8c10.1-23.8,24.5-45.2,42.8-63.5,18.4-18.4,39.7-32.8,63.5-42.8,24.6-10.4,50.8-15.7,77.8-15.7M209.9,0C94,0,0,94,0,209.9s94,209.9,209.9,209.9,209.9-94,209.9-209.9S325.8,0,209.9,0h0Z"/>
  <path class="cls-1" d="M209.9,24.9c25,0,49.2,4.9,72,14.5,22,9.3,41.8,22.6,58.8,39.6,17,17,30.3,36.8,39.6,58.8,9.6,22.8,14.5,47,14.5,72s-4.9,49.2-14.5,72c-9.3,22-22.6,41.8-39.6,58.8-17,17-36.8,30.3-58.8,39.6-22.8,9.6-47,14.5-72,14.5s-49.2-4.9-72-14.5c-22-9.3-41.8-22.6-58.8-39.6-17-17-30.3-36.8-39.6-58.8-9.6-22.8-14.5-47-14.5-72s4.9-49.2,14.5-72c9.3-22,22.6-41.8,39.6-58.8,17-17,36.8-30.3,58.8-39.6,22.8-9.6,47-14.5,72-14.5M209.9,18.9C104.5,18.9,19,104.4,19,209.8s85.5,190.9,190.9,190.9,190.9-85.5,190.9-190.9S315.3,18.9,209.9,18.9h0Z"/>
  <g>
    <path class="cls-8" d="M60.1,183.3l-14.4-9,.5-2,16.9-2.1-.5,2.1-5,.5-1.3,5.8,4.3,2.6-.5,2.1ZM48.3,173.8l6.4,3.9,1.1-4.7-7.5.8h0Z"/>
    <path class="cls-8" d="M52.8,160.8c.9-2.8,2.9-3.7,4.8-3.1l-.6,1.8c-.9-.2-2.1,0-2.7,1.9-.4,1.4-.1,2.6,1,3,1.3.4,2.1-1.1,2.8-2.3,1.1-2.1,2.3-3.8,4.5-3,2.3.7,3.1,3,2.2,5.8-.8,2.6-2.6,4-4.7,3.3l.6-1.9c1.1.2,2.1-.5,2.6-2.1.6-1.8,0-2.9-1-3.2-1.3-.4-2,.8-2.8,2.4-1.1,2.1-2.4,3.6-4.5,3-2.5-.8-2.9-3.2-2.2-5.5Z"/>
    <path class="cls-8" d="M52,150.7c.3-.7,1-1,1.7-.8.7.3,1,1,.7,1.7-.3.7-1,1-1.6.8-.7-.3-1-1-.8-1.7ZM55.6,153.2l.7-1.9,11.5,4.3-.7,1.9-11.5-4.3Z"/>
    <path class="cls-8" d="M65.6,151.6c-2-.9-2.6-2.8-1.5-5.4l1.3-3-1.1-.5c-1.5-.7-2.7-.2-3.3,1.4-.6,1.4-.3,2.6.8,3.2l-.8,1.7c-1.9-1-2.8-3-1.6-5.7,1.1-2.4,3.1-3.6,5.5-2.5l7.8,3.4-.8,1.8-1.4-.6h0c.7,1,.9,2.4.1,4-1,2.2-3,3.1-5,2.2ZM68.1,144.4l-1.3-.6-1.3,2.8c-.7,1.5-.2,2.5.8,3,1.3.6,2.4-.2,3-1.4.7-1.6.2-3.2-1.2-3.8Z"/>
    <path class="cls-8" d="M63.3,135.5l1-1.8,1.4.8h0c-.5-.8-.8-2.3.1-4.1,1.2-2.2,3.5-3.1,6.2-1.7l6.9,3.8-1,1.8-6.6-3.6c-1.8-1-3.3-.4-4.2,1.1-1,1.9-.1,3.4,1.3,4.2l6.6,3.6-1,1.8-10.8-5.9Z"/>
    <path class="cls-8" d="M82.7,126.2l-12.9-9.5,2.4-3.2,9.7,2.1h0c0,0-4.8-8.8-4.8-8.8l2.4-3.2,12.9,9.5-2.1,2.8-8-5.9h0c0,.1,4,7.3,4,7.3l-1.4,1.8-8-1.7h-.1c0,.1,8,6,8,6l-2,2.8Z"/>
    <path class="cls-8" d="M91.1,109.2c-1.7-1.5-1.7-3.7.3-5.8l2-2.1-.8-.7c-.8-.7-1.6-.6-2.3.2-.7.8-.7,1.6-.1,2.3l-2.4,2.6c-1.5-1.4-2.2-3.8.5-6.7,2-2.2,4.5-3.1,6.8-1l6.2,5.6-2.4,2.6-1.1-1h-.1c.4,1,.3,2.3-1,3.7-1.7,1.8-3.8,2.1-5.6.5ZM95.7,103.4l-.9-.8-1.3,1.4c-.8.9-.8,1.7-.2,2.3.7.7,1.7.4,2.3-.3.7-.8.8-1.9.1-2.6Z"/>
    <path class="cls-8" d="M91.3,89.7l2.7-2.6,11.7,12.1-2.7,2.6-11.7-12.1Z"/>
    <path class="cls-8" d="M97.6,82.9c.8-.7,2-.8,2.7,0s.5,2-.3,2.7-2,.8-2.7,0-.5-2,.3-2.7ZM99.5,87.9l2.8-2.5,8.3,9.4-2.8,2.5-8.3-9.4Z"/>
    <path class="cls-8" d="M118.5,87.9l-1.1-1.4h-.1c.3,1.3-.2,2.7-1.6,3.8-2.2,1.7-4.9,1.2-7.3-1.9l-.4-.5c-2.4-3.1-2.2-5.8,0-7.5,1.4-1.1,2.9-1.2,4-.5h.1c0-.1-1.2-1.6-1.2-1.6l3-2.3,7.6,9.8c2.2,2.8.3,5.7-2,7.4-3,2.3-5.5,2-6.9.4l2.8-2.2c.6.5,1.6.4,2.5-.3,1.2-.9,1.3-2.1.4-3.3ZM111.1,85.7l.4.6c1.2,1.6,2.6,1.9,3.6,1.1,1.1-.8,1.1-2.2-.1-3.8l-.4-.6c-1.2-1.6-2.6-1.9-3.6-1.1-1.1.8-1.1,2.2.1,3.8Z"/>
    <path class="cls-8" d="M116.9,74l3.1-2,1,1.6h.1c-.2-1,.1-2.7,1.9-3.8,2.1-1.4,4.4-.9,6,1.6l4.3,6.8-3.2,2-3.9-6.1c-1-1.5-2.1-1.5-3-.9-1.1.7-1.3,1.9-.5,3.2l3.8,6-3.2,2-6.7-10.6Z"/>
    <path class="cls-8" d="M133.2,74.3c-1.1-2-.3-4,2.3-5.4l2.6-1.3-.5-.9c-.5-.9-1.3-1.1-2.2-.6-.9.5-1.2,1.3-.9,2.1l-3.1,1.6c-.9-1.8-.7-4.3,2.8-6.1,2.7-1.4,5.3-1.3,6.7,1.4l3.8,7.4-3.1,1.6-.7-1.3h-.1c0,1-.5,2.2-2.1,3.1-2.2,1.1-4.3.6-5.4-1.5ZM139.6,70.5l-.6-1.1-1.7.9c-1,.5-1.3,1.3-.9,2.1.5.9,1.4.9,2.2.5.9-.5,1.4-1.5,1-2.4Z"/>
    <path class="cls-8" d="M142,59.9l3.4-1.4.7,1.8h.2c0-1,.6-2.6,2.5-3.4,2.3-1,4.5-.1,5.6,2.7l3.1,7.5-3.5,1.4-2.7-6.7c-.7-1.7-1.9-1.8-2.8-1.4-1.2.5-1.6,1.6-1,3l2.7,6.6-3.5,1.4-4.8-11.6Z"/>
    <path class="cls-8" d="M156,51.3l3.4-1.1.9,2.8,2.3-.7.9,2.7-2.3.7,1.7,5.2c.3,1,1,1.2,2.1.9.3,0,.6-.2.7-.2l.8,2.6c-.3.1-.8.4-1.5.6-3.1,1-4.6.5-5.4-2l-1.9-5.8-1.7.6-.9-2.7,1.8-.6-.9-2.8Z"/>
    <path class="cls-8" d="M182.5,60.3l-1.3-6.4-5.8,1.2,1.3,6.4-3.8.8-3.2-15.7,3.8-.8,1.2,6.2,5.8-1.2-1.2-6.2,3.8-.8,3.2,15.7-3.8.8Z"/>
    <path class="cls-8" d="M196.3,57.9l-.2.9c-.8,3.1-2.4,4.4-5.5,4.8-.6,0-1.4,0-1.9,0l-.3-2.6c.2,0,.7,0,1.1,0,1.4-.1,2-.6,2-1.7v-.3s-5.4-12-5.4-12l4.1-.4,3.2,9.1h.1s1.3-9.6,1.3-9.6l4-.4c-.9,4.5-2.6,12.1-2.6,12.2Z"/>
    <path class="cls-8" d="M205.5,56.1h-.2s.1,6,.1,6h-3.8c0,0-.3-16.6-.3-16.6h3.7c0,0,0,1.8,0,1.8h.2c.6-1.3,1.8-2.1,3.5-2.1,2.8,0,4.7,2,4.7,5.8v1c0,3.8-1.7,5.9-4.5,6-1.7,0-3-.8-3.5-2ZM209.6,52v-.8c0-2-.9-3.1-2.3-3-1.3,0-2.2,1.1-2.2,3.1v.8c0,2,1,3.1,2.3,3.1,1.3,0,2.2-1.1,2.1-3.2Z"/>
    <path class="cls-8" d="M215.4,52.1v-1c.3-3.9,3-5.8,6.3-5.5,3.5.2,5.6,2.7,5.3,6.4v1.3c0,0-7.9-.6-7.9-.6v.4c-.1,1.6.8,2.6,2.1,2.7,1.1,0,2-.4,2.2-1.3l3.4.2c-.3,2-2.1,4.1-5.8,3.8-3.5-.2-5.8-2.5-5.5-6.4ZM223.4,50.8h0c0-1.4-.7-2.5-1.9-2.6-1.3,0-2.2.9-2.3,2.2h0s4.3.3,4.3.3Z"/>
    <path class="cls-8" d="M230.1,46.6l3.7.5-.3,1.8h.2c.3-.8,1.4-1.8,3.1-1.6.5,0,.9.2,1.1.3l-.5,3.2c-.3-.1-.8-.3-1.3-.3-1.9-.3-2.8.7-3,2.4l-1,6.7-3.8-.5,1.8-12.4Z"/>
    <path class="cls-8" d="M242.4,45.6l3.5.7-.6,2.8,2.3.5-.6,2.8-2.3-.5-1.1,5.3c-.2,1.1.2,1.6,1.3,1.8.3,0,.6.1.7.1l-.6,2.7c-.3,0-.9,0-1.6-.2-3.1-.7-4.2-1.9-3.7-4.4l1.3-6-1.8-.4.6-2.8,1.9.4.6-2.8Z"/>
    <path class="cls-8" d="M251.9,46.2l3.6,1.1-1.8,6h.2c.6-.7,2-1.6,4-1,2.4.7,3.6,2.7,2.7,5.6l-2.3,7.7-3.6-1.1,2-6.9c.5-1.7-.3-2.6-1.3-2.9-1.2-.4-2.3.3-2.7,1.7l-2,6.9-3.6-1.1,4.7-16.2Z"/>
    <path class="cls-8" d="M262.2,60.8l.4-.9c1.4-3.6,4.5-4.6,7.6-3.4,3.3,1.3,4.5,4.2,3.2,7.7l-.5,1.2-7.3-2.9-.2.4c-.6,1.5,0,2.7,1.2,3.2,1,.4,2,.2,2.5-.6l3.2,1.2c-.9,1.8-3.2,3.3-6.7,1.9-3.3-1.3-4.8-4.1-3.3-7.8ZM270.2,62h0c.5-1.3.1-2.6-1.1-3-1.2-.5-2.4.2-2.9,1.5h0s4,1.6,4,1.6Z"/>
    <path class="cls-8" d="M277.9,60l3.4,1.6-.8,1.7h.2c.6-.6,1.9-1.2,3.4-.5.5.2.8.4,1,.6l-1.4,2.9c-.2-.2-.7-.5-1.2-.7-1.7-.8-2.9-.1-3.6,1.4l-2.9,6.1-3.5-1.7,5.4-11.3Z"/>
    <path class="cls-8" d="M287.5,64.5l3.1,1.9-1,1.7h.2c.8-.6,2.3-1,4,0,1.6,1,2.1,2.4,1.8,3.7h.1c.9-.6,2.6-1,4.4.1,2.2,1.3,2.5,3.5,1.3,5.6l-4.5,7.3-3.2-2,3.9-6.4c.8-1.4.5-2.3-.4-2.8-1-.6-2-.3-2.8,1l-3.8,6.3-3.1-1.9,3.8-6.3c.9-1.5.4-2.4-.4-2.9-.9-.5-1.9-.4-2.8,1l-3.8,6.3-3.2-2,6.5-10.7Z"/>
    <path class="cls-8" d="M306.1,76.4l3,2.2-7.4,10.1-3-2.2,7.4-10.1ZM310.6,73.5c.9.7,1.2,1.8.5,2.7s-1.8.9-2.7.3c-.9-.7-1.2-1.8-.5-2.7.7-.9,1.8-.9,2.7-.3Z"/>
    <path class="cls-8" d="M305.7,87.1c1.5-1.7,3.6-1.8,5.8,0l2.2,1.9.7-.8c.7-.8.5-1.6-.3-2.3-.8-.7-1.7-.6-2.3,0l-2.7-2.3c1.4-1.5,3.7-2.3,6.7.2,2.3,1.9,3.3,4.4,1.3,6.8l-5.4,6.4-2.7-2.3,1-1.1h-.1c-.9.3-2.2.3-3.6-.9-1.9-1.6-2.2-3.8-.7-5.6ZM311.6,91.5l.8-.9-1.5-1.2c-.9-.7-1.7-.7-2.3,0-.6.8-.3,1.7.4,2.2.8.7,1.9.8,2.6,0Z"/>
    <path class="cls-8" d="M316.1,100.9l15.5-6.8,1.4,1.5-7.7,15.1-1.5-1.6,2.4-4.5-4.1-4.3-4.6,2.1-1.5-1.6ZM330.5,96.5l-6.8,3.1,3.3,3.5,3.5-6.6h0Z"/>
    <path class="cls-8" d="M339.4,101.5l1.3,1.5-13,10.7-1.3-1.5,13-10.7Z"/>
    <path class="cls-8" d="M343.3,106.4l1.2,1.6-13.4,10.3-1.2-1.6,13.4-10.3Z"/>
    <path class="cls-8" d="M343.4,114l1.2,1.6-10,7.1-1.2-1.6,10-7.1ZM347.4,112.3c.4.6.3,1.4-.3,1.8-.6.4-1.4.3-1.8-.3s-.3-1.4.3-1.8c.6-.4,1.4-.3,1.8.3Z"/>
    <path class="cls-8" d="M339.2,123.1c1.8-1.1,3.8-.6,5.3,1.8l1.7,2.8,1.1-.7c1.4-.9,1.6-2.1.7-3.5-.8-1.3-2-1.7-3.1-1.1l-1-1.6c1.9-1,4-.6,5.6,1.9,1.4,2.2,1.2,4.6-1,6l-7.2,4.5-1-1.6,1.3-.8h0c-1.2,0-2.4-.6-3.4-2.1-1.3-2-.9-4.2,1-5.4ZM343.6,129.3l1.2-.8-1.6-2.6c-.9-1.4-2-1.6-2.9-1-1.2.8-1.2,2.2-.5,3.2.9,1.5,2.5,2,3.8,1.2Z"/>
    <path class="cls-8" d="M353.7,130.2l.9,1.8-1.4.7h0c.9,0,2.4.6,3.3,2.4,1.2,2.2.6,4.7-2.1,6l-7,3.6-.9-1.8,6.7-3.5c1.8-1,2.2-2.5,1.4-4.1-1-1.9-2.7-2-4.2-1.2l-6.7,3.4-.9-1.8,10.9-5.6Z"/>
    <path class="cls-8" d="M354.8,144.5c3.1-1.3,6-.4,7.2,2.5,1.1,2.6,0,5-1.7,5.8l-.8-1.8c.9-.6,1.4-1.9.8-3.1-.8-1.9-2.6-2.4-4.9-1.4l-1.1.4c-2.2.9-3.2,2.7-2.5,4.5.6,1.4,1.7,1.9,2.7,1.8l.8,1.8c-2.1.4-4.1-.4-5.1-3-1.3-3,.4-5.7,3.4-6.9l1.1-.5Z"/>
    <path class="cls-8" d="M358.3,156.5l1.3-.4c3.1-1,5.9,0,6.9,3.1,1,3.1-.6,5.5-3.9,6.6l-1.1.4-2.5-7.7h-.2c-2.2.8-3.4,2.4-2.8,4.3.4,1.4,1.4,2,2.6,2.1l.6,1.9c-2.1.2-4-.9-4.9-3.5-1-3.1.6-5.6,3.9-6.7ZM362.5,163.7h0c1.9-.6,3-2.2,2.4-4-.6-1.8-2.4-2.4-4.3-1.8h0s1.9,5.8,1.9,5.8Z"/>
  </g>
  <g>
    <path class="cls-12" d="M110.3,346.2l15.5-48h14.2l15.4,48h-12.4l-3.1-11h-14.8l-3.1,11h-11.6ZM132.3,308.6l-5.1,18.2h10.6l-5-18.2h-.5Z"/>
    <path class="cls-7" d="M160.3,346.2v-48h12l12.3,27.1h.4l12.3-27.1h11.9v48h-10.4v-29.7h-.5l-10.1,22.5h-6.8l-10.2-22.5h-.5v29.7h-10.3Z"/>
    <path class="cls-7" d="M247.9,346.2v-19.6h-17.6v19.6h-11.6v-48h11.6v18.9h17.6v-18.9h11.6v48h-11.6Z"/>
    <path class="cls-4" d="M264.5,346.2l15.5-48h14.2l15.4,48h-12.4l-3.1-11h-14.8l-3.1,11h-11.6ZM286.5,308.6l-5.1,18.2h10.6l-5-18.2h-.5Z"/>
  </g>
  <g>
    <circle class="cls-9" cx="168.8" cy="86.2" r="4"/>
    <circle class="cls-9" cx="187.7" cy="82.4" r="4"/>
    <circle class="cls-9" cx="203.3" cy="95.1" r="4"/>
    <circle class="cls-9" cx="191.5" cy="107" r="4"/>
    <circle class="cls-9" cx="207.3" cy="116.2" r="4"/>
    <circle class="cls-9" cx="210.2" cy="152.2" r="4"/>
    <circle class="cls-9" cx="210.1" cy="173.5" r="4"/>
    <circle class="cls-9" cx="239.5" cy="260.4" r="4"/>
    <circle class="cls-9" cx="216.5" cy="269.7" r="4"/>
    <circle class="cls-9" cx="202.1" cy="271.7" r="4"/>
    <circle class="cls-9" cx="177.7" cy="269.7" r="4"/>
    <circle class="cls-9" cx="222.6" cy="99.1" r="4"/>
  </g>
  <circle class="cls-10" cx="183.6" cy="178.1" r="8.1"/>
  <g>
    <rect class="cls-6" x="141.7" y="155.2" width="55.1" height="12.5"/>
    <rect class="cls-6" x="141.7" y="232.8" width="55.1" height="12.5"/>
    <rect class="cls-6" x="224" y="232.8" width="55.1" height="12.5"/>
    <rect class="cls-6" x="224" y="155.2" width="55.1" height="12.5"/>
  </g>
  <polygon class="cls-7" points="258.2 242.1 248.4 242.1 249.9 157.5 259.7 157.5 258.2 242.1"/>
  <polygon class="cls-11" points="190.3 263 209 263 209 191 177.2 191 190.3 263"/>
  <polygon class="cls-11" points="233.2 263 214.6 263 214.6 191 246.4 191 233.2 263"/>
  <g>
    <path class="cls-7" d="M99.2,251.7v-90.2c0-2.4-2-4.4-4.4-4.4s-4.4,2-4.4,4.4v90.2c-4.9,1.8-8.4,6.5-8.4,12s5.7,12.8,12.8,12.8,12.8-5.7,12.8-12.8-3.5-10.2-8.4-12Z"/>
    <path class="cls-7" d="M109.5,244v-84.5c0-8.1-6.6-14.7-14.7-14.7h0c-8.1,0-14.7,6.6-14.7,14.7v84.5c-6,4.5-9.9,11.6-9.9,19.7,0,13.6,11,24.6,24.6,24.6s24.6-11,24.6-24.6-3.9-15.2-9.9-19.7ZM94.8,282.3c-10.2,0-18.6-8.3-18.6-18.6s4-13.3,9.9-16.4v-2.7h0c0-.1,0-.3,0-.4v-84.7c0-4.8,3.9-8.7,8.7-8.7s8.7,3.9,8.7,8.7v81.2s0,0,0,0v3.8c0,0,0,.1,0,.2h0v2.6c5.9,3.1,9.9,9.3,9.9,16.4,0,10.2-8.3,18.6-18.6,18.6Z"/>
    <rect class="cls-7" x="114" y="163" width="15.8" height="6" rx="3" ry="3"/>
    <rect class="cls-7" x="114" y="183.4" width="15.8" height="6" rx="3" ry="3"/>
    <rect class="cls-7" x="114" y="203.7" width="15.8" height="6" rx="3" ry="3"/>
    <rect class="cls-7" x="114" y="224" width="15.8" height="6" rx="3" ry="3"/>
    <rect class="cls-7" x="114" y="173.2" width="21.5" height="6" rx="3" ry="3"/>
    <rect class="cls-7" x="114" y="193.5" width="21.5" height="6" rx="3" ry="3"/>
    <rect class="cls-7" x="114" y="213.9" width="21.5" height="6" rx="3" ry="3"/>
    <rect class="cls-7" x="114" y="234.2" width="21.5" height="6" rx="3" ry="3"/>
  </g>
  <path class="cls-2" d="M224,128.8h-9.4c1.8,8.9,2.8,18.6,2.8,28.7s-1,19.8-2.8,28.7h9.4v-57.5Z"/>
  <polygon class="cls-5" points="237.4 162.7 232.9 162.7 231.2 174.6 232.9 186.3 237.4 186.3 239.1 174.6 237.4 162.7"/>
  <path class="cls-3" d="M204.6,128.8h-7.5c-1.8,8.9-2.8,18.6-2.8,28.7s1,19.8,2.8,28.7h7.5s-1.3-18.6-1.3-28.7,1.3-28.7,1.3-28.7Z"/>
  <g>
    <path class="cls-13" d="M321.4,274.7c0-5.2-.9-9.8-2.1-13.6,0-.7-.2-1.4-.7-1.9-2-5.3-4.3-8.4-4.5-8.7-.2-.2-2.7-3.7-5.6-7.5,1.5-.7,2.9-1.3,3.9-1.7,1.3-.5,1.9-2,1.3-3.3-.5-1.3-2-1.9-3.3-1.3-.6.3-2.5,1.1-5.1,2.2-1-1.2-2-2.4-2.8-3.4-3.4-3.9-11-13.7-11.2-23.3l10.9,3c.2,0,.4,0,.7,0,1.1,0,2.1-.7,2.4-1.8.4-1.3-.4-2.7-1.8-3.1l-11.4-3.1c1.3-3,4.1-5.9,7.3-8.3l10.1,2.8c.2,0,.4,0,.7,0,1.1,0,2.1-.7,2.4-1.8.4-1.3-.4-2.7-1.8-3.1l-5.8-1.6c2.9-1.7,5.6-3,7.4-3.7h.1c0,0,1.5-.8,3.8-1.8l3.3,4.3c.5.6,1.2,1,2,1s1.1-.2,1.5-.5c1.1-.8,1.3-2.4.5-3.5l-2.6-3.5c4.8-2.3,10.7-5.2,14.8-7.4,1-.5,1.9-1.1,2.7-1.8.1,0,.2-.2.3-.3,7.4-6.6,9.5-19.7,9.6-20.3.2-1.4-.7-2.6-2.1-2.9-1.4-.2-2.6.7-2.9,2.1-.5,3.4-2.8,12-7.2,16.6l-12.1-3.2c-1.3-.3-2.7.4-3.1,1.8-.4,1.3.4,2.7,1.8,3.1l7.7,2c-4,2-8.8,4.3-12.7,6.2l-4.3-5.6h-.1c0-.2-2.3-2.8-4.6-6.3l4.7,1.3c.2,0,.4,0,.7,0,1.1,0,2.1-.7,2.4-1.8.4-1.3-.4-2.7-1.8-3.1l-9.4-2.6c-.7-1.5-1.2-3.1-1.4-4.5-.2-1.5-.2-3.1,0-4.7l28.5,7.5c.2,0,.4,0,.6,0,1.1,0,2.1-.7,2.4-1.9.4-1.3-.4-2.7-1.8-3.1l-28.8-7.6c.6-2.5,1.3-4.3,1.3-4.4.5-1.3-.1-2.7-1.4-3.2-1.3-.5-2.7.1-3.2,1.4-.1.4-3.5,9.3-2.5,16.5.3,2.2,1.2,4.6,2.2,6.8,0,.1.1.2.2.4,3,6.1,7.5,11.4,8.1,12.1l3.6,4.7c-1.5.7-2.5,1.2-2.7,1.3-.8.3-6.8,2.8-12.5,6.9-.4.2-.8.4-1.1.8-4.9,3.6-9.4,8.4-10.3,14,0,0,0,.1,0,.2,0,.2,0,.3,0,.5-1.4,12.3,8.1,24.7,12.3,29.4.6.7,1.2,1.4,1.9,2.2-5.8,2.7-12.7,6.2-16.5,8.9-.3.2-.6.4-.9.7-.2.2-.4.4-.6.5-4.5,4.1-9.3,12.7-9.3,20.5s1.1,2.5,2.5,2.5,2.5-1.1,2.5-2.5c0-6.1,3.8-13.2,7.5-16.7l13.7,3.8c.2,0,.4,0,.7,0,1.1,0,2.1-.7,2.4-1.8.4-1.3-.4-2.7-1.8-3.1l-9.5-2.6c3.6-2,8.3-4.3,12.5-6.2,3.2,4.2,6.2,8.3,6.3,8.4,0,0,1,1.3,2.1,3.5l-2.3-.6c-1.3-.4-2.7.4-3.1,1.8s.4,2.7,1.8,3.1l6,1.6c.9,2.7,1.5,5.9,1.7,9.6l-26.8-7.3c-1.3-.4-2.7.4-3.1,1.8-.4,1.3.4,2.7,1.8,3.1l27.9,7.6c-.4,2.7-1.1,5.2-1.1,5.3-.4,1.3.4,2.7,1.7,3.1.2,0,.4,0,.7,0,1.1,0,2.1-.7,2.4-1.8,0-.2,1-3.7,1.4-7.3,0-.1.1-.3.2-.5.1-.5.1-1,0-1.5,0,0,0-.2,0-.3Z"/>
    <path class="cls-13" d="M367.1,267.7l-10.4-17.3c-2-3.3-5.9-4.8-9.4-3.8l-3.9-7.2c6.4-4.4,10.7-11.8,10.7-20.1,0-13.4-10.9-24.3-24.3-24.3s-24.3,10.9-24.3,24.3,10.9,24.3,24.3,24.3,6.4-.7,9.2-1.8l4,7.5c-.9,1-1.5,2.2-1.8,3.5-.5,2.2-.2,4.5.9,6.4l10.4,17.3c1.6,2.6,4.4,4.1,7.3,4.1s3-.4,4.3-1.2c1.9-1.2,3.3-3,3.9-5.2.5-2.2.2-4.5-.9-6.4ZM310.5,219.2c0-10.7,8.7-19.3,19.3-19.3s19.3,8.7,19.3,19.3-8.7,19.3-19.3,19.3-19.3-8.7-19.3-19.3ZM363.2,272.9c-.2.9-.8,1.7-1.6,2.1-1.6,1-3.8.5-4.8-1.2l-10.4-17.3c-.5-.8-.6-1.7-.4-2.6.2-.9.8-1.7,1.6-2.1.6-.3,1.2-.5,1.8-.5,1.2,0,2.3.6,3,1.7l10.4,17.3c.5.8.6,1.7.4,2.6Z"/>
  </g>
</svg>